<svg width="259" height="250" viewBox="0 0 259 250" fill="none" xmlns="http://www.w3.org/2000/svg">
<path d="M118.761 171.256C118.761 171.256 98.5375 81.7554 62.3929 81.7554C-2.58129 81.7554 -4.30245 201.377 39.5874 240.964C52.9265 253.012 108.865 253.012 226.765 240.964C239.243 239.673 234.51 227.625 216.868 219.449C205.25 213.855 148.882 203.528 118.761 171.256Z" fill="#FFBEB5"/>
<path d="M32.7022 99.3979C32.7022 104.561 34.4234 109.295 37.4355 111.876C38.7263 113.167 40.4475 114.028 42.1687 114.888C43.0293 115.319 43.8898 115.319 44.7504 115.319H47.7625C51.6351 115.319 55.5077 114.028 58.5198 111.446C61.5318 108.864 63.6833 104.561 65.4045 99.3979C67.1256 104.561 67.1256 110.586 63.6833 115.749C60.241 120.913 53.7866 123.925 47.7625 123.925H45.611C44.7504 123.925 44.3201 123.925 43.4595 123.494C41.7384 123.064 40.4475 122.634 38.7263 122.203C35.7143 120.913 33.1325 118.761 31.8416 115.749C28.8296 110.586 29.2599 103.701 32.7022 99.3979Z" fill="#4F453E"/>
<path d="M244.837 169.104C259.467 150.602 261.618 120.912 253.443 102.839C241.395 76.1613 217.728 72.2886 217.728 72.2886C185.887 21.0838 98.1071 21.0838 71.429 83.9065C94.2345 97.2456 107.143 134.681 114.458 154.905C121.343 182.013 134.682 206.54 156.627 212.994C166.093 215.576 167.815 205.679 167.815 205.679C173.839 214.285 186.317 220.309 197.505 217.297C239.243 205.249 244.837 169.104 244.837 169.104Z" fill="#4F453E"/>
<path d="M53.7862 91.2234L42.5986 95.096L31.8413 65.4058L43.0289 61.5332L53.7862 91.2234ZM78.7432 102.411L67.9859 97.6778L81.325 68.8482L92.0823 74.0117L78.7432 102.411Z" fill="#FFBEB5"/>
<path d="M73.1498 41.7394C73.1498 61.9632 56.7986 78.3143 36.5749 78.3143C16.3511 78.3143 0 61.9632 0 41.7394C0 21.5157 16.3511 5.16455 36.5749 5.16455C56.7986 5.59484 73.1498 21.946 73.1498 41.7394Z" fill="#FFBEB5"/>
<path d="M57.6597 43.0287C57.6597 58.9495 45.1812 71.428 30.121 71.428C14.6305 71.428 2.58228 58.5192 2.58228 43.0287C2.58228 27.1079 15.0608 14.6294 30.121 14.6294C45.1812 14.6294 57.6597 27.5382 57.6597 43.0287Z" fill="#F6F1E3"/>
<path d="M53.8658 44.7935C53.8658 55.5508 45.2599 64.5869 34.9329 64.5869C24.6059 64.5869 16 55.9811 16 44.7935C16 34.0361 24.6059 25 34.9329 25C45.6902 25.4303 53.8658 34.0361 53.8658 44.7935Z" fill="#4F453E"/>
<path d="M168.245 205.248C160.069 192.77 154.045 178.57 151.033 163.94C148.021 148.88 148.021 133.39 151.463 118.329C154.906 103.269 162.221 88.6391 174.269 78.3121C180.293 73.1486 187.608 69.7062 195.353 68.4153C203.099 67.1245 210.844 68.4153 217.728 71.8577C210.414 70.1365 203.099 70.1365 196.214 72.288C189.329 74.4394 183.735 78.3121 178.572 83.0453C173.839 87.7785 169.536 93.8026 166.524 100.257C163.512 106.711 160.93 113.166 159.639 120.05C156.197 133.82 155.766 148.45 157.488 162.649C159.639 177.279 163.081 191.479 168.245 205.248Z" fill="#F6F1E3"/>
<path d="M244.837 169.104C241.825 172.976 237.952 175.988 233.649 178.57C229.346 181.152 224.613 182.873 219.019 183.303C213.856 183.733 208.262 182.012 203.529 179C198.796 175.988 195.353 172.116 192.341 167.813C186.317 159.207 184.166 147.589 185.456 137.262C186.747 126.935 191.481 116.608 198.796 108.863C202.668 104.99 206.971 101.548 212.565 99.8264C217.728 97.675 223.753 97.2447 229.346 98.9658C235.37 100.687 240.104 104.99 242.685 109.723C245.267 114.887 246.558 120.48 246.128 126.074C245.697 131.668 243.976 137.262 239.673 141.135C235.801 145.437 228.916 147.589 223.322 144.577C217.728 141.565 215.147 135.541 216.438 129.947C217.298 126.935 219.019 124.783 221.601 123.493C222.892 123.062 224.613 122.632 225.904 123.493C227.195 123.923 228.055 124.783 228.916 126.074C224.613 122.202 220.31 127.365 219.88 130.808C219.45 134.68 222.031 138.983 225.474 140.274C227.195 141.135 228.916 140.704 231.067 140.274C232.789 139.844 234.51 138.553 235.801 137.262C238.382 134.25 239.673 129.947 239.673 125.644C239.673 121.341 238.813 117.038 236.661 113.596C234.51 110.153 231.498 107.572 227.625 106.711C219.88 104.56 211.274 108.432 205.25 114.887C193.202 127.365 189.329 148.88 198.365 164.37C202.668 172.116 209.983 178.57 219.019 179C228.055 179.431 237.522 174.697 244.837 169.104Z" fill="#F6F1E3"/>
<path d="M138.984 41.7384C138.984 64.9742 120.052 83.4768 96.8158 83.4768C73.58 83.4768 54.6471 64.5439 54.6471 41.7384C54.6471 18.5026 73.58 0 96.8158 0C120.052 0 138.984 18.9329 138.984 41.7384Z" fill="#FFBEB5"/>
<path d="M89.0709 76.1618C106.657 76.1618 120.913 61.5205 120.913 43.4596C120.913 25.3986 106.657 10.7573 89.0709 10.7573C71.4852 10.7573 57.2292 25.3986 57.2292 43.4596C57.2292 61.5205 71.4852 76.1618 89.0709 76.1618Z" fill="#F6F1E3"/>
<path d="M114.89 44.8055C114.89 57.284 104.993 67.611 92.9449 67.611C80.8967 67.611 71 57.284 71 44.8055C71 32.327 80.8967 22 92.9449 22C104.993 22 114.89 32.327 114.89 44.8055Z" fill="#4F453E"/>
</svg>
