<svg width="250" height="250" viewBox="0 0 250 250" fill="none" xmlns="http://www.w3.org/2000/svg">
<circle cx="125" cy="125" r="125" fill="#F6F1E3"/>
<path d="M123.18 151.259C123.18 151.259 111.873 101.219 91.6642 101.219C55.3366 101.219 54.3743 168.1 78.9135 190.233C86.3715 196.97 117.647 196.97 183.566 190.233C190.543 189.512 187.896 182.775 178.033 178.204C171.537 175.077 140.021 169.303 123.18 151.259Z" fill="#FFBEB5"/>
<path d="M75.0639 111.083C75.0639 113.97 76.0262 116.616 77.7103 118.06C78.432 118.782 79.3943 119.263 80.3567 119.744C80.8378 119.984 81.319 119.984 81.8001 119.984H83.4842C85.6494 119.984 87.8146 119.263 89.4987 117.819C91.1828 116.376 92.3857 113.97 93.348 111.083C94.3103 113.97 94.3103 117.338 92.3857 120.225C90.461 123.112 86.8523 124.796 83.4842 124.796H82.2813C81.8001 124.796 81.5596 124.796 81.0784 124.556C80.1161 124.315 79.3943 124.074 78.432 123.834C76.748 123.112 75.3045 121.909 74.5827 120.225C72.8987 117.338 73.1392 113.489 75.0639 111.083Z" fill="#4F453E"/>
<path d="M193.67 150.056C201.85 139.711 203.053 123.111 198.482 113.007C191.745 98.0908 178.513 95.9256 178.513 95.9256C160.71 67.2965 111.632 67.2965 96.7161 102.421C109.467 109.879 116.684 130.81 120.774 142.117C124.623 157.274 132.081 170.987 144.351 174.595C149.644 176.039 150.606 170.505 150.606 170.505C153.974 175.317 160.951 178.685 167.206 177.001C190.542 170.265 193.67 150.056 193.67 150.056Z" fill="#4F453E"/>
<path d="M86.8521 106.512L80.597 108.677L74.5825 92.0773L80.8376 89.9121L86.8521 106.512ZM100.806 112.767L94.7913 110.121L102.249 94.002L108.264 96.8889L100.806 112.767Z" fill="#FFBEB5"/>
<path d="M97.6782 78.8453C97.6782 90.1526 88.5361 99.2946 77.2289 99.2946C65.9216 99.2946 56.7795 90.1526 56.7795 78.8453C56.7795 67.538 65.9216 58.396 77.2289 58.396C88.5361 58.6366 97.6782 67.7786 97.6782 78.8453Z" fill="#FFBEB5"/>
<path d="M89.0177 79.5663C89.0177 88.4678 82.0408 95.4446 73.6205 95.4446C64.9596 95.4446 58.2234 88.2272 58.2234 79.5663C58.2234 70.6648 65.2002 63.688 73.6205 63.688C82.0408 63.688 89.0177 70.9054 89.0177 79.5663Z" fill="#FCFCFA"/>
<path d="M87.0927 79.5662C87.0927 85.5807 82.2811 90.6329 76.5072 90.6329C70.7332 90.6329 65.9216 85.8213 65.9216 79.5662C65.9216 73.5517 70.7332 68.4995 76.5072 68.4995C82.5217 68.7401 87.0927 73.5517 87.0927 79.5662Z" fill="#4F453E"/>
<path d="M150.847 170.264C146.276 163.288 142.908 155.348 141.223 147.169C139.539 138.748 139.539 130.088 141.464 121.667C143.389 113.247 147.479 105.067 154.215 99.2932C157.583 96.4063 161.673 94.4816 166.003 93.7599C170.334 93.0381 174.664 93.7599 178.513 95.6845C174.424 94.7222 170.334 94.7222 166.484 95.9251C162.635 97.128 159.508 99.2932 156.621 101.94C153.974 104.586 151.568 107.954 149.884 111.563C148.2 115.172 146.757 118.78 146.035 122.63C144.11 130.328 143.87 138.508 144.832 146.447C146.035 154.627 147.96 162.566 150.847 170.264Z" fill="#F6F1E3"/>
<path d="M193.67 150.055C191.986 152.221 189.821 153.905 187.415 155.348C185.009 156.792 182.363 157.754 179.235 157.995C176.348 158.235 173.221 157.273 170.574 155.589C167.928 153.905 166.003 151.74 164.319 149.334C160.951 144.522 159.748 138.026 160.47 132.253C161.192 126.479 163.838 120.705 167.928 116.374C170.093 114.209 172.499 112.284 175.627 111.322C178.514 110.119 181.882 109.879 185.009 110.841C188.377 111.803 191.024 114.209 192.467 116.855C193.911 119.742 194.632 122.87 194.392 125.997C194.151 129.125 193.189 132.253 190.783 134.418C188.618 136.824 184.769 138.026 181.641 136.342C178.514 134.658 177.07 131.29 177.792 128.163C178.273 126.479 179.235 125.276 180.679 124.554C181.4 124.313 182.363 124.073 183.085 124.554C183.806 124.795 184.287 125.276 184.769 125.997C182.363 123.832 179.957 126.719 179.716 128.644C179.476 130.809 180.919 133.215 182.844 133.937C183.806 134.418 184.769 134.177 185.971 133.937C186.934 133.696 187.896 132.974 188.618 132.253C190.061 130.568 190.783 128.163 190.783 125.757C190.783 123.351 190.302 120.945 189.099 119.021C187.896 117.096 186.212 115.652 184.047 115.171C179.716 113.968 174.905 116.134 171.537 119.742C164.8 126.719 162.635 138.748 167.687 147.409C170.093 151.74 174.183 155.348 179.235 155.589C184.287 155.829 189.58 153.183 193.67 150.055Z" fill="#F6F1E3"/>
<path d="M134.487 78.8451C134.487 91.8364 123.901 102.181 110.91 102.181C97.9188 102.181 87.3333 91.5958 87.3333 78.8451C87.3333 65.8537 97.9188 55.5088 110.91 55.5088C123.901 55.5088 134.487 66.0943 134.487 78.8451Z" fill="#FFBEB5"/>
<path d="M106.58 98.0911C116.412 98.0911 124.383 89.9051 124.383 79.807C124.383 69.709 116.412 61.5229 106.58 61.5229C96.7477 61.5229 88.7771 69.709 88.7771 79.807C88.7771 89.9051 96.7477 98.0911 106.58 98.0911Z" fill="#FCFCFA"/>
<path d="M122.458 79.8064C122.458 86.7832 116.925 92.5572 110.189 92.5572C103.452 92.5572 97.9189 86.7832 97.9189 79.8064C97.9189 72.8296 103.452 67.0557 110.189 67.0557C116.925 67.0557 122.458 72.8296 122.458 79.8064Z" fill="#4F453E"/>
</svg>
