<svg width="298" height="250" viewBox="0 0 298 250" fill="none" xmlns="http://www.w3.org/2000/svg">
<circle cx="151" cy="125" r="125" fill="#F6F1E3"/>
<mask id="path-2-outside-1_305_2" maskUnits="userSpaceOnUse" x="-2.02987" y="39.3482" width="256.893" height="111.446" fill="black">
<rect fill="white" x="-2.02987" y="39.3482" width="256.893" height="111.446"/>
<path d="M25.697 127.459C14.8653 128.407 6.01098 122.433 4.89695 109.699C3.76123 96.7178 11.6535 91.6948 16.5318 91.268C18.5989 91.0871 19.9942 91.7982 20.1027 93.0385C20.2691 94.9402 17.3896 95.3588 17.7875 99.9064C18.1781 104.371 20.9873 106.958 25.2869 106.582C29.2557 106.235 31.821 103.178 31.4666 99.1262C30.9096 92.7596 22.0231 87.3716 21.1478 77.3668C20.4823 69.7598 24.8068 62.0496 35.8038 61.0875C45.4778 60.2411 49.705 65.7035 50.2258 71.6567C50.6599 76.6178 48.171 81.5013 43.9086 84.2071C43.0394 85.6995 39.1626 83.2892 40.1899 81.6996C41.5873 79.5778 41.5698 73.6638 36.8568 74.0761C34.1282 74.3148 31.8751 76.1783 32.2368 80.3125C32.6325 87.6931 43.77 94.0506 44.6815 104.469C45.7593 116.789 37.8515 126.396 25.697 127.459ZM89.6889 95.5322C90.5581 94.0397 94.3336 95.2924 93.5905 97.2737C91.6339 102.527 88.1322 109.166 80.1118 109.867L79.6157 109.911C76.2215 115.873 71.1653 119.982 65.8735 120.445C61.1605 120.857 57.2909 118.529 57.7871 111.821C57.9514 109.89 55.7045 109.92 55.4719 112.023C54.0476 124.312 53.0159 138.233 47.1453 138.747C43.0111 139.108 41.1766 137.186 40.8583 133.548C40.417 128.504 43.4971 119.903 46.7664 108.702C47.5881 105.714 48.4708 102.471 49.339 99.0623C53.3318 82.7994 53.9054 79.8331 58.1223 79.4642C61.0163 79.211 61.7935 80.4761 61.6756 81.9861C61.5361 83.2481 63.1577 83.6894 64.3649 82.2507C67.0129 79.1863 69.6154 78.4587 72.1786 78.2345C78.7107 77.663 83.4298 82.0825 84.1098 89.8548C84.4209 93.4102 84.1387 96.8509 83.4286 100.162C85.8264 99.9526 87.9576 98.5997 89.6889 95.5322ZM65.9471 103.192C70.0813 102.83 72.5991 98.2771 72.2952 94.8043C72.0855 92.4065 70.5889 90.5378 67.3642 90.8199C63.3127 91.1744 60.9386 95.4647 61.2569 99.1028C61.4666 101.501 62.8051 103.466 65.9471 103.192ZM105.337 116.992C82.1028 119.025 85.3487 77.0822 109.079 75.0061C116.769 74.3333 120.593 78.9978 121.07 84.4549C121.598 90.4909 116.982 97.7267 108.879 98.4356C106.564 98.6382 104.31 98.5855 102.314 97.6769C101.706 97.3968 100.901 97.7172 100.995 98.7921C101.249 101.686 105.265 102.834 109.978 102.422C115.6 101.93 122.045 98.4503 125.266 92.4195C126.416 90.3194 129.94 92.5105 129.168 94.1611C123.071 108.275 114.928 116.153 105.337 116.992ZM106.187 92.4224C109.412 92.1403 111.089 89.4107 110.908 87.3436C110.749 85.5246 109.371 84.0621 106.808 84.2863C103.584 84.5684 101.809 87.1399 102.004 89.3724C102.163 91.1914 103.541 92.6539 106.187 92.4224ZM140.865 113.884C117.631 115.916 120.877 73.9739 144.607 71.8978C152.297 71.225 156.121 75.8895 156.599 81.3466C157.127 87.3826 152.511 94.6184 144.408 95.3273C142.092 95.5299 139.838 95.4771 137.843 94.5686C137.235 94.2885 136.43 94.6089 136.524 95.6838C136.777 98.5778 140.793 99.7261 145.506 99.3137C151.129 98.8218 157.573 95.3419 160.795 89.3112C161.944 87.211 165.468 89.4022 164.696 91.0528C158.599 105.167 150.457 113.045 140.865 113.884ZM141.715 89.3141C144.94 89.032 146.617 86.3024 146.437 84.2353C146.277 82.4162 144.9 80.9537 142.337 81.178C139.112 81.4601 137.337 84.0316 137.533 86.264C137.692 88.0831 139.069 89.5456 141.715 89.3141ZM170.523 111.289C163.991 111.86 160.649 106.987 160.07 100.372C158.999 88.1352 164.591 70.1494 178.813 68.9052C185.428 68.3265 185.444 72.3242 187.594 72.1361C188.917 72.0204 188.519 67.4728 191.329 58.6453C193.806 50.7634 196.742 49.0901 199.223 48.8731C202.116 48.6199 203.542 51.578 201.804 56.479L194.552 81.1922C192.268 87.4741 193.467 90.7019 197.105 90.3836C199.917 90.1376 201.846 88.3858 203.268 85.5952C204.335 83.5023 207.859 85.6935 207.17 87.3368C203.791 95.3809 200.372 108.677 191.194 109.48C185.902 109.943 182.718 104.973 183.027 98.0307L182.697 98.0596C179.892 105.054 175.567 110.848 170.523 111.289ZM176.55 93.515C180.684 93.1533 183.202 88.6006 182.898 85.1278C182.688 82.73 181.192 80.8613 177.967 81.1434C173.916 81.4979 171.542 85.7881 171.86 89.4262C172.07 91.8241 173.408 93.7899 176.55 93.515ZM244.335 82.0023C245.205 80.5099 248.98 81.7626 248.237 83.7439C244.324 94.251 241.439 105.085 233.419 105.786C232.178 105.895 231.128 105.32 230.366 104.22C226.564 121.716 221.416 128.582 212.238 129.385C203.473 130.152 198.086 125.708 197.391 117.77C196.653 109.336 202.205 105.184 202.516 106.824C203.291 110.922 206.603 113.548 211.722 113.017C218.991 112.298 224.517 104.982 224.725 96.8822C224.731 95.0486 223.041 94.7799 222.395 96.9193C220.647 102.654 216.892 106.399 211.518 106.869C207.053 107.26 203.086 104.774 202.536 98.4901C202.319 96.0096 202.058 91.1167 203.241 85.5976C205.989 73.193 209.213 66.2455 213.844 65.8404C215.663 65.6812 216.508 66.7737 216.696 68.9235C217.166 74.2979 213.93 80.1633 214.357 85.0417C214.56 87.3568 215.427 88.6974 218.155 88.4586C221.794 88.1403 223.665 85.727 224.648 81.7251C227.091 70.5969 229.967 64.4297 234.184 64.0608C236.582 63.851 237.992 64.7275 238.223 67.3734C238.527 70.8461 236.333 75.2873 234.252 83.8843C233.334 88.6304 235.043 90.0639 236.944 89.8976C239.425 89.6805 242.241 85.6849 244.335 82.0023Z"/>
</mask>
<path d="M25.697 127.459C14.8653 128.407 6.01098 122.433 4.89695 109.699C3.76123 96.7178 11.6535 91.6948 16.5318 91.268C18.5989 91.0871 19.9942 91.7982 20.1027 93.0385C20.2691 94.9402 17.3896 95.3588 17.7875 99.9064C18.1781 104.371 20.9873 106.958 25.2869 106.582C29.2557 106.235 31.821 103.178 31.4666 99.1262C30.9096 92.7596 22.0231 87.3716 21.1478 77.3668C20.4823 69.7598 24.8068 62.0496 35.8038 61.0875C45.4778 60.2411 49.705 65.7035 50.2258 71.6567C50.6599 76.6178 48.171 81.5013 43.9086 84.2071C43.0394 85.6995 39.1626 83.2892 40.1899 81.6996C41.5873 79.5778 41.5698 73.6638 36.8568 74.0761C34.1282 74.3148 31.8751 76.1783 32.2368 80.3125C32.6325 87.6931 43.77 94.0506 44.6815 104.469C45.7593 116.789 37.8515 126.396 25.697 127.459ZM89.6889 95.5322C90.5581 94.0397 94.3336 95.2924 93.5905 97.2737C91.6339 102.527 88.1322 109.166 80.1118 109.867L79.6157 109.911C76.2215 115.873 71.1653 119.982 65.8735 120.445C61.1605 120.857 57.2909 118.529 57.7871 111.821C57.9514 109.89 55.7045 109.92 55.4719 112.023C54.0476 124.312 53.0159 138.233 47.1453 138.747C43.0111 139.108 41.1766 137.186 40.8583 133.548C40.417 128.504 43.4971 119.903 46.7664 108.702C47.5881 105.714 48.4708 102.471 49.339 99.0623C53.3318 82.7994 53.9054 79.8331 58.1223 79.4642C61.0163 79.211 61.7935 80.4761 61.6756 81.9861C61.5361 83.2481 63.1577 83.6894 64.3649 82.2507C67.0129 79.1863 69.6154 78.4587 72.1786 78.2345C78.7107 77.663 83.4298 82.0825 84.1098 89.8548C84.4209 93.4102 84.1387 96.8509 83.4286 100.162C85.8264 99.9526 87.9576 98.5997 89.6889 95.5322ZM65.9471 103.192C70.0813 102.83 72.5991 98.2771 72.2952 94.8043C72.0855 92.4065 70.5889 90.5378 67.3642 90.8199C63.3127 91.1744 60.9386 95.4647 61.2569 99.1028C61.4666 101.501 62.8051 103.466 65.9471 103.192ZM105.337 116.992C82.1028 119.025 85.3487 77.0822 109.079 75.0061C116.769 74.3333 120.593 78.9978 121.07 84.4549C121.598 90.4909 116.982 97.7267 108.879 98.4356C106.564 98.6382 104.31 98.5855 102.314 97.6769C101.706 97.3968 100.901 97.7172 100.995 98.7921C101.249 101.686 105.265 102.834 109.978 102.422C115.6 101.93 122.045 98.4503 125.266 92.4195C126.416 90.3194 129.94 92.5105 129.168 94.1611C123.071 108.275 114.928 116.153 105.337 116.992ZM106.187 92.4224C109.412 92.1403 111.089 89.4107 110.908 87.3436C110.749 85.5246 109.371 84.0621 106.808 84.2863C103.584 84.5684 101.809 87.1399 102.004 89.3724C102.163 91.1914 103.541 92.6539 106.187 92.4224ZM140.865 113.884C117.631 115.916 120.877 73.9739 144.607 71.8978C152.297 71.225 156.121 75.8895 156.599 81.3466C157.127 87.3826 152.511 94.6184 144.408 95.3273C142.092 95.5299 139.838 95.4771 137.843 94.5686C137.235 94.2885 136.43 94.6089 136.524 95.6838C136.777 98.5778 140.793 99.7261 145.506 99.3137C151.129 98.8218 157.573 95.3419 160.795 89.3112C161.944 87.211 165.468 89.4022 164.696 91.0528C158.599 105.167 150.457 113.045 140.865 113.884ZM141.715 89.3141C144.94 89.032 146.617 86.3024 146.437 84.2353C146.277 82.4162 144.9 80.9537 142.337 81.178C139.112 81.4601 137.337 84.0316 137.533 86.264C137.692 88.0831 139.069 89.5456 141.715 89.3141ZM170.523 111.289C163.991 111.86 160.649 106.987 160.07 100.372C158.999 88.1352 164.591 70.1494 178.813 68.9052C185.428 68.3265 185.444 72.3242 187.594 72.1361C188.917 72.0204 188.519 67.4728 191.329 58.6453C193.806 50.7634 196.742 49.0901 199.223 48.8731C202.116 48.6199 203.542 51.578 201.804 56.479L194.552 81.1922C192.268 87.4741 193.467 90.7019 197.105 90.3836C199.917 90.1376 201.846 88.3858 203.268 85.5952C204.335 83.5023 207.859 85.6935 207.17 87.3368C203.791 95.3809 200.372 108.677 191.194 109.48C185.902 109.943 182.718 104.973 183.027 98.0307L182.697 98.0596C179.892 105.054 175.567 110.848 170.523 111.289ZM176.55 93.515C180.684 93.1533 183.202 88.6006 182.898 85.1278C182.688 82.73 181.192 80.8613 177.967 81.1434C173.916 81.4979 171.542 85.7881 171.86 89.4262C172.07 91.8241 173.408 93.7899 176.55 93.515ZM244.335 82.0023C245.205 80.5099 248.98 81.7626 248.237 83.7439C244.324 94.251 241.439 105.085 233.419 105.786C232.178 105.895 231.128 105.32 230.366 104.22C226.564 121.716 221.416 128.582 212.238 129.385C203.473 130.152 198.086 125.708 197.391 117.77C196.653 109.336 202.205 105.184 202.516 106.824C203.291 110.922 206.603 113.548 211.722 113.017C218.991 112.298 224.517 104.982 224.725 96.8822C224.731 95.0486 223.041 94.7799 222.395 96.9193C220.647 102.654 216.892 106.399 211.518 106.869C207.053 107.26 203.086 104.774 202.536 98.4901C202.319 96.0096 202.058 91.1167 203.241 85.5976C205.989 73.193 209.213 66.2455 213.844 65.8404C215.663 65.6812 216.508 66.7737 216.696 68.9235C217.166 74.2979 213.93 80.1633 214.357 85.0417C214.56 87.3568 215.427 88.6974 218.155 88.4586C221.794 88.1403 223.665 85.727 224.648 81.7251C227.091 70.5969 229.967 64.4297 234.184 64.0608C236.582 63.851 237.992 64.7275 238.223 67.3734C238.527 70.8461 236.333 75.2873 234.252 83.8843C233.334 88.6304 235.043 90.0639 236.944 89.8976C239.425 89.6805 242.241 85.6849 244.335 82.0023Z" fill="#4F453E"/>
<path d="M43.9086 84.2071L42.5688 82.0964L42.0547 82.4227L41.7483 82.9489L43.9086 84.2071ZM40.1899 81.6996L38.102 80.3246L38.0961 80.3336L38.0903 80.3426L40.1899 81.6996ZM32.2368 80.3125L34.7332 80.1787L34.7309 80.1366L34.7273 80.0946L32.2368 80.3125ZM25.4791 124.968C20.5701 125.398 16.324 124.246 13.215 121.758C10.1288 119.288 7.8954 115.287 7.38744 109.481L2.40647 109.917C3.01253 116.844 5.76336 122.198 10.0907 125.661C14.3953 129.106 19.9922 130.468 25.9149 129.949L25.4791 124.968ZM7.38744 109.481C6.86869 103.552 8.41937 99.7306 10.3804 97.3752C12.3914 94.9598 14.9689 93.9143 16.7497 93.7585L16.314 88.7775C13.2164 89.0485 9.40862 90.7279 6.53784 94.176C3.61707 97.6842 1.78948 102.865 2.40647 109.917L7.38744 109.481ZM16.7497 93.7585C17.1041 93.7275 17.3848 93.739 17.5921 93.7687C17.8026 93.7988 17.9072 93.8431 17.9343 93.8567C17.9585 93.8688 17.8814 93.8356 17.7884 93.7114C17.6867 93.5756 17.6256 93.4088 17.6123 93.2564L22.5932 92.8206C22.4488 91.1694 21.4064 90.0022 20.1693 89.384C19.005 88.8022 17.6367 88.6618 16.314 88.7775L16.7497 93.7585ZM17.6123 93.2564C17.5897 92.9987 17.7096 92.8323 17.646 92.9323C17.5965 93.0101 17.5203 93.1138 17.3656 93.3125C17.23 93.4868 17.0237 93.747 16.8227 94.029C15.8789 95.3528 15.0391 97.1757 15.297 100.124L20.278 99.6885C20.1381 98.0895 20.5391 97.4293 20.894 96.9315C21.0176 96.7581 21.1396 96.6042 21.3112 96.3838C21.4637 96.1879 21.6736 95.9164 21.8645 95.6164C22.2815 94.961 22.699 94.0291 22.5932 92.8206L17.6123 93.2564ZM15.297 100.124C15.5332 102.824 16.5307 105.239 18.4004 106.919C20.2921 108.619 22.7926 109.31 25.5048 109.073L25.069 104.092C23.4816 104.231 22.4278 103.816 21.7423 103.2C21.0349 102.565 20.4324 101.454 20.278 99.6885L15.297 100.124ZM25.5048 109.073C28.0939 108.846 30.3637 107.713 31.92 105.842C33.4755 103.972 34.1859 101.525 33.9571 98.9083L28.9761 99.3441C29.1017 100.779 28.7067 101.886 28.076 102.645C27.446 103.402 26.4487 103.971 25.069 104.092L25.5048 109.073ZM33.9571 98.9083C33.7707 96.7781 32.9013 94.8693 31.8915 93.1702C30.899 91.4999 29.605 89.7749 28.4675 88.167C26.0981 84.8178 24.0137 81.4393 23.6383 77.1489L18.6574 77.5847C19.1573 83.299 21.9537 87.6169 24.3856 91.0546C25.6487 92.8401 26.7355 94.2812 27.5932 95.7244C28.4337 97.1388 28.8839 98.291 28.9761 99.3441L33.9571 98.9083ZM23.6383 77.1489C23.3516 73.8715 24.1497 70.7046 26.0629 68.2865C27.9473 65.9048 31.1035 64.0082 36.0217 63.578L35.5859 58.597C29.507 59.1288 25.0025 61.5684 22.1418 65.1841C19.3099 68.7634 18.2786 73.2552 18.6574 77.5847L23.6383 77.1489ZM36.0217 63.578C40.3492 63.1994 43.108 64.2485 44.8175 65.718C46.5522 67.2092 47.519 69.4014 47.7353 71.8746L52.7163 71.4388C52.4119 67.9588 51.0046 64.4432 48.077 61.9264C45.1242 59.3881 40.9324 58.1292 35.5859 58.597L36.0217 63.578ZM47.7353 71.8746C48.085 75.8717 46.072 79.8726 42.5688 82.0964L45.2485 86.3177C50.27 83.13 53.2347 77.3639 52.7163 71.4388L47.7353 71.8746ZM41.7483 82.9489C41.8352 82.7998 41.9534 82.6553 42.1015 82.5304C42.2484 82.4067 42.4011 82.3221 42.54 82.2673C42.8064 82.1623 42.9968 82.1747 43.0334 82.1779C43.0768 82.1817 43.0556 82.1856 42.9729 82.1539C42.8953 82.1242 42.7981 82.0762 42.6968 82.0106C42.5954 81.9449 42.5128 81.8766 42.4552 81.8189C42.3943 81.7579 42.3897 81.7375 42.4098 81.7744C42.4288 81.8091 42.5056 81.9618 42.5167 82.216C42.5224 82.3468 42.5099 82.4945 42.4688 82.6489C42.4275 82.804 42.3639 82.9417 42.2896 83.0567L38.0903 80.3426C37.1777 81.7546 37.5092 83.2318 38.0208 84.1694C38.5086 85.0634 39.2688 85.7476 39.9793 86.2077C40.6894 86.6674 41.6119 87.073 42.5993 87.159C43.5978 87.246 45.1775 86.9958 46.0689 85.4653L41.7483 82.9489ZM42.2778 83.0747C42.8885 82.1474 43.2404 80.9976 43.3962 79.9098C43.5556 78.7969 43.5399 77.5425 43.2415 76.3369C42.9441 75.1351 42.324 73.8314 41.1525 72.8658C39.9328 71.8606 38.3719 71.434 36.6389 71.5856L37.0747 76.5666C37.6982 76.5121 37.9069 76.6702 37.9724 76.7242C38.0859 76.8177 38.2666 77.0478 38.388 77.5382C38.5084 78.0248 38.5297 78.621 38.4467 79.2009C38.36 79.8058 38.1901 80.1909 38.102 80.3246L42.2778 83.0747ZM36.6389 71.5856C34.7835 71.748 32.8629 72.4883 31.4817 74.116C30.0866 75.7601 29.5229 77.9771 29.7463 80.5304L34.7273 80.0946C34.589 78.5138 34.9709 77.7319 35.2941 77.351C35.6313 76.9538 36.2016 76.643 37.0747 76.5666L36.6389 71.5856ZM29.7404 80.4464C29.8717 82.895 30.8831 85.098 32.0953 87.053C33.2966 88.9903 34.8662 90.9411 36.2876 92.7803C39.26 96.6263 41.8065 100.291 42.191 104.687L47.172 104.251C46.645 98.228 43.1671 93.5053 40.2438 89.7228C38.7175 87.7478 37.3716 86.0742 36.3448 84.4181C35.3289 82.7798 34.7998 81.4204 34.7332 80.1787L29.7404 80.4464ZM42.191 104.687C43.152 115.67 36.2192 124.029 25.4791 124.968L25.9149 129.949C39.4839 128.762 48.3667 117.907 47.172 104.251L42.191 104.687ZM89.6889 95.5322L87.5286 94.2739L87.52 94.2886L87.5117 94.3034L89.6889 95.5322ZM93.5905 97.2737L91.2497 96.3958L91.2477 96.4012L93.5905 97.2737ZM79.6157 109.911L79.3978 107.42L78.0917 107.535L77.4431 108.674L79.6157 109.911ZM57.7871 111.821L55.2961 111.609L55.2949 111.622L55.2939 111.636L57.7871 111.821ZM55.4719 112.023L57.9553 112.311L57.9568 112.298L55.4719 112.023ZM46.7664 108.702L49.1662 109.403L49.1717 109.384L49.1769 109.365L46.7664 108.702ZM49.339 99.0623L51.7616 99.6794L51.7643 99.6689L51.7669 99.6584L49.339 99.0623ZM61.6756 81.9861L64.1605 82.2609L64.1649 82.2208L64.1681 82.1806L61.6756 81.9861ZM64.3649 82.2507L62.4733 80.6162L62.4615 80.6299L62.4498 80.6438L64.3649 82.2507ZM83.4286 100.162L80.9842 99.6382L80.2745 102.948L83.6465 102.653L83.4286 100.162ZM91.8492 96.7904C91.7121 97.0257 91.527 97.1829 91.3681 97.2728C91.2215 97.3558 91.1172 97.3718 91.0976 97.3744C91.0757 97.3773 91.0945 97.3723 91.152 97.3804C91.2075 97.3882 91.2726 97.4047 91.3359 97.4294C91.4 97.4544 91.439 97.4787 91.4526 97.4885C91.4681 97.4996 91.4297 97.4762 91.374 97.3973C91.3146 97.3131 91.2333 97.1607 91.2006 96.947C91.1665 96.7241 91.1999 96.5285 91.2497 96.3958L95.9313 98.1517C96.4387 96.7987 96.146 95.4877 95.4592 94.5144C94.837 93.6327 93.948 93.0814 93.1527 92.7712C92.3466 92.4568 91.39 92.2922 90.4418 92.4176C89.4964 92.5427 88.2602 93.0177 87.5286 94.2739L91.8492 96.7904ZM91.2477 96.4012C89.3169 101.586 86.3053 106.816 79.8939 107.377L80.3297 112.358C89.9591 111.515 93.951 103.469 95.9333 98.1463L91.2477 96.4012ZM79.8939 107.377L79.3978 107.42L79.8336 112.401L80.3297 112.358L79.8939 107.377ZM77.4431 108.674C74.2701 114.248 69.8169 117.59 65.6556 117.954L66.0914 122.935C72.5137 122.373 78.1728 117.499 81.7883 111.148L77.4431 108.674ZM65.6556 117.954C63.7132 118.124 62.365 117.692 61.5655 116.959C60.8137 116.271 60.0681 114.874 60.2803 112.005L55.2939 111.636C55.0099 115.475 55.951 118.597 58.1882 120.646C60.3777 122.652 63.3208 123.177 66.0914 122.935L65.6556 117.954ZM60.2781 112.033C60.3589 111.083 60.1675 110.029 59.4694 109.168C58.7541 108.285 57.6994 107.859 56.6511 107.912C54.5087 108.022 53.1959 109.86 52.9871 111.748L57.9568 112.298C57.9806 112.083 57.9075 112.855 56.9056 112.906C56.4276 112.93 55.9183 112.727 55.5853 112.316C55.2696 111.927 55.2975 111.592 55.2961 111.609L60.2781 112.033ZM52.9886 111.735C52.2636 117.99 51.6689 124.335 50.5397 129.24C49.9746 131.694 49.3216 133.562 48.5808 134.793C47.848 136.011 47.2775 136.225 46.9275 136.256L47.3632 141.237C49.9485 141.011 51.7084 139.293 52.8647 137.372C54.0129 135.464 54.8076 132.988 55.4122 130.361C56.6226 125.105 57.2559 118.345 57.9553 112.311L52.9886 111.735ZM46.9275 136.256C45.2432 136.403 44.5341 136.044 44.2191 135.767C43.8826 135.472 43.4793 134.821 43.3488 133.33L38.3678 133.766C38.5556 135.912 39.2288 138.041 40.9226 139.527C42.638 141.031 44.9133 141.451 47.3632 141.237L46.9275 136.256ZM43.3488 133.33C43.1711 131.299 43.7075 128.279 44.8352 124.083C45.9526 119.925 47.5018 115.105 49.1662 109.403L44.3665 108.002C42.7617 113.5 41.1363 118.581 40.0066 122.785C38.8873 126.95 38.1043 130.753 38.3678 133.766L43.3488 133.33ZM49.1769 109.365C49.9995 106.374 50.8874 103.112 51.7616 99.6794L46.9163 98.4452C46.0542 101.83 45.1766 105.055 44.3559 108.039L49.1769 109.365ZM51.7669 99.6584C53.7967 91.391 54.881 86.853 55.9559 84.2607C56.4761 83.0064 56.8729 82.5298 57.1218 82.3248C57.3079 82.1716 57.5848 82.0208 58.3402 81.9547L57.9044 76.9737C56.5514 77.0921 55.1753 77.4505 53.9431 78.4653C52.7735 79.4286 51.9868 80.7791 51.3373 82.3454C50.073 85.3942 48.8741 90.4707 46.9111 98.4662L51.7669 99.6584ZM58.3402 81.9547C58.8856 81.907 59.2085 81.943 59.3709 81.9792C59.522 82.0129 59.484 82.0345 59.3827 81.9459C59.2725 81.8495 59.2115 81.7315 59.1895 81.6606C59.1742 81.6114 59.1949 81.6424 59.1832 81.7916L64.1681 82.1806C64.2613 80.9862 64.0306 79.3682 62.6741 78.182C61.3879 77.0573 59.6436 76.8216 57.9044 76.9737L58.3402 81.9547ZM59.1908 81.7114C59.0938 82.5885 59.2936 83.5179 59.8867 84.2879C60.4709 85.0461 61.2942 85.4645 62.1112 85.5983C63.7388 85.8648 65.2674 85.0646 66.2801 83.8577L62.4498 80.6438C62.2553 80.8756 62.3695 80.574 62.9193 80.664C63.1975 80.7096 63.5661 80.8709 63.8477 81.2365C64.1383 81.6137 64.1877 82.0147 64.1605 82.2609L59.1908 81.7114ZM66.2566 83.8853C68.3786 81.4296 70.3098 80.9075 72.3965 80.7249L71.9607 75.744C68.9211 76.0099 65.6473 76.943 62.4733 80.6162L66.2566 83.8853ZM72.3965 80.7249C75.014 80.4959 77.0929 81.2602 78.6043 82.7162C80.1493 84.2045 81.3182 86.6311 81.6193 90.0727L86.6003 89.6369C86.2214 85.3062 84.6908 81.6369 82.0732 79.1152C79.422 76.5612 75.8753 75.4015 71.9607 75.744L72.3965 80.7249ZM81.6193 90.0727C81.9064 93.3538 81.6478 96.5434 80.9842 99.6382L85.873 100.687C86.6296 97.1584 86.9354 93.4667 86.6003 89.6369L81.6193 90.0727ZM83.6465 102.653C87.0349 102.356 89.8211 100.384 91.8661 96.7609L87.5117 94.3034C86.0941 96.8151 84.618 97.5488 83.2107 97.6719L83.6465 102.653ZM66.165 105.682C69.1539 105.421 71.4285 103.649 72.8478 101.578C74.2498 99.5314 74.993 96.9561 74.7857 94.5864L69.8047 95.0222C69.9013 96.1253 69.5376 97.5628 68.7231 98.7515C67.9258 99.9151 66.8745 100.601 65.7292 100.701L66.165 105.682ZM74.7857 94.5864C74.6429 92.9543 74.0367 91.2273 72.6435 89.9587C71.2122 88.6553 69.288 88.1421 67.1463 88.3295L67.5821 93.3104C68.6651 93.2157 69.1015 93.4957 69.2771 93.6556C69.4908 93.8502 69.7378 94.2566 69.8047 95.0222L74.7857 94.5864ZM67.1463 88.3295C64.2232 88.5852 61.9919 90.2676 60.5993 92.3319C59.2256 94.3684 58.5563 96.9191 58.7664 99.3206L63.7473 98.8849C63.6392 97.6484 63.9978 96.2348 64.7444 95.1281C65.4722 94.0491 66.4537 93.4092 67.5821 93.3104L67.1463 88.3295ZM58.7664 99.3206C58.9025 100.876 59.4274 102.604 60.7308 103.913C62.1056 105.294 64.0073 105.871 66.165 105.682L65.7292 100.701C64.7449 100.787 64.4063 100.518 64.2739 100.385C64.0702 100.181 63.821 99.7271 63.7473 98.8849L58.7664 99.3206ZM102.314 97.6769L101.268 99.9474L101.278 99.9523L102.314 97.6769ZM125.266 92.4195L123.073 91.2194L123.067 91.2304L123.061 91.2416L125.266 92.4195ZM129.168 94.1611L126.903 93.1019L126.888 93.1355L126.873 93.1697L129.168 94.1611ZM105.119 114.501C100.177 114.934 96.8937 113.075 94.8263 110.141C92.6649 107.074 91.6844 102.592 92.0877 97.7473C92.9064 87.9139 99.1257 78.3864 109.297 77.4966L108.861 72.5156C95.3019 73.7019 88.0332 86.1837 87.105 97.3324C86.6348 102.979 87.7161 108.731 90.7391 113.021C93.8563 117.445 98.8801 120.066 105.555 119.482L105.119 114.501ZM109.297 77.4966C112.579 77.2094 114.739 78.0691 116.115 79.2971C117.524 80.5552 118.385 82.444 118.58 84.6728L123.561 84.2371C123.278 81.0088 121.988 77.8367 119.444 75.5665C116.866 73.2662 113.268 72.13 108.861 72.5156L109.297 77.4966ZM118.58 84.6728C118.999 89.4676 115.258 95.368 108.661 95.9452L109.097 100.926C118.706 100.085 124.197 91.5142 123.561 84.2371L118.58 84.6728ZM108.661 95.9452C106.468 96.1371 104.745 96.0365 103.35 95.4016L101.278 99.9523C103.875 101.134 106.661 101.139 109.097 100.926L108.661 95.9452ZM103.361 95.4065C102.386 94.9575 101.088 94.9142 99.9916 95.6552C98.7942 96.4645 98.3996 97.807 98.5049 99.01L103.486 98.5742C103.497 98.7023 103.458 99.3472 102.792 99.7977C102.226 100.18 101.634 100.116 101.268 99.9474L103.361 95.4065ZM98.5049 99.01C98.7504 101.816 100.86 103.424 102.952 104.193C105.043 104.962 107.628 105.137 110.196 104.913L109.76 99.9316C107.614 100.119 105.835 99.9262 104.677 99.5005C103.519 99.0749 103.494 98.662 103.486 98.5742L98.5049 99.01ZM110.196 104.913C116.55 104.357 123.802 100.466 127.471 93.5975L123.061 91.2416C120.287 96.4345 114.651 99.5037 109.76 99.9316L110.196 104.913ZM127.459 93.6197C127.425 93.6828 127.341 93.7968 127.191 93.8978C127.045 93.9965 126.901 94.0381 126.8 94.0515C126.707 94.0639 126.662 94.0517 126.672 94.0539C126.681 94.0559 126.716 94.0659 126.768 94.0931C126.819 94.1201 126.863 94.1521 126.893 94.1797C126.925 94.2088 126.919 94.2118 126.895 94.1717C126.872 94.1326 126.809 94.0122 126.786 93.8135C126.761 93.5973 126.791 93.3424 126.903 93.1019L131.432 95.2204C132.075 93.8464 131.722 92.5099 131.196 91.623C130.683 90.7566 129.905 90.097 129.108 89.6745C128.314 89.254 127.264 88.9452 126.138 89.0956C124.904 89.2605 123.759 89.9667 123.073 91.2194L127.459 93.6197ZM126.873 93.1697C120.9 106.996 113.319 113.784 105.119 114.501L105.555 119.482C116.538 118.522 125.242 109.554 131.463 95.1525L126.873 93.1697ZM106.405 94.9129C111.059 94.5057 113.695 90.5134 113.399 87.1257L108.418 87.5615C108.483 88.3081 107.764 89.7749 105.969 89.9319L106.405 94.9129ZM113.399 87.1257C113.27 85.6484 112.625 84.1717 111.351 83.1204C110.066 82.0603 108.393 81.6381 106.59 81.7958L107.026 86.7768C107.787 86.7102 108.084 86.9072 108.169 86.977C108.264 87.0557 108.388 87.2198 108.418 87.5615L113.399 87.1257ZM106.59 81.7958C102.045 82.1935 99.1933 85.928 99.5137 89.5903L104.495 89.1545C104.424 88.3517 105.122 86.9434 107.026 86.7768L106.59 81.7958ZM99.5137 89.5903C99.6431 91.0696 100.29 92.5546 101.588 93.6075C102.891 94.6648 104.582 95.0723 106.405 94.9129L105.969 89.9319C105.146 90.004 104.826 89.796 104.738 89.7251C104.646 89.6499 104.524 89.4942 104.495 89.1545L99.5137 89.5903ZM137.843 94.5686L136.796 96.8391L136.807 96.844L137.843 94.5686ZM160.795 89.3112L158.602 88.111L158.596 88.1221L158.59 88.1332L160.795 89.3112ZM164.696 91.0528L162.432 89.9935L162.416 90.0272L162.401 90.0614L164.696 91.0528ZM140.648 111.393C135.705 111.826 132.422 109.967 130.355 107.033C128.193 103.965 127.213 99.4835 127.616 94.639C128.435 84.8056 134.654 75.2781 144.825 74.3882L144.389 69.4073C130.83 70.5935 123.562 83.0754 122.633 94.2241C122.163 99.8707 123.244 105.623 126.267 109.913C129.385 114.336 134.408 116.958 141.083 116.374L140.648 111.393ZM144.825 74.3882C148.108 74.1011 150.267 74.9607 151.643 76.1887C153.053 77.4469 153.913 79.3356 154.108 81.5645L159.089 81.1287C158.807 77.9004 157.516 74.7284 154.972 72.4582C152.394 70.1579 148.797 69.0217 144.389 69.4073L144.825 74.3882ZM154.108 81.5645C154.528 86.3592 150.787 92.2597 144.19 92.8368L144.626 97.8178C154.235 96.9771 159.726 88.4059 159.089 81.1287L154.108 81.5645ZM144.19 92.8368C141.996 93.0288 140.273 92.9282 138.878 92.2933L136.807 96.844C139.404 98.0261 142.189 98.031 144.626 97.8178L144.19 92.8368ZM138.889 92.2982C137.915 91.8492 136.616 91.8058 135.52 92.5468C134.323 93.3562 133.928 94.6987 134.033 95.9017L139.014 95.4659C139.025 95.594 138.986 96.2389 138.32 96.6894C137.755 97.0714 137.162 97.0079 136.796 96.8391L138.889 92.2982ZM134.033 95.9017C134.279 98.7079 136.388 100.316 138.48 101.085C140.571 101.854 143.157 102.029 145.724 101.804L145.288 96.8233C143.143 97.011 141.363 96.8179 140.205 96.3921C139.047 95.9666 139.022 95.5536 139.014 95.4659L134.033 95.9017ZM145.724 101.804C152.078 101.248 159.331 97.3577 163 90.4892L158.59 88.1332C155.815 93.3262 150.179 96.3953 145.288 96.8233L145.724 101.804ZM162.988 90.5114C162.953 90.5745 162.87 90.6885 162.72 90.7895C162.573 90.8882 162.429 90.9298 162.329 90.9432C162.236 90.9556 162.19 90.9434 162.2 90.9456C162.209 90.9476 162.245 90.9575 162.296 90.9848C162.347 91.0118 162.391 91.0438 162.421 91.0713C162.453 91.1005 162.447 91.1035 162.423 91.0633C162.4 91.0243 162.337 90.9039 162.314 90.7051C162.289 90.489 162.319 90.2341 162.432 89.9935L166.961 92.112C167.604 90.738 167.25 89.4016 166.725 88.5146C166.212 87.6483 165.434 86.9886 164.636 86.5662C163.842 86.1457 162.792 85.8369 161.667 85.9872C160.432 86.1522 159.287 86.8584 158.602 88.111L162.988 90.5114ZM162.401 90.0614C156.428 103.888 148.847 110.676 140.648 111.393L141.083 116.374C152.066 115.413 160.77 106.446 166.991 92.0442L162.401 90.0614ZM141.933 91.8046C146.588 91.3974 149.223 87.405 148.927 84.0174L143.946 84.4532C144.011 85.1997 143.292 86.6666 141.497 86.8236L141.933 91.8046ZM148.927 84.0174C148.798 82.54 148.153 81.0634 146.879 80.0121C145.594 78.9519 143.921 78.5298 142.119 78.6875L142.554 83.6685C143.315 83.6019 143.612 83.7989 143.697 83.8687C143.792 83.9473 143.916 84.1115 143.946 84.4532L148.927 84.0174ZM142.119 78.6875C137.573 79.0852 134.722 82.8197 135.042 86.4819L140.023 86.0461C139.953 85.2434 140.65 83.8351 142.554 83.6685L142.119 78.6875ZM135.042 86.4819C135.171 87.9612 135.819 89.4463 137.116 90.4992C138.419 91.5565 140.111 91.964 141.933 91.8046L141.497 86.8236C140.674 86.8957 140.354 86.6877 140.267 86.6168C140.174 86.5416 140.053 86.3859 140.023 86.0461L135.042 86.4819ZM191.329 58.6453L193.711 59.4037L193.714 59.3946L191.329 58.6453ZM201.804 56.479L199.448 55.6437L199.425 55.7088L199.405 55.775L201.804 56.479ZM194.552 81.1922L196.901 82.0462L196.928 81.972L196.95 81.8962L194.552 81.1922ZM203.268 85.5952L201.041 84.46L201.041 84.46L203.268 85.5952ZM207.17 87.3368L209.475 88.3049L209.475 88.3039L207.17 87.3368ZM183.027 98.0307L185.525 98.1419L185.652 95.2915L182.809 95.5402L183.027 98.0307ZM182.697 98.0596L182.479 95.5691L180.948 95.7031L180.376 97.1293L182.697 98.0596ZM170.305 108.798C167.782 109.019 166.113 108.215 164.947 106.881C163.69 105.443 162.822 103.149 162.56 100.155L157.58 100.59C157.896 104.211 158.989 107.661 161.181 110.17C163.464 112.783 166.732 114.13 170.741 113.779L170.305 108.798ZM162.56 100.155C162.061 94.4456 163.129 87.3532 165.95 81.6202C168.761 75.9076 173.092 71.9152 179.031 71.3957L178.595 66.4147C170.312 67.1393 164.736 72.7619 161.464 79.4126C158.201 86.0429 157.008 94.0621 157.58 100.59L162.56 100.155ZM179.031 71.3957C181.715 71.1608 182.718 71.8355 183.29 72.3057C183.481 72.4626 183.659 72.6307 183.877 72.841C184.068 73.0255 184.352 73.3063 184.645 73.5499C185.294 74.0907 186.338 74.7555 187.812 74.6266L187.376 69.6457C187.774 69.6108 188.011 69.8464 187.845 69.7086C187.731 69.613 187.606 69.4921 187.353 69.2468C187.126 69.0273 186.824 68.7376 186.465 68.4426C184.838 67.1056 182.525 66.0709 178.595 66.4147L179.031 71.3957ZM187.812 74.6266C188.806 74.5396 189.529 74.0042 189.977 73.4399C190.368 72.9475 190.583 72.4009 190.713 72.0081C190.973 71.2256 191.166 70.1696 191.362 69.1125C191.776 66.8727 192.357 63.659 193.711 59.4036L188.947 57.8869C187.491 62.4591 186.865 65.9329 186.445 68.2028C186.224 69.4005 186.093 70.0548 185.968 70.4334C185.905 70.6212 185.912 70.5177 186.061 70.3307C186.267 70.0717 186.712 69.7037 187.376 69.6457L187.812 74.6266ZM193.714 59.3946C194.896 55.635 196.102 53.6476 197.09 52.6031C197.995 51.6472 198.766 51.4226 199.44 51.3636L199.005 46.3826C197.198 46.5406 195.261 47.2612 193.458 49.1666C191.739 50.9836 190.239 53.7737 188.944 57.8959L193.714 59.3946ZM199.44 51.3636C199.583 51.3511 199.672 51.3623 199.717 51.3719C199.74 51.3768 199.755 51.3817 199.762 51.3847C199.769 51.3876 199.773 51.3896 199.774 51.3903C199.775 51.3911 199.777 51.3925 199.781 51.3958C199.785 51.3993 199.793 51.407 199.804 51.4213C199.826 51.4494 199.868 51.5123 199.913 51.6299C200.115 52.1633 200.222 53.4593 199.448 55.6437L204.161 57.3144C205.124 54.5977 205.387 51.9642 204.588 49.8566C204.172 48.7608 203.455 47.7895 202.408 47.1407C201.364 46.4934 200.175 46.2802 199.005 46.3826L199.44 51.3636ZM199.405 55.775L192.153 80.4882L196.95 81.8962L204.203 57.183L199.405 55.775ZM192.202 80.3382C191.014 83.606 190.503 86.6313 191.215 88.9861C191.598 90.2529 192.355 91.3774 193.556 92.104C194.723 92.8099 196.051 92.9854 197.323 92.8741L196.887 87.8931C196.341 87.9409 196.155 87.8323 196.145 87.8262C196.138 87.8224 196.131 87.8181 196.114 87.7956C196.095 87.7689 196.048 87.6948 196.001 87.5398C195.774 86.7899 195.806 85.0603 196.901 82.0462L192.202 80.3382ZM197.323 92.8741C201.295 92.5266 203.843 89.9734 205.496 86.7304L201.041 84.46C199.849 86.7982 198.538 87.7487 196.887 87.8931L197.323 92.8741ZM205.496 86.7304C205.458 86.8054 205.366 86.9372 205.199 87.0537C205.035 87.1678 204.872 87.2156 204.759 87.231C204.653 87.2451 204.6 87.2311 204.608 87.233C204.615 87.2347 204.652 87.2448 204.708 87.2742C204.763 87.3033 204.813 87.3391 204.851 87.3728C204.89 87.4081 204.893 87.4206 204.876 87.3935C204.86 87.3685 204.801 87.2643 204.773 87.081C204.742 86.8812 204.757 86.6258 204.865 86.3697L209.475 88.3039C210.058 86.9145 209.649 85.6044 209.127 84.7606C208.607 83.9217 207.839 83.2746 207.048 82.8556C206.266 82.4413 205.218 82.124 204.092 82.2756C202.841 82.444 201.695 83.1769 201.041 84.46L205.496 86.7304ZM204.865 86.3687C203.042 90.7086 201.514 95.6293 199.164 99.9239C196.831 104.186 194.249 106.704 190.976 106.99L191.412 111.971C197.318 111.454 201.034 106.922 203.55 102.324C206.048 97.7588 207.919 92.0091 209.475 88.3049L204.865 86.3687ZM190.976 106.99C189.29 107.138 188.012 106.479 187.067 105.111C186.049 103.639 185.386 101.252 185.525 98.1419L180.53 97.9195C180.359 101.751 181.134 105.321 182.954 107.954C184.846 110.691 187.807 112.286 191.412 111.971L190.976 106.99ZM182.809 95.5402L182.479 95.5691L182.914 100.55L183.245 100.521L182.809 95.5402ZM180.376 97.1293C179.04 100.462 177.385 103.391 175.561 105.494C173.715 107.622 171.92 108.657 170.305 108.798L170.741 113.779C174.17 113.479 177.06 111.397 179.338 108.77C181.639 106.117 183.549 102.652 185.017 98.99L180.376 97.1293ZM176.768 96.0055C179.757 95.744 182.032 93.9725 183.451 91.9011C184.853 89.8549 185.596 87.2796 185.389 84.9099L180.408 85.3457C180.504 86.4488 180.141 87.8863 179.326 89.075C178.529 90.2386 177.477 90.9243 176.332 91.0245L176.768 96.0055ZM185.389 84.9099C185.246 83.2778 184.64 81.5508 183.247 80.2822C181.815 78.9788 179.891 78.4656 177.749 78.653L178.185 83.6339C179.268 83.5392 179.705 83.8192 179.88 83.9791C180.094 84.1737 180.341 84.5801 180.408 85.3457L185.389 84.9099ZM177.749 78.653C174.826 78.9087 172.595 80.5911 171.202 82.6554C169.829 84.6919 169.159 87.2425 169.369 89.6441L174.35 89.2084C174.242 87.9718 174.601 86.5583 175.347 85.4516C176.075 84.3726 177.057 83.7326 178.185 83.6339L177.749 78.653ZM169.369 89.6441C169.505 91.1997 170.03 92.9278 171.334 94.2369C172.709 95.6176 174.61 96.1943 176.768 96.0055L176.332 91.0245C175.348 91.1107 175.009 90.8419 174.877 90.7089C174.673 90.5043 174.424 90.0506 174.35 89.2084L169.369 89.6441ZM244.335 82.0023L242.175 80.7441L242.169 80.7553L242.162 80.7666L244.335 82.0023ZM248.237 83.7439L245.896 82.8659L245.894 82.8714L248.237 83.7439ZM230.366 104.22L232.42 102.796L229.143 98.0716L227.923 103.69L230.366 104.22ZM202.516 106.824L204.972 106.359L202.516 106.824ZM211.722 113.017L211.476 110.529L211.464 110.53L211.722 113.017ZM224.725 96.8822L227.224 96.9463L227.224 96.9185L227.225 96.8906L224.725 96.8822ZM222.395 96.9193L224.786 97.6481L224.788 97.642L222.395 96.9193ZM203.241 85.5976L200.8 85.057L200.799 85.0652L200.797 85.0734L203.241 85.5976ZM224.648 81.7251L227.076 82.3215L227.084 82.2913L227.09 82.2611L224.648 81.7251ZM234.252 83.8843L231.822 83.2963L231.809 83.3527L231.797 83.4096L234.252 83.8843ZM246.496 83.2605C246.359 83.4959 246.173 83.6531 246.015 83.743C245.868 83.826 245.764 83.842 245.744 83.8446C245.722 83.8475 245.741 83.8425 245.799 83.8506C245.854 83.8584 245.919 83.8749 245.982 83.8996C246.047 83.9246 246.085 83.9489 246.099 83.9587C246.115 83.9698 246.076 83.9464 246.02 83.8675C245.961 83.7832 245.88 83.6309 245.847 83.4172C245.813 83.1943 245.846 82.9987 245.896 82.8659L250.578 84.6219C251.085 83.2689 250.793 81.9578 250.106 80.9846C249.483 80.1028 248.595 79.5515 247.799 79.2414C246.993 78.9269 246.037 78.7623 245.088 78.8878C244.143 79.0129 242.907 79.4879 242.175 80.7441L246.496 83.2605ZM245.894 82.8714C243.868 88.3111 242.271 93.3489 240.167 97.2568C238.076 101.14 235.922 103.058 233.201 103.296L233.637 108.277C238.936 107.813 242.234 103.963 244.569 99.6274C246.891 95.3164 248.693 89.6838 250.58 84.6164L245.894 82.8714ZM233.201 103.296C233.044 103.31 232.95 103.282 232.869 103.24C232.775 103.191 232.612 103.073 232.42 102.796L228.311 105.645C229.489 107.343 231.346 108.477 233.637 108.277L233.201 103.296ZM227.923 103.69C226.041 112.347 223.892 118.02 221.295 121.593C218.817 125.003 215.898 126.555 212.02 126.895L212.456 131.876C217.755 131.412 221.999 129.13 225.34 124.532C228.563 120.097 230.888 113.59 232.809 104.751L227.923 103.69ZM212.02 126.895C208.088 127.239 205.241 126.391 203.342 124.883C201.462 123.391 200.182 120.992 199.882 117.552L194.901 117.988C195.294 122.486 197.056 126.278 200.234 128.8C203.394 131.308 207.623 132.298 212.456 131.876L212.02 126.895ZM199.882 117.552C199.565 113.93 200.605 111.371 201.602 109.963C202.128 109.218 202.553 108.917 202.644 108.869C202.74 108.819 202.403 109.039 201.807 108.95C201.45 108.897 201.007 108.728 200.63 108.351C200.262 107.982 200.112 107.57 200.059 107.288L204.972 106.359C204.88 105.873 204.651 105.301 204.167 104.817C203.676 104.325 203.082 104.085 202.545 104.005C201.589 103.862 200.774 104.204 200.317 104.444C199.302 104.977 198.327 105.934 197.519 107.076C195.846 109.442 194.48 113.176 194.901 117.988L199.882 117.552ZM200.059 107.288C200.553 109.897 201.892 112.18 204.05 113.7C206.201 115.215 208.942 115.819 211.98 115.503L211.464 110.53C209.384 110.746 207.909 110.302 206.93 109.612C205.958 108.928 205.254 107.848 204.972 106.359L200.059 107.288ZM211.969 115.505C220.831 114.628 226.993 105.934 227.224 96.9463L222.225 96.818C222.04 104.03 217.152 109.967 211.476 110.529L211.969 115.505ZM227.225 96.8906C227.229 95.4577 226.458 93.0596 223.948 92.915C221.649 92.7826 220.427 94.7874 220.002 96.1967L224.788 97.642C224.865 97.3894 224.914 97.408 224.792 97.5285C224.666 97.6541 224.279 97.9424 223.661 97.9067C223.013 97.8695 222.577 97.5026 222.379 97.2075C222.2 96.9409 222.225 96.7763 222.225 96.8737L227.225 96.8906ZM220.004 96.1905C218.465 101.238 215.388 104.021 211.3 104.379L211.736 109.36C218.396 108.777 222.829 104.071 224.786 97.6481L220.004 96.1905ZM211.3 104.379C209.585 104.529 208.176 104.115 207.166 103.268C206.167 102.43 205.258 100.916 205.027 98.2722L200.046 98.708C200.364 102.349 201.713 105.219 203.952 107.098C206.178 108.966 208.985 109.6 211.736 109.36L211.3 104.379ZM205.027 98.2722C204.819 95.9003 204.577 91.2902 205.686 86.1218L200.797 85.0734C199.538 90.9433 199.819 96.1189 200.046 98.708L205.027 98.2722ZM205.682 86.1382C207.043 79.9917 208.481 75.4109 210.056 72.3686C211.679 69.2356 213.077 68.417 214.062 68.3308L213.626 63.3499C209.981 63.6688 207.451 66.5265 205.616 70.0697C203.735 73.7035 202.187 78.7989 200.8 85.057L205.682 86.1382ZM214.062 68.3308C214.258 68.3137 214.293 68.3424 214.234 68.3223C214.155 68.2957 214.067 68.2377 214.01 68.1736C213.967 68.1253 214.001 68.1395 214.055 68.3032C214.111 68.4697 214.171 68.7381 214.206 69.1414L219.187 68.7056C219.075 67.4284 218.741 65.9744 217.753 64.8586C216.637 63.5983 215.109 63.2201 213.626 63.3499L214.062 68.3308ZM214.206 69.1414C214.398 71.3355 213.836 73.7308 213.12 76.554C212.457 79.1685 211.609 82.3092 211.867 85.2596L216.848 84.8238C216.679 82.8958 217.236 80.6646 217.966 77.7832C218.644 75.1105 219.465 71.8859 219.187 68.7056L214.206 69.1414ZM211.867 85.2596C211.982 86.5786 212.317 88.227 213.524 89.4583C214.833 90.7933 216.611 91.1033 218.373 90.9491L217.938 85.9682C217.457 86.0102 217.204 85.9683 217.1 85.9399C217.022 85.9186 217.051 85.9133 217.094 85.9575C217.124 85.9882 217.081 85.9636 217.019 85.7799C216.953 85.5864 216.888 85.2828 216.848 84.8238L211.867 85.2596ZM218.373 90.9491C220.76 90.7403 222.738 89.8055 224.242 88.1604C225.683 86.5851 226.534 84.5291 227.076 82.3215L222.22 81.1288C221.78 82.9231 221.203 84.0746 220.553 84.7861C219.966 85.4277 219.189 85.8587 217.938 85.9682L218.373 90.9491ZM227.09 82.2611C228.299 76.7523 229.573 72.691 230.968 70.0131C232.401 67.2624 233.604 66.6211 234.402 66.5513L233.966 61.5703C230.547 61.8695 228.204 64.4962 226.533 67.7034C224.825 70.9834 223.44 75.5697 222.206 81.1892L227.09 82.2611ZM234.402 66.5513C235.325 66.4705 235.528 66.6559 235.492 66.6282C235.409 66.5642 235.65 66.6501 235.733 67.5913L240.714 67.1555C240.564 65.4507 239.985 63.7755 238.54 62.6642C237.141 61.5893 235.441 61.4413 233.966 61.5703L234.402 66.5513ZM235.733 67.5913C235.838 68.7916 235.518 70.3363 234.733 73.0015C233.985 75.545 232.882 78.9188 231.822 83.2963L236.682 84.4724C237.703 80.2528 238.737 77.1075 239.53 74.413C240.287 71.8402 240.912 69.4279 240.714 67.1555L235.733 67.5913ZM231.797 83.4096C231.295 86.0068 231.377 88.2928 232.389 90.005C233.531 91.9386 235.472 92.5359 237.162 92.388L236.726 87.4071C236.587 87.4192 236.566 87.3922 236.614 87.4141C236.687 87.4464 236.712 87.4939 236.693 87.4612C236.605 87.3117 236.291 86.5079 236.707 84.359L231.797 83.4096ZM237.162 92.388C238.391 92.2805 239.458 91.7308 240.307 91.1223C241.171 90.5034 241.967 89.7103 242.682 88.8779C244.11 87.2142 245.429 85.136 246.509 83.2381L242.162 80.7666C241.147 82.5512 240.012 84.3121 238.888 85.6211C238.327 86.2751 237.823 86.7517 237.395 87.0582C237.186 87.2082 237.02 87.299 236.899 87.3511C236.78 87.4026 236.725 87.4072 236.726 87.4071L237.162 92.388Z" fill="#F6F1E3" mask="url(#path-2-outside-1_305_2)"/>
<mask id="path-4-outside-2_305_2" maskUnits="userSpaceOnUse" x="113.97" y="101.621" width="185.503" height="86.4179" fill="black">
<rect fill="white" x="113.97" y="101.621" width="185.503" height="86.4179"/>
<path d="M141.697 183.631C130.865 184.578 122.011 178.604 120.897 165.871C119.761 152.89 127.653 147.867 132.532 147.44C134.599 147.259 135.994 147.97 136.103 149.21C136.269 151.112 133.39 151.531 133.788 156.078C134.178 160.543 136.987 163.13 141.287 162.754C145.256 162.407 147.821 159.35 147.467 155.298C146.91 148.931 138.023 143.543 137.148 133.539C136.482 125.932 140.807 118.221 151.804 117.259C161.478 116.413 165.705 121.875 166.226 127.829C166.66 132.79 164.171 137.673 159.909 140.379C159.039 141.871 155.163 139.461 156.19 137.872C157.587 135.75 157.57 129.836 152.857 130.248C150.128 130.487 147.875 132.35 148.237 136.484C148.633 143.865 159.77 150.222 160.681 160.641C161.759 172.961 153.852 182.567 141.697 183.631ZM170.628 177.6C166.742 177.94 164.368 175.565 164.064 172.092C163.724 168.206 164.03 162.181 165.339 155.234C167.221 145.321 170.567 135.947 173.626 135.679C175.859 135.484 176.485 136.929 176.63 138.583C176.912 141.807 178.652 142.655 181.067 139.778C183.866 136.533 187.021 134.508 190.659 134.189C195.703 133.748 198.405 137.011 198.766 141.145C199.15 145.527 196.735 148.405 197.097 152.539C197.343 155.35 198.699 156.565 201.427 156.326C203.908 156.109 205.327 154.235 206.764 151.61C207.913 149.51 211.437 151.701 210.665 153.352C208.417 158.131 204.198 174.663 193.036 175.64C187.827 176.096 185.66 172.286 185.255 167.656C184.706 161.372 187.694 155.528 187.397 152.138C187.231 150.236 185.904 149.352 184.002 149.519C179.206 149.938 175.672 157.163 176.316 164.522L176.642 168.243C177.011 172.459 176.334 177.101 170.628 177.6ZM215.607 173.665C209.984 174.157 206.642 169.284 205.998 161.925C204.992 150.432 210.584 132.446 224.806 131.202C231.421 130.623 231.365 133.794 233.514 133.606C236.243 133.367 236.547 130.175 240.433 129.835C242.583 129.647 243.436 130.822 243.595 132.641C243.87 135.783 241.944 138.534 240.545 143.489C238.261 149.771 239.46 152.999 243.098 152.68C245.91 152.434 247.839 150.682 249.261 147.892C250.328 145.799 253.853 147.99 253.163 149.634C249.784 157.678 246.365 170.974 237.187 171.777C231.482 172.276 228.628 167.277 229.02 160.327L228.69 160.356C225.968 167.343 221.477 173.152 215.607 173.665ZM222.378 155.826C226.677 155.45 229.195 150.897 228.891 147.425C228.653 144.696 226.854 143.187 224.208 143.418C219.909 143.795 217.535 148.085 217.853 151.723C218.099 154.534 219.814 156.05 222.378 155.826ZM262.021 124.53C258.052 124.877 254.614 123.678 254.231 119.296C253.717 113.425 257.286 111.364 261.834 110.966C266.051 110.597 269.578 111.871 269.613 117.034C269.566 122.204 266.32 124.154 262.021 124.53ZM256.756 170.065C251.216 170.55 248.751 166.183 248.245 160.395C247.905 156.509 248.341 151.972 249.234 147.894C251.989 135.572 254.793 128.578 259.506 128.166C261.242 128.014 262.411 128.995 262.643 131.641C263.084 136.685 259.841 142.467 260.231 146.932C260.47 149.661 262.081 150.936 264.314 150.741C266.794 150.524 268.221 148.733 269.657 146.108C270.807 144.007 274.248 146.206 273.552 147.766C271.296 152.463 267.423 169.132 256.756 170.065ZM276.691 168.321C270.82 168.835 268.518 165.37 268.091 160.492C267.722 156.275 268.424 150.965 269.665 146.107C275.904 121.232 278.601 108.249 285.298 107.663C288.688 107.366 290.07 109.828 287.962 115.262C284.218 124.838 281.659 132.727 280.364 139.838C279.378 144.757 279.129 149.528 284.09 149.094C286.984 148.841 288.914 147.089 290.419 144.291C291.568 142.191 295.093 144.382 294.32 146.033C292.072 150.812 287.853 167.344 276.691 168.321Z"/>
</mask>
<path d="M141.697 183.631C130.865 184.578 122.011 178.604 120.897 165.871C119.761 152.89 127.653 147.867 132.532 147.44C134.599 147.259 135.994 147.97 136.103 149.21C136.269 151.112 133.39 151.531 133.788 156.078C134.178 160.543 136.987 163.13 141.287 162.754C145.256 162.407 147.821 159.35 147.467 155.298C146.91 148.931 138.023 143.543 137.148 133.539C136.482 125.932 140.807 118.221 151.804 117.259C161.478 116.413 165.705 121.875 166.226 127.829C166.66 132.79 164.171 137.673 159.909 140.379C159.039 141.871 155.163 139.461 156.19 137.872C157.587 135.75 157.57 129.836 152.857 130.248C150.128 130.487 147.875 132.35 148.237 136.484C148.633 143.865 159.77 150.222 160.681 160.641C161.759 172.961 153.852 182.567 141.697 183.631ZM170.628 177.6C166.742 177.94 164.368 175.565 164.064 172.092C163.724 168.206 164.03 162.181 165.339 155.234C167.221 145.321 170.567 135.947 173.626 135.679C175.859 135.484 176.485 136.929 176.63 138.583C176.912 141.807 178.652 142.655 181.067 139.778C183.866 136.533 187.021 134.508 190.659 134.189C195.703 133.748 198.405 137.011 198.766 141.145C199.15 145.527 196.735 148.405 197.097 152.539C197.343 155.35 198.699 156.565 201.427 156.326C203.908 156.109 205.327 154.235 206.764 151.61C207.913 149.51 211.437 151.701 210.665 153.352C208.417 158.131 204.198 174.663 193.036 175.64C187.827 176.096 185.66 172.286 185.255 167.656C184.706 161.372 187.694 155.528 187.397 152.138C187.231 150.236 185.904 149.352 184.002 149.519C179.206 149.938 175.672 157.163 176.316 164.522L176.642 168.243C177.011 172.459 176.334 177.101 170.628 177.6ZM215.607 173.665C209.984 174.157 206.642 169.284 205.998 161.925C204.992 150.432 210.584 132.446 224.806 131.202C231.421 130.623 231.365 133.794 233.514 133.606C236.243 133.367 236.547 130.175 240.433 129.835C242.583 129.647 243.436 130.822 243.595 132.641C243.87 135.783 241.944 138.534 240.545 143.489C238.261 149.771 239.46 152.999 243.098 152.68C245.91 152.434 247.839 150.682 249.261 147.892C250.328 145.799 253.853 147.99 253.163 149.634C249.784 157.678 246.365 170.974 237.187 171.777C231.482 172.276 228.628 167.277 229.02 160.327L228.69 160.356C225.968 167.343 221.477 173.152 215.607 173.665ZM222.378 155.826C226.677 155.45 229.195 150.897 228.891 147.425C228.653 144.696 226.854 143.187 224.208 143.418C219.909 143.795 217.535 148.085 217.853 151.723C218.099 154.534 219.814 156.05 222.378 155.826ZM262.021 124.53C258.052 124.877 254.614 123.678 254.231 119.296C253.717 113.425 257.286 111.364 261.834 110.966C266.051 110.597 269.578 111.871 269.613 117.034C269.566 122.204 266.32 124.154 262.021 124.53ZM256.756 170.065C251.216 170.55 248.751 166.183 248.245 160.395C247.905 156.509 248.341 151.972 249.234 147.894C251.989 135.572 254.793 128.578 259.506 128.166C261.242 128.014 262.411 128.995 262.643 131.641C263.084 136.685 259.841 142.467 260.231 146.932C260.47 149.661 262.081 150.936 264.314 150.741C266.794 150.524 268.221 148.733 269.657 146.108C270.807 144.007 274.248 146.206 273.552 147.766C271.296 152.463 267.423 169.132 256.756 170.065ZM276.691 168.321C270.82 168.835 268.518 165.37 268.091 160.492C267.722 156.275 268.424 150.965 269.665 146.107C275.904 121.232 278.601 108.249 285.298 107.663C288.688 107.366 290.07 109.828 287.962 115.262C284.218 124.838 281.659 132.727 280.364 139.838C279.378 144.757 279.129 149.528 284.09 149.094C286.984 148.841 288.914 147.089 290.419 144.291C291.568 142.191 295.093 144.382 294.32 146.033C292.072 150.812 287.853 167.344 276.691 168.321Z" fill="#4F453E"/>
<path d="M159.909 140.379L158.569 138.268L158.055 138.595L157.748 139.121L159.909 140.379ZM156.19 137.872L154.102 136.496L154.096 136.505L154.09 136.514L156.19 137.872ZM148.237 136.484L150.733 136.351L150.731 136.308L150.727 136.267L148.237 136.484ZM141.479 181.14C136.57 181.57 132.324 180.418 129.215 177.929C126.129 175.459 123.895 171.459 123.387 165.653L118.406 166.089C119.013 173.016 121.763 178.37 126.091 181.833C130.395 185.278 135.992 186.639 141.915 186.121L141.479 181.14ZM123.387 165.653C122.869 159.724 124.419 155.902 126.38 153.547C128.391 151.132 130.969 150.086 132.75 149.93L132.314 144.949C129.216 145.22 125.409 146.9 122.538 150.348C119.617 153.856 117.789 159.037 118.406 166.089L123.387 165.653ZM132.75 149.93C133.104 149.899 133.385 149.911 133.592 149.941C133.803 149.971 133.907 150.015 133.934 150.029C133.958 150.041 133.881 150.008 133.788 149.883C133.687 149.747 133.626 149.581 133.612 149.428L138.593 148.992C138.449 147.341 137.406 146.174 136.169 145.556C135.005 144.974 133.637 144.834 132.314 144.949L132.75 149.93ZM133.612 149.428C133.59 149.171 133.71 149.004 133.646 149.104C133.596 149.182 133.52 149.286 133.366 149.484C133.23 149.659 133.024 149.919 132.823 150.201C131.879 151.525 131.039 153.348 131.297 156.296L136.278 155.86C136.138 154.261 136.539 153.601 136.894 153.103C137.018 152.93 137.14 152.776 137.311 152.556C137.464 152.36 137.674 152.088 137.864 151.788C138.282 151.133 138.699 150.201 138.593 148.992L133.612 149.428ZM131.297 156.296C131.533 158.996 132.531 161.411 134.4 163.091C136.292 164.791 138.793 165.482 141.505 165.245L141.069 160.264C139.482 160.402 138.428 159.988 137.742 159.372C137.035 158.736 136.432 157.626 136.278 155.86L131.297 156.296ZM141.505 165.245C144.094 165.018 146.364 163.885 147.92 162.014C149.475 160.144 150.186 157.696 149.957 155.08L144.976 155.516C145.102 156.951 144.707 158.058 144.076 158.816C143.446 159.574 142.449 160.143 141.069 160.264L141.505 165.245ZM149.957 155.08C149.771 152.95 148.901 151.041 147.892 149.342C146.899 147.672 145.605 145.947 144.467 144.339C142.098 140.99 140.014 137.611 139.638 133.321L134.657 133.757C135.157 139.471 137.954 143.789 140.386 147.226C141.649 149.012 142.736 150.453 143.593 151.896C144.434 153.311 144.884 154.463 144.976 155.516L149.957 155.08ZM139.638 133.321C139.352 130.043 140.15 126.876 142.063 124.458C143.947 122.077 147.104 120.18 152.022 119.75L151.586 114.769C145.507 115.301 141.003 117.74 138.142 121.356C135.31 124.935 134.279 129.427 134.657 133.757L139.638 133.321ZM152.022 119.75C156.349 119.371 159.108 120.42 160.818 121.89C162.552 123.381 163.519 125.573 163.735 128.046L168.716 127.611C168.412 124.131 167.005 120.615 164.077 118.098C161.124 115.56 156.932 114.301 151.586 114.769L152.022 119.75ZM163.735 128.046C164.085 132.044 162.072 136.044 158.569 138.268L161.248 142.49C166.27 139.302 169.235 133.536 168.716 127.611L163.735 128.046ZM157.748 139.121C157.835 138.972 157.953 138.827 158.102 138.702C158.248 138.579 158.401 138.494 158.54 138.439C158.806 138.334 158.997 138.347 159.033 138.35C159.077 138.354 159.056 138.357 158.973 138.326C158.895 138.296 158.798 138.248 158.697 138.182C158.595 138.117 158.513 138.048 158.455 137.991C158.394 137.93 158.39 137.909 158.41 137.946C158.429 137.981 158.506 138.134 158.517 138.388C158.522 138.519 158.51 138.666 158.469 138.821C158.428 138.976 158.364 139.114 158.29 139.229L154.09 136.514C153.178 137.926 153.509 139.404 154.021 140.341C154.509 141.235 155.269 141.92 155.979 142.38C156.689 142.839 157.612 143.245 158.599 143.331C159.598 143.418 161.178 143.168 162.069 141.637L157.748 139.121ZM158.278 139.247C158.888 138.319 159.24 137.169 159.396 136.082C159.556 134.969 159.54 133.714 159.242 132.509C158.944 131.307 158.324 130.003 157.152 129.038C155.933 128.032 154.372 127.606 152.639 127.758L153.075 132.738C153.698 132.684 153.907 132.842 153.972 132.896C154.086 132.99 154.267 133.22 154.388 133.71C154.508 134.197 154.53 134.793 154.447 135.373C154.36 135.978 154.19 136.363 154.102 136.496L158.278 139.247ZM152.639 127.758C150.783 127.92 148.863 128.66 147.482 130.288C146.087 131.932 145.523 134.149 145.746 136.702L150.727 136.267C150.589 134.686 150.971 133.904 151.294 133.523C151.631 133.126 152.202 132.815 153.075 132.738L152.639 127.758ZM145.74 136.618C145.872 139.067 146.883 141.27 148.095 143.225C149.297 145.162 150.866 147.113 152.288 148.952C155.26 152.798 157.806 156.463 158.191 160.859L163.172 160.423C162.645 154.4 159.167 149.677 156.244 145.895C154.718 143.92 153.372 142.246 152.345 140.59C151.329 138.952 150.8 137.592 150.733 136.351L145.74 136.618ZM158.191 160.859C159.152 171.842 152.219 180.201 141.479 181.14L141.915 186.121C155.484 184.934 164.367 174.079 163.172 160.423L158.191 160.859ZM165.339 155.234L162.883 154.768L162.882 154.771L165.339 155.234ZM181.067 139.778L179.174 138.145L179.163 138.158L179.152 138.171L181.067 139.778ZM206.764 151.61L208.957 152.81L208.957 152.81L206.764 151.61ZM210.665 153.352L212.928 154.416L212.93 154.411L210.665 153.352ZM170.411 175.11C169.038 175.23 168.182 174.865 167.657 174.401C167.111 173.92 166.662 173.102 166.555 171.875L161.574 172.31C161.77 174.556 162.661 176.662 164.349 178.151C166.058 179.658 168.333 180.311 170.846 180.091L170.411 175.11ZM166.555 171.875C166.24 168.276 166.516 162.488 167.796 155.697L162.882 154.771C161.544 161.873 161.209 168.136 161.574 172.31L166.555 171.875ZM167.795 155.701C168.717 150.844 169.986 146.191 171.361 142.773C172.053 141.051 172.728 139.754 173.333 138.917C174.037 137.941 174.244 138.135 173.844 138.17L173.408 133.189C171.479 133.358 170.121 134.824 169.278 135.991C168.336 137.296 167.484 139.013 166.722 140.907C165.188 144.721 163.843 149.711 162.883 154.768L167.795 155.701ZM173.844 138.17C174.13 138.145 174.214 138.186 174.177 138.173C174.12 138.152 174.043 138.101 173.992 138.04C173.956 137.997 173.983 138.01 174.027 138.149C174.071 138.29 174.113 138.502 174.139 138.801L179.12 138.365C179.034 137.381 178.782 135.976 177.83 134.836C176.735 133.524 175.139 133.038 173.408 133.189L173.844 138.17ZM174.139 138.801C174.226 139.79 174.436 140.78 174.86 141.64C175.287 142.505 176.039 143.437 177.264 143.842C178.503 144.252 179.685 143.944 180.586 143.456C181.47 142.977 182.266 142.238 182.982 141.385L179.152 138.171C178.915 138.453 178.71 138.66 178.542 138.809C178.372 138.958 178.258 139.031 178.203 139.06C178.149 139.09 178.184 139.06 178.301 139.043C178.361 139.033 178.44 139.028 178.535 139.035C178.63 139.042 178.731 139.061 178.833 139.095C178.935 139.128 179.026 139.173 179.104 139.222C179.181 139.27 179.239 139.319 179.279 139.36C179.358 139.437 179.369 139.478 179.345 139.429C179.321 139.381 179.277 139.273 179.232 139.087C179.187 138.903 179.146 138.664 179.12 138.365L174.139 138.801ZM182.96 141.411C185.499 138.467 188.103 136.923 190.877 136.68L190.441 131.699C185.939 132.093 182.232 134.599 179.174 138.145L182.96 141.411ZM190.877 136.68C192.787 136.513 193.988 137.046 194.751 137.768C195.559 138.532 196.135 139.756 196.276 141.363L201.257 140.927C201.036 138.4 200.08 135.925 198.186 134.135C196.247 132.302 193.575 131.425 190.441 131.699L190.877 136.68ZM196.276 141.363C196.423 143.042 196.05 144.45 195.536 146.247C195.041 147.978 194.379 150.162 194.606 152.757L199.587 152.321C199.453 150.782 199.817 149.46 200.343 147.623C200.85 145.852 201.493 143.631 201.257 140.927L196.276 141.363ZM194.606 152.757C194.756 154.471 195.284 156.225 196.68 157.454C198.102 158.704 199.917 158.968 201.645 158.817L201.21 153.836C200.209 153.923 199.982 153.699 199.982 153.699C199.957 153.677 199.683 153.419 199.587 152.321L194.606 152.757ZM201.645 158.817C205.553 158.475 207.533 155.412 208.957 152.81L204.571 150.41C203.121 153.059 202.263 153.743 201.21 153.836L201.645 158.817ZM208.957 152.81C208.922 152.873 208.839 152.987 208.689 153.088C208.542 153.187 208.398 153.229 208.298 153.242C208.205 153.254 208.159 153.242 208.169 153.244C208.178 153.246 208.214 153.256 208.265 153.284C208.316 153.311 208.36 153.343 208.39 153.37C208.422 153.399 208.416 153.402 208.392 153.362C208.369 153.323 208.306 153.203 208.283 153.004C208.258 152.788 208.288 152.533 208.401 152.292L212.93 154.411C213.573 153.037 213.219 151.7 212.694 150.813C212.181 149.947 211.403 149.287 210.605 148.865C209.811 148.444 208.761 148.136 207.636 148.286C206.401 148.451 205.256 149.157 204.571 150.41L208.957 152.81ZM208.403 152.287C207.798 153.573 207.034 155.706 206.208 157.792C205.337 159.992 204.298 162.415 203.015 164.696C200.374 169.387 197.097 172.775 192.818 173.149L193.254 178.13C200.137 177.528 204.55 172.162 207.372 167.148C208.82 164.576 209.955 161.909 210.856 159.634C211.802 157.245 212.408 155.519 212.928 154.416L208.403 152.287ZM192.818 173.149C190.942 173.314 189.923 172.736 189.255 171.943C188.476 171.019 187.925 169.49 187.746 167.438L182.765 167.874C182.99 170.451 183.726 173.142 185.433 175.167C187.252 177.323 189.92 178.422 193.254 178.13L192.818 173.149ZM187.746 167.438C187.509 164.726 188.03 162.03 188.662 159.395C188.964 158.14 189.319 156.787 189.559 155.61C189.8 154.434 189.994 153.141 189.888 151.92L184.907 152.356C184.948 152.829 184.88 153.539 184.661 154.608C184.442 155.677 184.14 156.813 183.8 158.228C183.151 160.934 182.452 164.301 182.765 167.874L187.746 167.438ZM189.888 151.92C189.755 150.4 189.111 148.988 187.84 148.045C186.617 147.138 185.142 146.91 183.784 147.028L184.22 152.009C184.764 151.962 184.903 152.092 184.861 152.061C184.839 152.045 184.831 152.028 184.837 152.04C184.847 152.059 184.889 152.15 184.907 152.356L189.888 151.92ZM183.784 147.028C180.142 147.347 177.468 150.16 175.887 153.292C174.262 156.511 173.466 160.626 173.826 164.74L178.807 164.304C178.523 161.058 179.171 157.882 180.351 155.545C181.575 153.119 183.066 152.11 184.22 152.009L183.784 147.028ZM173.826 164.74L174.151 168.46L179.132 168.025L178.807 164.304L173.826 164.74ZM174.151 168.46C174.325 170.45 174.197 172.109 173.657 173.238C173.235 174.122 172.459 174.931 170.411 175.11L170.846 180.091C174.503 179.771 176.919 178.009 178.169 175.394C179.302 173.023 179.327 170.253 179.132 168.025L174.151 168.46ZM240.545 143.489L242.894 144.343L242.926 144.257L242.95 144.168L240.545 143.489ZM249.261 147.892L247.034 146.757L247.034 146.757L249.261 147.892ZM253.163 149.634L255.468 150.602L255.468 150.601L253.163 149.634ZM229.02 160.327L231.516 160.468L231.679 157.585L228.802 157.837L229.02 160.327ZM228.69 160.356L228.472 157.866L226.924 158.001L226.36 159.449L228.69 160.356ZM215.389 171.175C213.471 171.343 212.036 170.65 210.907 169.202C209.691 167.642 208.786 165.113 208.488 161.707L203.507 162.143C203.853 166.096 204.942 169.683 206.964 172.276C209.073 174.981 212.12 176.48 215.825 176.156L215.389 171.175ZM208.488 161.707C208.023 156.392 209.097 149.489 211.927 143.84C214.746 138.211 219.08 134.212 225.024 133.692L224.588 128.711C216.31 129.436 210.737 135.052 207.456 141.6C204.186 148.128 202.967 155.965 203.507 162.143L208.488 161.707ZM225.024 133.692C227.865 133.444 228.934 134.007 229.48 134.359C229.661 134.475 229.829 134.601 230.041 134.762C230.226 134.903 230.513 135.128 230.809 135.321C231.5 135.773 232.456 136.208 233.732 136.096L233.297 131.116C233.498 131.098 233.654 131.207 233.545 131.136C233.44 131.067 233.327 130.98 233.076 130.788C232.851 130.617 232.549 130.388 232.189 130.156C230.572 129.114 228.361 128.381 224.588 128.711L225.024 133.692ZM233.732 136.096C236.158 135.884 237.584 134.224 238.275 133.558C239.022 132.838 239.553 132.421 240.651 132.325L240.215 127.344C237.428 127.588 235.863 128.938 234.804 129.959C233.689 131.034 233.599 131.089 233.297 131.116L233.732 136.096ZM240.651 132.325C240.955 132.299 241.09 132.332 241.112 132.338C241.117 132.339 241.06 132.319 241 132.26C240.949 132.209 240.96 132.194 240.995 132.285C241.031 132.383 241.078 132.565 241.104 132.859L246.085 132.423C245.982 131.239 245.622 129.802 244.521 128.71C243.343 127.542 241.775 127.208 240.215 127.344L240.651 132.325ZM241.104 132.859C241.191 133.851 240.95 134.886 240.35 136.526C239.783 138.075 238.872 140.212 238.139 142.809L242.95 144.168C243.616 141.811 244.368 140.095 245.045 138.244C245.689 136.485 246.273 134.573 246.085 132.423L241.104 132.859ZM238.195 142.635C237.007 145.903 236.496 148.928 237.208 151.283C237.591 152.55 238.348 153.674 239.549 154.401C240.716 155.107 242.044 155.282 243.316 155.171L242.88 150.19C242.334 150.238 242.148 150.129 242.138 150.123C242.131 150.119 242.124 150.115 242.107 150.092C242.088 150.066 242.041 149.991 241.994 149.837C241.767 149.087 241.799 147.357 242.894 144.343L238.195 142.635ZM243.316 155.171C247.288 154.823 249.836 152.27 251.489 149.027L247.034 146.757C245.842 149.095 244.531 150.045 242.88 150.19L243.316 155.171ZM251.489 149.027C251.451 149.102 251.359 149.234 251.192 149.35C251.028 149.465 250.865 149.512 250.752 149.528C250.646 149.542 250.593 149.528 250.601 149.53C250.608 149.531 250.645 149.541 250.701 149.571C250.756 149.6 250.806 149.636 250.844 149.67C250.883 149.705 250.886 149.717 250.869 149.69C250.853 149.665 250.794 149.561 250.766 149.378C250.735 149.178 250.75 148.922 250.858 148.666L255.468 150.601C256.051 149.211 255.642 147.901 255.12 147.057C254.6 146.218 253.832 145.571 253.041 145.152C252.259 144.738 251.211 144.421 250.085 144.572C248.834 144.741 247.688 145.474 247.034 146.757L251.489 149.027ZM250.858 148.665C249.035 153.005 247.507 157.926 245.157 162.221C242.824 166.483 240.242 169 236.969 169.287L237.405 174.268C243.311 173.751 247.027 169.219 249.543 164.621C252.041 160.055 253.912 154.306 255.468 150.602L250.858 148.665ZM236.969 169.287C235.018 169.457 233.761 168.747 232.894 167.454C231.927 166.01 231.338 163.631 231.516 160.468L226.524 160.187C226.311 163.974 226.953 167.569 228.74 170.237C230.629 173.056 233.651 174.596 237.405 174.268L236.969 169.287ZM228.802 157.837L228.472 157.866L228.907 162.847L229.238 162.818L228.802 157.837ZM226.36 159.449C225.073 162.753 223.413 165.653 221.489 167.746C219.57 169.833 217.519 170.988 215.389 171.175L215.825 176.156C219.565 175.828 222.694 173.823 225.17 171.13C227.639 168.444 229.584 164.947 231.019 161.264L226.36 159.449ZM222.596 158.317C225.636 158.051 227.956 156.305 229.412 154.216C230.845 152.16 231.589 149.578 231.382 147.207L226.401 147.642C226.497 148.744 226.134 150.174 225.31 151.357C224.508 152.507 223.419 153.226 222.16 153.336L222.596 158.317ZM231.382 147.207C231.218 145.337 230.487 143.611 229.073 142.407C227.655 141.201 225.839 140.766 223.99 140.928L224.426 145.909C225.223 145.839 225.63 146.043 225.832 146.215C226.038 146.391 226.326 146.783 226.401 147.642L231.382 147.207ZM223.99 140.928C217.904 141.46 214.963 147.379 215.362 151.941L220.343 151.505C220.106 148.791 221.914 146.129 224.426 145.909L223.99 140.928ZM215.362 151.941C215.525 153.799 216.205 155.539 217.573 156.771C218.964 158.023 220.762 158.477 222.596 158.317L222.16 153.336C221.43 153.4 221.089 153.208 220.919 153.055C220.727 152.882 220.427 152.459 220.343 151.505L215.362 151.941ZM269.613 117.034L272.113 117.057L272.113 117.037L272.113 117.017L269.613 117.034ZM249.234 147.894L246.795 147.349L246.792 147.359L249.234 147.894ZM269.657 146.108L267.464 144.907L267.464 144.907L269.657 146.108ZM273.552 147.766L275.805 148.849L275.82 148.817L275.835 148.785L273.552 147.766ZM261.803 122.04C260.062 122.192 258.8 121.962 258.024 121.517C257.408 121.164 256.85 120.546 256.721 119.078L251.74 119.514C251.995 122.428 253.348 124.601 255.538 125.856C257.57 127.02 260.011 127.215 262.239 127.02L261.803 122.04ZM256.721 119.078C256.514 116.705 257.14 115.557 257.837 114.909C258.646 114.157 260.024 113.634 262.052 113.456L261.616 108.475C259.096 108.696 256.416 109.402 254.432 111.248C252.336 113.198 251.434 116.016 251.74 119.514L256.721 119.078ZM262.052 113.456C263.941 113.291 265.205 113.551 265.93 114.022C266.473 114.375 267.1 115.092 267.113 117.051L272.113 117.017C272.091 113.813 270.937 111.311 268.653 109.829C266.551 108.464 263.944 108.272 261.616 108.475L262.052 113.456ZM267.113 117.011C267.095 119.034 266.48 120.075 265.769 120.695C264.972 121.389 263.684 121.875 261.803 122.04L262.239 127.02C264.657 126.809 267.141 126.131 269.054 124.464C271.053 122.722 272.084 120.204 272.113 117.057L267.113 117.011ZM256.538 167.575C254.578 167.746 253.413 167.104 252.583 166.042C251.634 164.829 250.969 162.843 250.736 160.177L245.755 160.613C246.028 163.735 246.848 166.826 248.644 169.122C250.558 171.57 253.395 172.869 256.974 172.556L256.538 167.575ZM250.736 160.177C250.423 156.604 250.823 152.327 251.676 148.429L246.792 147.359C245.86 151.616 245.387 156.414 245.755 160.613L250.736 160.177ZM251.674 148.44C253.047 142.299 254.386 137.719 255.881 134.663C257.417 131.525 258.736 130.743 259.724 130.656L259.288 125.676C255.563 126.001 253.124 128.922 251.39 132.465C249.617 136.09 248.176 141.167 246.795 147.349L251.674 148.44ZM259.724 130.656C259.905 130.641 259.966 130.664 259.949 130.658C259.916 130.648 259.868 130.62 259.841 130.591C259.814 130.563 260.06 130.809 260.152 131.859L265.133 131.423C264.994 129.827 264.54 128.259 263.436 127.117C262.243 125.882 260.697 125.552 259.288 125.676L259.724 130.656ZM260.152 131.859C260.328 133.865 259.771 136.138 259.041 138.856C258.377 141.332 257.498 144.38 257.741 147.15L262.722 146.714C262.574 145.02 263.121 142.944 263.871 140.151C264.555 137.6 265.399 134.46 265.133 131.423L260.152 131.859ZM257.741 147.15C257.899 148.954 258.546 150.624 259.86 151.798C261.192 152.987 262.883 153.376 264.532 153.231L264.096 148.25C263.512 148.301 263.282 148.15 263.19 148.068C263.081 147.971 262.803 147.639 262.722 146.714L257.741 147.15ZM264.532 153.231C268.407 152.892 270.394 149.97 271.85 147.308L267.464 144.907C266.048 147.496 265.182 148.155 264.096 148.25L264.532 153.231ZM271.85 147.308C271.819 147.365 271.739 147.477 271.589 147.579C271.441 147.679 271.295 147.724 271.188 147.738C271.089 147.752 271.038 147.739 271.044 147.74C271.049 147.741 271.082 147.75 271.133 147.777C271.184 147.803 271.229 147.836 271.262 147.865C271.296 147.896 271.293 147.902 271.272 147.867C271.252 147.835 271.186 147.719 271.157 147.519C271.126 147.301 271.146 147.023 271.269 146.747L275.835 148.785C276.455 147.395 276.04 146.072 275.526 145.239C275.012 144.408 274.249 143.766 273.46 143.351C272.677 142.94 271.633 142.63 270.509 142.784C269.273 142.954 268.143 143.667 267.464 144.907L271.85 147.308ZM271.298 146.684C270.672 147.987 269.932 150.116 269.138 152.216C268.302 154.425 267.317 156.861 266.1 159.156C263.578 163.91 260.502 167.228 256.538 167.575L256.974 172.556C263.677 171.969 267.871 166.486 270.517 161.498C271.883 158.922 272.956 156.252 273.814 153.986C274.713 151.61 275.304 149.894 275.805 148.849L271.298 146.684ZM269.665 146.107L272.087 146.726L272.09 146.715L269.665 146.107ZM287.962 115.262L290.291 116.172L290.293 116.166L287.962 115.262ZM280.364 139.838L282.816 140.33L282.82 140.308L282.824 140.286L280.364 139.838ZM290.419 144.291L288.226 143.091L288.221 143.099L288.217 143.107L290.419 144.291ZM294.32 146.033L296.583 147.097L296.585 147.092L294.32 146.033ZM276.473 165.831C274.08 166.04 272.857 165.426 272.148 164.692C271.35 163.865 270.771 162.439 270.581 160.274L265.6 160.71C265.838 163.423 266.624 166.168 268.551 168.165C270.568 170.254 273.431 171.116 276.909 170.812L276.473 165.831ZM270.581 160.274C270.246 156.44 270.885 151.431 272.087 146.726L267.243 145.488C265.963 150.498 265.198 156.11 265.6 160.71L270.581 160.274ZM272.09 146.715C275.233 134.182 277.426 124.896 279.664 118.616C280.783 115.477 281.839 113.315 282.892 111.939C283.903 110.618 284.748 110.221 285.516 110.154L285.08 105.173C282.499 105.398 280.495 106.844 278.922 108.9C277.391 110.9 276.127 113.648 274.955 116.937C272.61 123.514 270.336 133.157 267.24 145.499L272.09 146.715ZM285.516 110.154C286.073 110.105 286.313 110.193 286.363 110.217C286.381 110.225 286.371 110.223 286.356 110.207C286.341 110.191 286.351 110.194 286.372 110.247C286.505 110.576 286.636 111.769 285.632 114.358L290.293 116.166C291.397 113.321 291.89 110.566 291.011 108.381C290.531 107.187 289.672 106.257 288.519 105.705C287.422 105.181 286.218 105.073 285.08 105.173L285.516 110.154ZM285.634 114.351C281.868 123.982 279.242 132.045 277.905 139.391L282.824 140.286C284.076 133.408 286.567 125.694 290.291 116.172L285.634 114.351ZM277.913 139.347C277.427 141.773 276.985 144.712 277.571 147.075C277.884 148.341 278.544 149.658 279.839 150.568C281.126 151.472 282.687 151.726 284.308 151.584L283.872 146.603C283.013 146.679 282.745 146.499 282.714 146.477C282.691 146.461 282.545 146.359 282.424 145.872C282.14 144.728 282.316 142.823 282.816 140.33L277.913 139.347ZM284.308 151.584C288.348 151.231 290.888 148.695 292.621 145.475L288.217 143.107C286.939 145.482 285.621 146.451 283.872 146.603L284.308 151.584ZM292.612 145.491C292.577 145.554 292.494 145.668 292.344 145.769C292.197 145.868 292.053 145.91 291.953 145.923C291.86 145.936 291.814 145.923 291.824 145.926C291.833 145.928 291.869 145.937 291.92 145.965C291.971 145.992 292.015 146.024 292.045 146.051C292.077 146.08 292.071 146.083 292.047 146.043C292.024 146.004 291.961 145.884 291.938 145.685C291.913 145.469 291.943 145.214 292.056 144.973L296.585 147.092C297.228 145.718 296.875 144.382 296.349 143.495C295.836 142.628 295.058 141.969 294.26 141.546C293.466 141.126 292.416 140.817 291.291 140.967C290.056 141.132 288.911 141.838 288.226 143.091L292.612 145.491ZM292.058 144.969C291.453 146.255 290.689 148.388 289.863 150.474C288.992 152.673 287.953 155.096 286.67 157.377C284.029 162.068 280.752 165.456 276.473 165.831L276.909 170.812C283.792 170.209 288.205 164.843 291.027 159.829C292.475 157.257 293.61 154.59 294.511 152.315C295.457 149.926 296.064 148.2 296.583 147.097L292.058 144.969Z" fill="#F6F1E3" mask="url(#path-4-outside-2_305_2)"/>
<path d="M150.5 9C150.5 9 151.692 19.3862 155.05 23.4846C158.408 27.5829 167 29 167 29C167 29 158.572 30.4676 155.05 34.5154C151.313 38.8109 150.5 49 150.5 49C150.5 49 149.687 38.8109 145.95 34.5154C142.428 30.4676 134 29 134 29C134 29 142.428 27.5324 145.95 23.4846C149.687 19.1891 150.5 9 150.5 9Z" fill="#4F453E"/>
<path d="M110.5 28C110.5 28 111.403 36.309 113.947 39.5877C116.491 42.8663 123 44 123 44C123 44 116.615 45.1741 113.947 48.4123C111.116 51.8487 110.5 60 110.5 60C110.5 60 109.884 51.8487 107.053 48.4123C104.385 45.1741 98 44 98 44C98 44 104.385 42.8259 107.053 39.5877C109.884 36.1513 110.5 28 110.5 28Z" fill="#4F453E"/>
<path d="M85 138C85 138 86.8786 152.281 92.1701 157.916C97.4615 163.552 111 165.5 111 165.5C111 165.5 97.7198 167.518 92.1701 173.084C86.2808 178.99 85 193 85 193C85 193 83.7192 178.99 77.8299 173.084C72.2802 167.518 59 165.5 59 165.5C59 165.5 72.2802 163.482 77.8299 157.916C83.7192 152.01 85 138 85 138Z" fill="#4F453E"/>
<path d="M134.5 201C134.5 201 135.692 209.569 139.05 212.95C142.408 216.331 151 217.5 151 217.5C151 217.5 142.572 218.711 139.05 222.05C135.313 225.594 134.5 234 134.5 234C134.5 234 133.687 225.594 129.95 222.05C126.428 218.711 118 217.5 118 217.5C118 217.5 126.428 216.289 129.95 212.95C133.687 209.406 134.5 201 134.5 201Z" fill="#4F453E"/>
<path d="M186 193C186 193 186.795 199.491 189.033 202.053C191.272 204.614 197 205.5 197 205.5C197 205.5 191.381 206.417 189.033 208.947C186.542 211.632 186 218 186 218C186 218 185.458 211.632 182.967 208.947C180.619 206.417 175 205.5 175 205.5C175 205.5 180.619 204.583 182.967 202.053C185.458 199.368 186 193 186 193Z" fill="#4F453E"/>
</svg>
