<svg width="298" height="250" viewBox="0 0 298 250" fill="none" xmlns="http://www.w3.org/2000/svg">
<circle cx="151" cy="125" r="125" fill="#4F453E"/>
<mask id="path-2-outside-1_17_20" maskUnits="userSpaceOnUse" x="-2.02987" y="39.348" width="256.893" height="111.446" fill="black">
<rect fill="white" x="-2.02987" y="39.348" width="256.893" height="111.446"/>
<path d="M25.697 127.459C14.8653 128.406 6.01098 122.432 4.89695 109.699C3.76123 96.7176 11.6535 91.6947 16.5318 91.2679C18.5989 91.087 19.9942 91.7981 20.1027 93.0384C20.2691 94.9401 17.3896 95.3587 17.7875 99.9063C18.1781 104.371 20.9873 106.958 25.2869 106.582C29.2557 106.235 31.821 103.178 31.4666 99.1261C30.9096 92.7594 22.0231 87.3714 21.1478 77.3667C20.4823 69.7597 24.8068 62.0495 35.8038 61.0874C45.4778 60.241 49.705 65.7034 50.2258 71.6566C50.6599 76.6177 48.171 81.5012 43.9086 84.2069C43.0394 85.6994 39.1626 83.2891 40.1899 81.6995C41.5873 79.5776 41.5698 73.6637 36.8568 74.076C34.1282 74.3147 31.8751 76.1782 32.2368 80.3124C32.6325 87.693 43.77 94.0505 44.6815 104.469C45.7593 116.789 37.8515 126.395 25.697 127.459ZM89.6889 95.532C90.5581 94.0396 94.3336 95.2923 93.5905 97.2736C91.6339 102.527 88.1322 109.166 80.1118 109.867L79.6157 109.911C76.2215 115.873 71.1653 119.982 65.8735 120.444C61.1605 120.857 57.2909 118.529 57.7871 111.82C57.9514 109.89 55.7045 109.92 55.4719 112.023C54.0476 124.312 53.0159 138.233 47.1453 138.746C43.0111 139.108 41.1766 137.186 40.8583 133.548C40.417 128.504 43.4971 119.903 46.7664 108.702C47.5881 105.714 48.4708 102.471 49.339 99.0622C53.3318 82.7993 53.9054 79.833 58.1223 79.4641C61.0163 79.2109 61.7935 80.476 61.6756 81.986C61.5361 83.248 63.1577 83.6893 64.3649 82.2506C67.0129 79.1862 69.6154 78.4586 72.1786 78.2343C78.7107 77.6628 83.4298 82.0824 84.1098 89.8547C84.4209 93.4101 84.1387 96.8508 83.4286 100.162C85.8264 99.9525 87.9576 98.5996 89.6889 95.532ZM65.9471 103.191C70.0813 102.83 72.5991 98.277 72.2952 94.8042C72.0855 92.4064 70.5889 90.5377 67.3642 90.8198C63.3127 91.1743 60.9386 95.4645 61.2569 99.1026C61.4666 101.5 62.8051 103.466 65.9471 103.191ZM105.337 116.992C82.1028 119.025 85.3487 77.0821 109.079 75.006C116.769 74.3332 120.593 78.9977 121.07 84.4548C121.598 90.4908 116.982 97.7266 108.879 98.4355C106.564 98.6381 104.31 98.5853 102.314 97.6768C101.706 97.3967 100.901 97.7171 100.995 98.792C101.249 101.686 105.265 102.834 109.978 102.422C115.6 101.93 122.045 98.4501 125.266 92.4194C126.416 90.3192 129.94 92.5104 129.168 94.161C123.071 108.275 114.928 116.153 105.337 116.992ZM106.187 92.4223C109.412 92.1402 111.089 89.4106 110.908 87.3435C110.749 85.5244 109.371 84.0619 106.808 84.2862C103.584 84.5683 101.809 87.1398 102.004 89.3722C102.163 91.1913 103.541 92.6538 106.187 92.4223ZM140.865 113.884C117.631 115.916 120.877 73.9738 144.607 71.8976C152.297 71.2249 156.121 75.8893 156.599 81.3465C157.127 87.3824 152.511 94.6183 144.408 95.3272C142.092 95.5297 139.838 95.477 137.843 94.5685C137.235 94.2884 136.43 94.6088 136.524 95.6837C136.777 98.5776 140.793 99.726 145.506 99.3136C151.129 98.8217 157.573 95.3418 160.795 89.3111C161.944 87.2109 165.468 89.4021 164.696 91.0527C158.599 105.167 150.457 113.044 140.865 113.884ZM141.715 89.314C144.94 89.0318 146.617 86.3023 146.437 84.2352C146.277 82.4161 144.9 80.9536 142.337 81.1779C139.112 81.46 137.337 84.0314 137.533 86.2639C137.692 88.083 139.069 89.5455 141.715 89.314ZM170.523 111.289C163.991 111.86 160.649 106.987 160.07 100.372C158.999 88.1351 164.591 70.1493 178.813 68.9051C185.428 68.3263 185.444 72.3241 187.594 72.136C188.917 72.0203 188.519 67.4727 191.329 58.6451C193.806 50.7633 196.742 49.09 199.223 48.873C202.116 48.6198 203.542 51.5778 201.804 56.4789L194.552 81.1921C192.268 87.474 193.467 90.7018 197.105 90.3835C199.917 90.1375 201.846 88.3857 203.268 85.5951C204.335 83.5022 207.859 85.6933 207.17 87.3367C203.791 95.3808 200.372 108.677 191.194 109.48C185.902 109.943 182.718 104.973 183.027 98.0306L182.697 98.0595C179.892 105.054 175.567 110.848 170.523 111.289ZM176.55 93.5149C180.684 93.1532 183.202 88.6004 182.898 85.1277C182.688 82.7299 181.192 80.8612 177.967 81.1433C173.916 81.4978 171.542 85.788 171.86 89.4261C172.07 91.824 173.408 93.7898 176.55 93.5149ZM244.335 82.0022C245.205 80.5098 248.98 81.7625 248.237 83.7438C244.324 94.2508 241.439 105.084 233.419 105.786C232.178 105.895 231.128 105.32 230.366 104.22C226.564 121.716 221.416 128.582 212.238 129.385C203.473 130.152 198.086 125.707 197.391 117.77C196.653 109.336 202.205 105.184 202.516 106.824C203.291 110.922 206.603 113.548 211.722 113.017C218.991 112.297 224.517 104.982 224.725 96.882C224.731 95.0485 223.041 94.7798 222.395 96.9192C220.647 102.654 216.892 106.399 211.518 106.869C207.053 107.26 203.086 104.774 202.536 98.49C202.319 96.0095 202.058 91.1166 203.241 85.5975C205.989 73.1928 209.213 66.2453 213.844 65.8402C215.663 65.6811 216.508 66.7736 216.696 68.9234C217.166 74.2978 213.93 80.1632 214.357 85.0416C214.56 87.3567 215.427 88.6972 218.155 88.4585C221.794 88.1402 223.665 85.7269 224.648 81.725C227.091 70.5968 229.967 64.4296 234.184 64.0607C236.582 63.8509 237.992 64.7274 238.223 67.3733C238.527 70.846 236.333 75.2871 234.252 83.8842C233.334 88.6303 235.043 90.0638 236.944 89.8974C239.425 89.6804 242.241 85.6847 244.335 82.0022Z"/>
</mask>
<path d="M25.697 127.459C14.8653 128.406 6.01098 122.432 4.89695 109.699C3.76123 96.7176 11.6535 91.6947 16.5318 91.2679C18.5989 91.087 19.9942 91.7981 20.1027 93.0384C20.2691 94.9401 17.3896 95.3587 17.7875 99.9063C18.1781 104.371 20.9873 106.958 25.2869 106.582C29.2557 106.235 31.821 103.178 31.4666 99.1261C30.9096 92.7594 22.0231 87.3714 21.1478 77.3667C20.4823 69.7597 24.8068 62.0495 35.8038 61.0874C45.4778 60.241 49.705 65.7034 50.2258 71.6566C50.6599 76.6177 48.171 81.5012 43.9086 84.2069C43.0394 85.6994 39.1626 83.2891 40.1899 81.6995C41.5873 79.5776 41.5698 73.6637 36.8568 74.076C34.1282 74.3147 31.8751 76.1782 32.2368 80.3124C32.6325 87.693 43.77 94.0505 44.6815 104.469C45.7593 116.789 37.8515 126.395 25.697 127.459ZM89.6889 95.532C90.5581 94.0396 94.3336 95.2923 93.5905 97.2736C91.6339 102.527 88.1322 109.166 80.1118 109.867L79.6157 109.911C76.2215 115.873 71.1653 119.982 65.8735 120.444C61.1605 120.857 57.2909 118.529 57.7871 111.82C57.9514 109.89 55.7045 109.92 55.4719 112.023C54.0476 124.312 53.0159 138.233 47.1453 138.746C43.0111 139.108 41.1766 137.186 40.8583 133.548C40.417 128.504 43.4971 119.903 46.7664 108.702C47.5881 105.714 48.4708 102.471 49.339 99.0622C53.3318 82.7993 53.9054 79.833 58.1223 79.4641C61.0163 79.2109 61.7935 80.476 61.6756 81.986C61.5361 83.248 63.1577 83.6893 64.3649 82.2506C67.0129 79.1862 69.6154 78.4586 72.1786 78.2343C78.7107 77.6628 83.4298 82.0824 84.1098 89.8547C84.4209 93.4101 84.1387 96.8508 83.4286 100.162C85.8264 99.9525 87.9576 98.5996 89.6889 95.532ZM65.9471 103.191C70.0813 102.83 72.5991 98.277 72.2952 94.8042C72.0855 92.4064 70.5889 90.5377 67.3642 90.8198C63.3127 91.1743 60.9386 95.4645 61.2569 99.1026C61.4666 101.5 62.8051 103.466 65.9471 103.191ZM105.337 116.992C82.1028 119.025 85.3487 77.0821 109.079 75.006C116.769 74.3332 120.593 78.9977 121.07 84.4548C121.598 90.4908 116.982 97.7266 108.879 98.4355C106.564 98.6381 104.31 98.5853 102.314 97.6768C101.706 97.3967 100.901 97.7171 100.995 98.792C101.249 101.686 105.265 102.834 109.978 102.422C115.6 101.93 122.045 98.4501 125.266 92.4194C126.416 90.3192 129.94 92.5104 129.168 94.161C123.071 108.275 114.928 116.153 105.337 116.992ZM106.187 92.4223C109.412 92.1402 111.089 89.4106 110.908 87.3435C110.749 85.5244 109.371 84.0619 106.808 84.2862C103.584 84.5683 101.809 87.1398 102.004 89.3722C102.163 91.1913 103.541 92.6538 106.187 92.4223ZM140.865 113.884C117.631 115.916 120.877 73.9738 144.607 71.8976C152.297 71.2249 156.121 75.8893 156.599 81.3465C157.127 87.3824 152.511 94.6183 144.408 95.3272C142.092 95.5297 139.838 95.477 137.843 94.5685C137.235 94.2884 136.43 94.6088 136.524 95.6837C136.777 98.5776 140.793 99.726 145.506 99.3136C151.129 98.8217 157.573 95.3418 160.795 89.3111C161.944 87.2109 165.468 89.4021 164.696 91.0527C158.599 105.167 150.457 113.044 140.865 113.884ZM141.715 89.314C144.94 89.0318 146.617 86.3023 146.437 84.2352C146.277 82.4161 144.9 80.9536 142.337 81.1779C139.112 81.46 137.337 84.0314 137.533 86.2639C137.692 88.083 139.069 89.5455 141.715 89.314ZM170.523 111.289C163.991 111.86 160.649 106.987 160.07 100.372C158.999 88.1351 164.591 70.1493 178.813 68.9051C185.428 68.3263 185.444 72.3241 187.594 72.136C188.917 72.0203 188.519 67.4727 191.329 58.6451C193.806 50.7633 196.742 49.09 199.223 48.873C202.116 48.6198 203.542 51.5778 201.804 56.4789L194.552 81.1921C192.268 87.474 193.467 90.7018 197.105 90.3835C199.917 90.1375 201.846 88.3857 203.268 85.5951C204.335 83.5022 207.859 85.6933 207.17 87.3367C203.791 95.3808 200.372 108.677 191.194 109.48C185.902 109.943 182.718 104.973 183.027 98.0306L182.697 98.0595C179.892 105.054 175.567 110.848 170.523 111.289ZM176.55 93.5149C180.684 93.1532 183.202 88.6004 182.898 85.1277C182.688 82.7299 181.192 80.8612 177.967 81.1433C173.916 81.4978 171.542 85.788 171.86 89.4261C172.07 91.824 173.408 93.7898 176.55 93.5149ZM244.335 82.0022C245.205 80.5098 248.98 81.7625 248.237 83.7438C244.324 94.2508 241.439 105.084 233.419 105.786C232.178 105.895 231.128 105.32 230.366 104.22C226.564 121.716 221.416 128.582 212.238 129.385C203.473 130.152 198.086 125.707 197.391 117.77C196.653 109.336 202.205 105.184 202.516 106.824C203.291 110.922 206.603 113.548 211.722 113.017C218.991 112.297 224.517 104.982 224.725 96.882C224.731 95.0485 223.041 94.7798 222.395 96.9192C220.647 102.654 216.892 106.399 211.518 106.869C207.053 107.26 203.086 104.774 202.536 98.49C202.319 96.0095 202.058 91.1166 203.241 85.5975C205.989 73.1928 209.213 66.2453 213.844 65.8402C215.663 65.6811 216.508 66.7736 216.696 68.9234C217.166 74.2978 213.93 80.1632 214.357 85.0416C214.56 87.3567 215.427 88.6972 218.155 88.4585C221.794 88.1402 223.665 85.7269 224.648 81.725C227.091 70.5968 229.967 64.4296 234.184 64.0607C236.582 63.8509 237.992 64.7274 238.223 67.3733C238.527 70.846 236.333 75.2871 234.252 83.8842C233.334 88.6303 235.043 90.0638 236.944 89.8974C239.425 89.6804 242.241 85.6847 244.335 82.0022Z" fill="#F6F1E3"/>
<path d="M43.9086 84.2069L42.5688 82.0963L42.0547 82.4226L41.7483 82.9487L43.9086 84.2069ZM40.1899 81.6995L38.102 80.3245L38.0961 80.3335L38.0903 80.3425L40.1899 81.6995ZM32.2368 80.3124L34.7332 80.1785L34.7309 80.1365L34.7273 80.0945L32.2368 80.3124ZM25.4791 124.968C20.5701 125.398 16.324 124.246 13.215 121.757C10.1288 119.287 7.8954 115.287 7.38744 109.481L2.40647 109.917C3.01253 116.844 5.76336 122.198 10.0907 125.661C14.3953 129.106 19.9922 130.467 25.9149 129.949L25.4791 124.968ZM7.38744 109.481C6.86869 103.552 8.41937 99.7305 10.3804 97.3751C12.3914 94.9596 14.9689 93.9142 16.7497 93.7583L16.314 88.7774C13.2164 89.0484 9.40862 90.7278 6.53784 94.1759C3.61707 97.684 1.78948 102.865 2.40647 109.917L7.38744 109.481ZM16.7497 93.7583C17.1041 93.7273 17.3848 93.7388 17.5921 93.7685C17.8026 93.7987 17.9072 93.843 17.9343 93.8565C17.9585 93.8686 17.8814 93.8355 17.7884 93.7113C17.6867 93.5755 17.6256 93.4087 17.6123 93.2563L22.5932 92.8205C22.4488 91.1693 21.4064 90.0021 20.1693 89.3839C19.005 88.8021 17.6367 88.6616 16.314 88.7774L16.7497 93.7583ZM17.6123 93.2563C17.5897 92.9986 17.7096 92.8322 17.646 92.9322C17.5965 93.01 17.5203 93.1137 17.3656 93.3124C17.23 93.4867 17.0237 93.7469 16.8227 94.0289C15.8789 95.3527 15.0391 97.1756 15.297 100.124L20.278 99.6884C20.1381 98.0894 20.5391 97.4292 20.894 96.9314C21.0176 96.758 21.1396 96.6041 21.3112 96.3837C21.4637 96.1878 21.6736 95.9163 21.8645 95.6163C22.2815 94.9609 22.699 94.029 22.5932 92.8205L17.6123 93.2563ZM15.297 100.124C15.5332 102.824 16.5307 105.239 18.4004 106.919C20.2921 108.619 22.7926 109.31 25.5048 109.073L25.069 104.092C23.4816 104.23 22.4278 103.816 21.7423 103.2C21.0349 102.564 20.4324 101.454 20.278 99.6884L15.297 100.124ZM25.5048 109.073C28.0939 108.846 30.3637 107.713 31.92 105.842C33.4755 103.972 34.1859 101.524 33.9571 98.9082L28.9761 99.344C29.1017 100.779 28.7067 101.886 28.076 102.644C27.446 103.402 26.4487 103.971 25.069 104.092L25.5048 109.073ZM33.9571 98.9082C33.7707 96.778 32.9013 94.8692 31.8915 93.17C30.899 91.4998 29.605 89.7748 28.4675 88.1668C26.0981 84.8177 24.0137 81.4392 23.6383 77.1488L18.6574 77.5845C19.1573 83.2989 21.9537 87.6168 24.3856 91.0545C25.6487 92.84 26.7355 94.2811 27.5932 95.7243C28.4337 97.1387 28.8839 98.2909 28.9761 99.344L33.9571 98.9082ZM23.6383 77.1488C23.3516 73.8713 24.1497 70.7045 26.0629 68.2864C27.9473 65.9047 31.1035 64.0081 36.0217 63.5778L35.5859 58.5969C29.507 59.1287 25.0025 61.5683 22.1418 65.184C19.3099 68.7633 18.2786 73.255 18.6574 77.5845L23.6383 77.1488ZM36.0217 63.5778C40.3492 63.1992 43.108 64.2483 44.8175 65.7179C46.5522 67.2091 47.519 69.4013 47.7353 71.8745L52.7163 71.4387C52.4119 67.9587 51.0046 64.4431 48.077 61.9263C45.1242 59.388 40.9324 58.1291 35.5859 58.5969L36.0217 63.5778ZM47.7353 71.8745C48.085 75.8715 46.072 79.8724 42.5688 82.0963L45.2485 86.3176C50.27 83.1299 53.2347 77.3638 52.7163 71.4387L47.7353 71.8745ZM41.7483 82.9487C41.8352 82.7996 41.9534 82.6551 42.1015 82.5303C42.2484 82.4065 42.4011 82.322 42.54 82.2672C42.8064 82.1622 42.9968 82.1746 43.0334 82.1778C43.0768 82.1815 43.0556 82.1854 42.9729 82.1538C42.8953 82.1241 42.7981 82.0761 42.6968 82.0104C42.5954 81.9448 42.5128 81.8764 42.4552 81.8187C42.3943 81.7577 42.3897 81.7374 42.4098 81.7743C42.4288 81.809 42.5056 81.9617 42.5167 82.2159C42.5224 82.3467 42.5099 82.4944 42.4688 82.6487C42.4275 82.8039 42.3639 82.9416 42.2896 83.0565L38.0903 80.3425C37.1777 81.7544 37.5092 83.2317 38.0208 84.1693C38.5086 85.0633 39.2688 85.7475 39.9793 86.2075C40.6894 86.6672 41.6119 87.0728 42.5993 87.1589C43.5978 87.2459 45.1775 86.9956 46.0689 85.4652L41.7483 82.9487ZM42.2778 83.0745C42.8885 82.1473 43.2404 80.9975 43.3962 79.9096C43.5556 78.7967 43.5399 77.5424 43.2415 76.3368C42.9441 75.135 42.324 73.8313 41.1525 72.8656C39.9328 71.8604 38.3719 71.4339 36.6389 71.5855L37.0747 76.5665C37.6982 76.5119 37.9069 76.67 37.9724 76.724C38.0859 76.8176 38.2666 77.0477 38.388 77.5381C38.5084 78.0247 38.5297 78.6209 38.4467 79.2007C38.36 79.8057 38.1901 80.1908 38.102 80.3245L42.2778 83.0745ZM36.6389 71.5855C34.7835 71.7478 32.8629 72.4882 31.4817 74.1159C30.0866 75.7599 29.5229 77.9769 29.7463 80.5303L34.7273 80.0945C34.589 78.5137 34.9709 77.7318 35.2941 77.3509C35.6313 76.9536 36.2016 76.6429 37.0747 76.5665L36.6389 71.5855ZM29.7404 80.4463C29.8717 82.8948 30.8831 85.0979 32.0953 87.0529C33.2966 88.9902 34.8662 90.9409 36.2876 92.7802C39.26 96.6262 41.8065 100.291 42.191 104.687L47.172 104.251C46.645 98.2279 43.1671 93.5051 40.2438 89.7227C38.7175 87.7477 37.3716 86.0741 36.3448 84.418C35.3289 82.7796 34.7998 81.4203 34.7332 80.1785L29.7404 80.4463ZM42.191 104.687C43.152 115.67 36.2192 124.029 25.4791 124.968L25.9149 129.949C39.4839 128.762 48.3667 117.907 47.172 104.251L42.191 104.687ZM89.6889 95.532L87.5286 94.2738L87.52 94.2885L87.5117 94.3033L89.6889 95.532ZM93.5905 97.2736L91.2497 96.3956L91.2477 96.4011L93.5905 97.2736ZM79.6157 109.911L79.3978 107.42L78.0917 107.534L77.4431 108.674L79.6157 109.911ZM57.7871 111.82L55.2961 111.608L55.2949 111.622L55.2939 111.636L57.7871 111.82ZM55.4719 112.023L57.9553 112.311L57.9568 112.298L55.4719 112.023ZM46.7664 108.702L49.1662 109.403L49.1717 109.384L49.1769 109.365L46.7664 108.702ZM49.339 99.0622L51.7616 99.6793L51.7643 99.6688L51.7669 99.6583L49.339 99.0622ZM61.6756 81.986L64.1605 82.2608L64.1649 82.2207L64.1681 82.1805L61.6756 81.986ZM64.3649 82.2506L62.4733 80.6161L62.4615 80.6298L62.4498 80.6436L64.3649 82.2506ZM83.4286 100.162L80.9842 99.6381L80.2745 102.948L83.6465 102.653L83.4286 100.162ZM91.8492 96.7902C91.7121 97.0256 91.527 97.1828 91.3681 97.2727C91.2215 97.3557 91.1172 97.3717 91.0976 97.3743C91.0757 97.3772 91.0945 97.3722 91.152 97.3803C91.2075 97.3881 91.2726 97.4046 91.3359 97.4293C91.4 97.4543 91.439 97.4786 91.4526 97.4884C91.4681 97.4995 91.4297 97.4761 91.374 97.3972C91.3146 97.3129 91.2333 97.1606 91.2006 96.9469C91.1665 96.724 91.1999 96.5284 91.2497 96.3956L95.9313 98.1516C96.4387 96.7986 96.146 95.4875 95.4592 94.5143C94.837 93.6325 93.948 93.0812 93.1527 92.771C92.3466 92.4566 91.39 92.292 90.4418 92.4175C89.4964 92.5426 88.2602 93.0176 87.5286 94.2738L91.8492 96.7902ZM91.2477 96.4011C89.3169 101.585 86.3053 106.816 79.8939 107.377L80.3297 112.358C89.9591 111.515 93.951 103.469 95.9333 98.1461L91.2477 96.4011ZM79.8939 107.377L79.3978 107.42L79.8336 112.401L80.3297 112.358L79.8939 107.377ZM77.4431 108.674C74.2701 114.248 69.8169 117.59 65.6556 117.954L66.0914 122.935C72.5137 122.373 78.1728 117.499 81.7883 111.147L77.4431 108.674ZM65.6556 117.954C63.7132 118.124 62.365 117.692 61.5655 116.959C60.8137 116.271 60.0681 114.874 60.2803 112.005L55.2939 111.636C55.0099 115.475 55.951 118.597 58.1882 120.646C60.3777 122.652 63.3208 123.177 66.0914 122.935L65.6556 117.954ZM60.2781 112.032C60.3589 111.083 60.1675 110.029 59.4694 109.168C58.7541 108.285 57.6994 107.859 56.6511 107.912C54.5087 108.021 53.1959 109.86 52.9871 111.748L57.9568 112.298C57.9806 112.083 57.9075 112.855 56.9056 112.906C56.4276 112.93 55.9183 112.727 55.5853 112.316C55.2696 111.927 55.2975 111.592 55.2961 111.608L60.2781 112.032ZM52.9886 111.735C52.2636 117.99 51.6689 124.335 50.5397 129.239C49.9746 131.694 49.3216 133.562 48.5808 134.793C47.848 136.011 47.2775 136.225 46.9275 136.256L47.3632 141.237C49.9485 141.011 51.7084 139.293 52.8647 137.371C54.0129 135.464 54.8076 132.988 55.4122 130.361C56.6226 125.105 57.2559 118.345 57.9553 112.311L52.9886 111.735ZM46.9275 136.256C45.2432 136.403 44.5341 136.043 44.2191 135.767C43.8826 135.472 43.4793 134.821 43.3488 133.33L38.3678 133.765C38.5556 135.912 39.2288 138.041 40.9226 139.527C42.638 141.031 44.9133 141.451 47.3632 141.237L46.9275 136.256ZM43.3488 133.33C43.1711 131.298 43.7075 128.279 44.8352 124.082C45.9526 119.925 47.5018 115.105 49.1662 109.403L44.3665 108.002C42.7617 113.5 41.1363 118.581 40.0066 122.785C38.8873 126.95 38.1043 130.753 38.3678 133.765L43.3488 133.33ZM49.1769 109.365C49.9995 106.374 50.8874 103.112 51.7616 99.6793L46.9163 98.4451C46.0542 101.83 45.1766 105.055 44.3559 108.039L49.1769 109.365ZM51.7669 99.6583C53.7967 91.3909 54.881 86.8529 55.9559 84.2605C56.4761 83.0063 56.8729 82.5297 57.1218 82.3247C57.3079 82.1714 57.5848 82.0207 58.3402 81.9546L57.9044 76.9736C56.5514 77.092 55.1753 77.4504 53.9431 78.4652C52.7735 79.4284 51.9868 80.779 51.3373 82.3453C50.073 85.3941 48.8741 90.4706 46.9111 98.4661L51.7669 99.6583ZM58.3402 81.9546C58.8856 81.9069 59.2085 81.9428 59.3709 81.979C59.522 82.0128 59.484 82.0344 59.3827 81.9458C59.2725 81.8494 59.2115 81.7314 59.1895 81.6605C59.1742 81.6113 59.1949 81.6423 59.1832 81.7915L64.1681 82.1805C64.2613 80.986 64.0306 79.3681 62.6741 78.1819C61.3879 77.0572 59.6436 76.8215 57.9044 76.9736L58.3402 81.9546ZM59.1908 81.7112C59.0938 82.5884 59.2936 83.5178 59.8867 84.2877C60.4709 85.046 61.2942 85.4644 62.1112 85.5982C63.7388 85.8647 65.2674 85.0644 66.2801 83.8576L62.4498 80.6436C62.2553 80.8755 62.3695 80.5739 62.9193 80.6639C63.1975 80.7095 63.5661 80.8708 63.8477 81.2364C64.1383 81.6136 64.1877 82.0146 64.1605 82.2608L59.1908 81.7112ZM66.2566 83.8852C68.3786 81.4294 70.3098 80.9074 72.3965 80.7248L71.9607 75.7438C68.9211 76.0098 65.6473 76.9429 62.4733 80.6161L66.2566 83.8852ZM72.3965 80.7248C75.014 80.4958 77.0929 81.2601 78.6043 82.716C80.1493 84.2044 81.3182 86.6309 81.6193 90.0726L86.6003 89.6368C86.2214 85.3061 84.6908 81.6367 82.0732 79.1151C79.422 76.5611 75.8753 75.4014 71.9607 75.7438L72.3965 80.7248ZM81.6193 90.0726C81.9064 93.3536 81.6478 96.5433 80.9842 99.6381L85.873 100.686C86.6296 97.1583 86.9354 93.4665 86.6003 89.6368L81.6193 90.0726ZM83.6465 102.653C87.0349 102.356 89.8211 100.384 91.8661 96.7608L87.5117 94.3033C86.0941 96.815 84.618 97.5487 83.2107 97.6718L83.6465 102.653ZM66.165 105.682C69.1539 105.42 71.4285 103.649 72.8478 101.577C74.2498 99.5313 74.993 96.956 74.7857 94.5863L69.8047 95.0221C69.9013 96.1252 69.5376 97.5627 68.7231 98.7514C67.9258 99.915 66.8745 100.601 65.7292 100.701L66.165 105.682ZM74.7857 94.5863C74.6429 92.9541 74.0367 91.2272 72.6435 89.9586C71.2122 88.6552 69.288 88.142 67.1463 88.3293L67.5821 93.3103C68.6651 93.2156 69.1015 93.4956 69.2771 93.6555C69.4908 93.8501 69.7378 94.2565 69.8047 95.0221L74.7857 94.5863ZM67.1463 88.3293C64.2232 88.5851 61.9919 90.2675 60.5993 92.3318C59.2256 94.3683 58.5563 96.9189 58.7664 99.3205L63.7473 98.8847C63.6392 97.6482 63.9978 96.2347 64.7444 95.1279C65.4722 94.049 66.4537 93.409 67.5821 93.3103L67.1463 88.3293ZM58.7664 99.3205C58.9025 100.876 59.4274 102.604 60.7308 103.913C62.1056 105.294 64.0073 105.871 66.165 105.682L65.7292 100.701C64.7449 100.787 64.4063 100.518 64.2739 100.385C64.0702 100.181 63.821 99.727 63.7473 98.8847L58.7664 99.3205ZM102.314 97.6768L101.268 99.9473L101.278 99.9522L102.314 97.6768ZM125.266 92.4194L123.073 91.2192L123.067 91.2303L123.061 91.2414L125.266 92.4194ZM129.168 94.161L126.903 93.1017L126.888 93.1354L126.873 93.1696L129.168 94.161ZM105.119 114.501C100.177 114.934 96.8937 113.075 94.8263 110.141C92.6649 107.074 91.6844 102.592 92.0877 97.7472C92.9064 87.9138 99.1257 78.3863 109.297 77.4964L108.861 72.5155C95.3019 73.7018 88.0332 86.1836 87.105 97.3323C86.6348 102.979 87.7161 108.731 90.7391 113.021C93.8563 117.445 98.8801 120.066 105.555 119.482L105.119 114.501ZM109.297 77.4964C112.579 77.2093 114.739 78.069 116.115 79.297C117.524 80.5551 118.385 82.4438 118.58 84.6727L123.561 84.2369C123.278 81.0086 121.988 77.8366 119.444 75.5664C116.866 73.2661 113.268 72.1299 108.861 72.5155L109.297 77.4964ZM118.58 84.6727C118.999 89.4674 115.258 95.3679 108.661 95.945L109.097 100.926C118.706 100.085 124.197 91.5141 123.561 84.2369L118.58 84.6727ZM108.661 95.945C106.468 96.137 104.745 96.0364 103.35 95.4015L101.278 99.9522C103.875 101.134 106.661 101.139 109.097 100.926L108.661 95.945ZM103.361 95.4064C102.386 94.9574 101.088 94.914 99.9916 95.655C98.7942 96.4644 98.3996 97.8069 98.5049 99.0099L103.486 98.5741C103.497 98.7022 103.458 99.3471 102.792 99.7976C102.226 100.18 101.634 100.116 101.268 99.9473L103.361 95.4064ZM98.5049 99.0099C98.7504 101.816 100.86 103.424 102.952 104.193C105.043 104.962 107.628 105.137 110.196 104.912L109.76 99.9315C107.614 100.119 105.835 99.9261 104.677 99.5003C103.519 99.0748 103.494 98.6618 103.486 98.5741L98.5049 99.0099ZM110.196 104.912C116.55 104.357 123.802 100.466 127.471 93.5974L123.061 91.2414C120.287 96.4344 114.651 99.5035 109.76 99.9315L110.196 104.912ZM127.459 93.6196C127.425 93.6827 127.341 93.7967 127.191 93.8977C127.045 93.9964 126.901 94.038 126.8 94.0514C126.707 94.0638 126.662 94.0516 126.672 94.0538C126.681 94.0558 126.716 94.0657 126.768 94.093C126.819 94.12 126.863 94.152 126.893 94.1795C126.925 94.2087 126.919 94.2117 126.895 94.1716C126.872 94.1325 126.809 94.0121 126.786 93.8133C126.761 93.5972 126.791 93.3423 126.903 93.1017L131.432 95.2202C132.075 93.8462 131.722 92.5098 131.196 91.6228C130.683 90.7565 129.905 90.0968 129.108 89.6744C128.314 89.2539 127.264 88.9451 126.138 89.0954C124.904 89.2604 123.759 89.9666 123.073 91.2192L127.459 93.6196ZM126.873 93.1696C120.9 106.996 113.319 113.784 105.119 114.501L105.555 119.482C116.538 118.521 125.242 109.554 131.463 95.1524L126.873 93.1696ZM106.405 94.9128C111.059 94.5056 113.695 90.5132 113.399 87.1256L108.418 87.5614C108.483 88.3079 107.764 89.7748 105.969 89.9318L106.405 94.9128ZM113.399 87.1256C113.27 85.6482 112.625 84.1716 111.351 83.1203C110.066 82.0601 108.393 81.638 106.59 81.7957L107.026 86.7767C107.787 86.7101 108.084 86.9071 108.169 86.9769C108.264 87.0555 108.388 87.2197 108.418 87.5614L113.399 87.1256ZM106.59 81.7957C102.045 82.1934 99.1933 85.9279 99.5137 89.5901L104.495 89.1544C104.424 88.3516 105.122 86.9433 107.026 86.7767L106.59 81.7957ZM99.5137 89.5901C99.6431 91.0695 100.29 92.5545 101.588 93.6074C102.891 94.6647 104.582 95.0722 106.405 94.9128L105.969 89.9318C105.146 90.0039 104.826 89.7959 104.738 89.725C104.646 89.6498 104.524 89.4941 104.495 89.1544L99.5137 89.5901ZM137.843 94.5685L136.796 96.839L136.807 96.8438L137.843 94.5685ZM160.795 89.3111L158.602 88.1109L158.596 88.122L158.59 88.1331L160.795 89.3111ZM164.696 91.0527L162.432 89.9934L162.416 90.0271L162.401 90.0612L164.696 91.0527ZM140.648 111.393C135.705 111.825 132.422 109.967 130.355 107.033C128.193 103.965 127.213 99.4833 127.616 94.6388C128.435 84.8055 134.654 75.278 144.825 74.3881L144.389 69.4071C130.83 70.5934 123.562 83.0752 122.633 94.224C122.163 99.8705 123.244 105.623 126.267 109.913C129.385 114.336 134.408 116.958 141.083 116.374L140.648 111.393ZM144.825 74.3881C148.108 74.1009 150.267 74.9606 151.643 76.1886C153.053 77.4468 153.913 79.3355 154.108 81.5644L159.089 81.1286C158.807 77.9003 157.516 74.7283 154.972 72.4581C152.394 70.1577 148.797 69.0216 144.389 69.4071L144.825 74.3881ZM154.108 81.5644C154.528 86.3591 150.787 92.2595 144.19 92.8367L144.626 97.8177C154.235 96.977 159.726 88.4058 159.089 81.1286L154.108 81.5644ZM144.19 92.8367C141.996 93.0287 140.273 92.9281 138.878 92.2932L136.807 96.8438C139.404 98.0259 142.189 98.0308 144.626 97.8177L144.19 92.8367ZM138.889 92.298C137.915 91.8491 136.616 91.8057 135.52 92.5467C134.323 93.356 133.928 94.6986 134.033 95.9016L139.014 95.4658C139.025 95.5939 138.986 96.2388 138.32 96.6892C137.755 97.0713 137.162 97.0078 136.796 96.839L138.889 92.298ZM134.033 95.9016C134.279 98.7078 136.388 100.316 138.48 101.085C140.571 101.854 143.157 102.029 145.724 101.804L145.288 96.8231C143.143 97.0108 141.363 96.8178 140.205 96.392C139.047 95.9665 139.022 95.5535 139.014 95.4658L134.033 95.9016ZM145.724 101.804C152.078 101.248 159.331 97.3576 163 90.489L158.59 88.1331C155.815 93.3261 150.179 96.3952 145.288 96.8231L145.724 101.804ZM162.988 90.5113C162.953 90.5744 162.87 90.6883 162.72 90.7894C162.573 90.8881 162.429 90.9296 162.329 90.9431C162.236 90.9555 162.19 90.9433 162.2 90.9455C162.209 90.9475 162.245 90.9574 162.296 90.9847C162.347 91.0117 162.391 91.0437 162.421 91.0712C162.453 91.1004 162.447 91.1034 162.423 91.0632C162.4 91.0242 162.337 90.9038 162.314 90.705C162.289 90.4889 162.319 90.2339 162.432 89.9934L166.961 92.1119C167.604 90.7379 167.25 89.4015 166.725 88.5145C166.212 87.6482 165.434 86.9885 164.636 86.566C163.842 86.1456 162.792 85.8368 161.667 85.9871C160.432 86.152 159.287 86.8583 158.602 88.1109L162.988 90.5113ZM162.401 90.0612C156.428 103.888 148.847 110.676 140.648 111.393L141.083 116.374C152.066 115.413 160.77 106.446 166.991 92.0441L162.401 90.0612ZM141.933 91.8045C146.588 91.3972 149.223 87.4049 148.927 84.0173L143.946 84.453C144.011 85.1996 143.292 86.6664 141.497 86.8235L141.933 91.8045ZM148.927 84.0173C148.798 82.5399 148.153 81.0633 146.879 80.0119C145.594 78.9518 143.921 78.5297 142.119 78.6874L142.554 83.6683C143.315 83.6018 143.612 83.7988 143.697 83.8686C143.792 83.9472 143.916 84.1113 143.946 84.453L148.927 84.0173ZM142.119 78.6874C137.573 79.085 134.722 82.8196 135.042 86.4818L140.023 86.046C139.953 85.2433 140.65 83.8349 142.554 83.6683L142.119 78.6874ZM135.042 86.4818C135.171 87.9611 135.819 89.4462 137.116 90.4991C138.419 91.5564 140.111 91.9639 141.933 91.8045L141.497 86.8235C140.674 86.8955 140.354 86.6875 140.267 86.6167C140.174 86.5415 140.053 86.3858 140.023 86.046L135.042 86.4818ZM191.329 58.6451L193.711 59.4035L193.714 59.3945L191.329 58.6451ZM201.804 56.4789L199.448 55.6436L199.425 55.7087L199.405 55.7749L201.804 56.4789ZM194.552 81.1921L196.901 82.0461L196.928 81.9718L196.95 81.8961L194.552 81.1921ZM203.268 85.5951L201.041 84.4599L201.041 84.4599L203.268 85.5951ZM207.17 87.3367L209.475 88.3048L209.475 88.3038L207.17 87.3367ZM183.027 98.0306L185.525 98.1418L185.652 95.2914L182.809 95.5401L183.027 98.0306ZM182.697 98.0595L182.479 95.569L180.948 95.7029L180.376 97.1292L182.697 98.0595ZM170.305 108.798C167.782 109.019 166.113 108.215 164.947 106.881C163.69 105.443 162.822 103.149 162.56 100.154L157.58 100.59C157.896 104.211 158.989 107.661 161.181 110.17C163.464 112.783 166.732 114.13 170.741 113.779L170.305 108.798ZM162.56 100.154C162.061 94.4455 163.129 87.3531 165.95 81.6201C168.761 75.9075 173.092 71.9151 179.031 71.3955L178.595 66.4146C170.312 67.1392 164.736 72.7618 161.464 79.4125C158.201 86.0428 157.008 94.0619 157.58 100.59L162.56 100.154ZM179.031 71.3955C181.715 71.1607 182.718 71.8354 183.29 72.3056C183.481 72.4625 183.659 72.6306 183.877 72.8409C184.068 73.0254 184.352 73.3062 184.645 73.5498C185.294 74.0906 186.338 74.7554 187.812 74.6265L187.376 69.6455C187.774 69.6107 188.011 69.8463 187.845 69.7085C187.731 69.6128 187.606 69.492 187.353 69.2467C187.126 69.0272 186.824 68.7374 186.465 68.4425C184.838 67.1055 182.525 66.0707 178.595 66.4146L179.031 71.3955ZM187.812 74.6265C188.806 74.5395 189.529 74.0041 189.977 73.4398C190.368 72.9474 190.583 72.4007 190.713 72.008C190.973 71.2255 191.166 70.1695 191.362 69.1123C191.776 66.8726 192.357 63.6588 193.711 59.4035L188.947 57.8867C187.491 62.459 186.865 65.9328 186.445 68.2027C186.224 69.4003 186.093 70.0546 185.968 70.4332C185.905 70.621 185.912 70.5176 186.061 70.3306C186.267 70.0716 186.712 69.7036 187.376 69.6455L187.812 74.6265ZM193.714 59.3945C194.896 55.6349 196.102 53.6474 197.09 52.603C197.995 51.6471 198.766 51.4225 199.44 51.3635L199.005 46.3825C197.198 46.5405 195.261 47.2611 193.458 49.1665C191.739 50.9834 190.239 53.7735 188.944 57.8957L193.714 59.3945ZM199.44 51.3635C199.583 51.351 199.672 51.3621 199.717 51.3718C199.74 51.3767 199.755 51.3816 199.762 51.3845C199.769 51.3874 199.773 51.3895 199.774 51.3902C199.775 51.3909 199.777 51.3923 199.781 51.3957C199.785 51.3992 199.793 51.4068 199.804 51.4211C199.826 51.4492 199.868 51.5121 199.913 51.6297C200.115 52.1632 200.222 53.4592 199.448 55.6436L204.161 57.3143C205.124 54.5976 205.387 51.964 204.588 49.8565C204.172 48.7606 203.455 47.7894 202.408 47.1406C201.364 46.4933 200.175 46.2801 199.005 46.3825L199.44 51.3635ZM199.405 55.7749L192.153 80.4881L196.95 81.8961L204.203 57.1829L199.405 55.7749ZM192.202 80.3381C191.014 83.6059 190.503 86.6311 191.215 88.986C191.598 90.2527 192.355 91.3773 193.556 92.1039C194.723 92.8098 196.051 92.9853 197.323 92.874L196.887 87.893C196.341 87.9408 196.155 87.8322 196.145 87.8261C196.138 87.8223 196.131 87.8179 196.114 87.7955C196.095 87.7688 196.048 87.6946 196.001 87.5397C195.774 86.7898 195.806 85.0602 196.901 82.0461L192.202 80.3381ZM197.323 92.874C201.295 92.5265 203.843 89.9733 205.496 86.7303L201.041 84.4599C199.849 86.7981 198.538 87.7486 196.887 87.893L197.323 92.874ZM205.496 86.7303C205.458 86.8053 205.366 86.9371 205.199 87.0536C205.035 87.1677 204.872 87.2155 204.759 87.2308C204.653 87.245 204.6 87.231 204.608 87.2329C204.615 87.2345 204.652 87.2446 204.708 87.2741C204.763 87.3032 204.813 87.339 204.851 87.3727C204.89 87.408 204.893 87.4205 204.876 87.3934C204.86 87.3683 204.801 87.2642 204.773 87.0808C204.742 86.8811 204.757 86.6256 204.865 86.3696L209.475 88.3038C210.058 86.9144 209.649 85.6043 209.127 84.7605C208.607 83.9216 207.839 83.2744 207.048 82.8555C206.266 82.4412 205.218 82.1239 204.092 82.2755C202.841 82.4439 201.695 83.1767 201.041 84.4599L205.496 86.7303ZM204.865 86.3685C203.042 90.7085 201.514 95.6291 199.164 99.9238C196.831 104.186 194.249 106.704 190.976 106.99L191.412 111.971C197.318 111.454 201.034 106.922 203.55 102.324C206.048 97.7587 207.919 92.009 209.475 88.3048L204.865 86.3685ZM190.976 106.99C189.29 107.137 188.012 106.479 187.067 105.111C186.049 103.639 185.386 101.252 185.525 98.1418L180.53 97.9194C180.359 101.751 181.134 105.321 182.954 107.954C184.846 110.691 187.807 112.286 191.412 111.971L190.976 106.99ZM182.809 95.5401L182.479 95.569L182.914 100.55L183.245 100.521L182.809 95.5401ZM180.376 97.1292C179.04 100.462 177.385 103.39 175.561 105.493C173.715 107.622 171.92 108.657 170.305 108.798L170.741 113.779C174.17 113.479 177.06 111.396 179.338 108.769C181.639 106.117 183.549 102.651 185.017 98.9898L180.376 97.1292ZM176.768 96.0054C179.757 95.7439 182.032 93.9724 183.451 91.901C184.853 89.8548 185.596 87.2794 185.389 84.9098L180.408 85.3456C180.504 86.4487 180.141 87.8861 179.326 89.0749C178.529 90.2385 177.477 90.9242 176.332 91.0244L176.768 96.0054ZM185.389 84.9098C185.246 83.2776 184.64 81.5507 183.247 80.2821C181.815 78.9787 179.891 78.4655 177.749 78.6528L178.185 83.6338C179.268 83.5391 179.705 83.8191 179.88 83.979C180.094 84.1736 180.341 84.5799 180.408 85.3456L185.389 84.9098ZM177.749 78.6528C174.826 78.9086 172.595 80.591 171.202 82.6553C169.829 84.6918 169.159 87.2424 169.369 89.644L174.35 89.2082C174.242 87.9717 174.601 86.5582 175.347 85.4514C176.075 84.3725 177.057 83.7325 178.185 83.6338L177.749 78.6528ZM169.369 89.644C169.505 91.1996 170.03 92.9277 171.334 94.2368C172.709 95.6175 174.61 96.1942 176.768 96.0054L176.332 91.0244C175.348 91.1105 175.009 90.8418 174.877 90.7088C174.673 90.5042 174.424 90.0505 174.35 89.2082L169.369 89.644ZM244.335 82.0022L242.175 80.744L242.169 80.7552L242.162 80.7664L244.335 82.0022ZM248.237 83.7438L245.896 82.8658L245.894 82.8713L248.237 83.7438ZM230.366 104.22L232.42 102.795L229.143 98.0715L227.923 103.689L230.366 104.22ZM202.516 106.824L204.972 106.359L202.516 106.824ZM211.722 113.017L211.476 110.529L211.464 110.53L211.722 113.017ZM224.725 96.882L227.224 96.9462L227.224 96.9183L227.225 96.8905L224.725 96.882ZM222.395 96.9192L224.786 97.648L224.788 97.6419L222.395 96.9192ZM203.241 85.5975L200.8 85.0569L200.799 85.0651L200.797 85.0733L203.241 85.5975ZM224.648 81.725L227.076 82.3213L227.084 82.2912L227.09 82.2609L224.648 81.725ZM234.252 83.8842L231.822 83.2961L231.809 83.3525L231.797 83.4095L234.252 83.8842ZM246.496 83.2604C246.359 83.4958 246.173 83.653 246.015 83.7429C245.868 83.8259 245.764 83.8419 245.744 83.8445C245.722 83.8474 245.741 83.8424 245.799 83.8505C245.854 83.8583 245.919 83.8748 245.982 83.8995C246.047 83.9245 246.085 83.9488 246.099 83.9586C246.115 83.9697 246.076 83.9463 246.02 83.8674C245.961 83.7831 245.88 83.6308 245.847 83.4171C245.813 83.1942 245.846 82.9986 245.896 82.8658L250.578 84.6218C251.085 83.2688 250.793 81.9577 250.106 80.9845C249.483 80.1027 248.595 79.5514 247.799 79.2412C246.993 78.9268 246.037 78.7622 245.088 78.8877C244.143 79.0128 242.907 79.4878 242.175 80.744L246.496 83.2604ZM245.894 82.8713C243.868 88.3109 242.271 93.3487 240.167 97.2567C238.076 101.14 235.922 103.058 233.201 103.296L233.637 108.277C238.936 107.813 242.234 103.963 244.569 99.6273C246.891 95.3162 248.693 89.6837 250.58 84.6163L245.894 82.8713ZM233.201 103.296C233.044 103.309 232.95 103.282 232.869 103.24C232.775 103.191 232.612 103.073 232.42 102.795L228.311 105.645C229.489 107.343 231.346 108.477 233.637 108.277L233.201 103.296ZM227.923 103.689C226.041 112.347 223.892 118.02 221.295 121.593C218.817 125.003 215.898 126.555 212.02 126.895L212.456 131.875C217.755 131.412 221.999 129.13 225.34 124.532C228.563 120.097 230.888 113.59 232.809 104.751L227.923 103.689ZM212.02 126.895C208.088 127.238 205.241 126.391 203.342 124.883C201.462 123.391 200.182 120.992 199.882 117.552L194.901 117.988C195.294 122.486 197.056 126.278 200.234 128.8C203.394 131.308 207.623 132.298 212.456 131.875L212.02 126.895ZM199.882 117.552C199.565 113.93 200.605 111.371 201.602 109.963C202.128 109.218 202.553 108.917 202.644 108.869C202.74 108.819 202.403 109.039 201.807 108.95C201.45 108.897 201.007 108.728 200.63 108.35C200.262 107.982 200.112 107.57 200.059 107.288L204.972 106.359C204.88 105.872 204.651 105.301 204.167 104.817C203.676 104.325 203.082 104.085 202.545 104.005C201.589 103.862 200.774 104.203 200.317 104.443C199.302 104.977 198.327 105.934 197.519 107.076C195.846 109.442 194.48 113.176 194.901 117.988L199.882 117.552ZM200.059 107.288C200.553 109.897 201.892 112.179 204.05 113.7C206.201 115.215 208.942 115.819 211.98 115.503L211.464 110.53C209.384 110.746 207.909 110.302 206.93 109.612C205.958 108.928 205.254 107.848 204.972 106.359L200.059 107.288ZM211.969 115.504C220.831 114.628 226.993 105.934 227.224 96.9462L222.225 96.8179C222.04 104.03 217.152 109.967 211.476 110.529L211.969 115.504ZM227.225 96.8905C227.229 95.4576 226.458 93.0595 223.948 92.9149C221.649 92.7824 220.427 94.7872 220.002 96.1966L224.788 97.6419C224.865 97.3892 224.914 97.4078 224.792 97.5284C224.666 97.6539 224.279 97.9423 223.661 97.9066C223.013 97.8693 222.577 97.5024 222.379 97.2073C222.2 96.9407 222.225 96.7761 222.225 96.8735L227.225 96.8905ZM220.004 96.1904C218.465 101.238 215.388 104.021 211.3 104.379L211.736 109.36C218.396 108.777 222.829 104.071 224.786 97.648L220.004 96.1904ZM211.3 104.379C209.585 104.529 208.176 104.115 207.166 103.267C206.167 102.43 205.258 100.915 205.027 98.2721L200.046 98.7079C200.364 102.348 201.713 105.219 203.952 107.098C206.178 108.966 208.985 109.6 211.736 109.36L211.3 104.379ZM205.027 98.2721C204.819 95.9001 204.577 91.2901 205.686 86.1216L200.797 85.0733C199.538 90.9432 199.819 96.1188 200.046 98.7079L205.027 98.2721ZM205.682 86.1381C207.043 79.9916 208.481 75.4108 210.056 72.3685C211.679 69.2355 213.077 68.4169 214.062 68.3307L213.626 63.3498C209.981 63.6687 207.451 66.5264 205.616 70.0695C203.735 73.7034 202.187 78.7987 200.8 85.0569L205.682 86.1381ZM214.062 68.3307C214.258 68.3136 214.293 68.3423 214.234 68.3222C214.155 68.2956 214.067 68.2376 214.01 68.1734C213.967 68.1252 214.001 68.1394 214.055 68.3031C214.111 68.4696 214.171 68.738 214.206 69.1412L219.187 68.7055C219.075 67.4283 218.741 65.9743 217.753 64.8585C216.637 63.5982 215.109 63.22 213.626 63.3498L214.062 68.3307ZM214.206 69.1412C214.398 71.3354 213.836 73.7307 213.12 76.5539C212.457 79.1684 211.609 82.3091 211.867 85.2594L216.848 84.8237C216.679 82.8956 217.236 80.6645 217.966 77.7831C218.644 75.1104 219.465 71.8858 219.187 68.7055L214.206 69.1412ZM211.867 85.2594C211.982 86.5785 212.317 88.2269 213.524 89.4581C214.833 90.7931 216.611 91.1032 218.373 90.949L217.938 85.968C217.457 86.0101 217.204 85.9682 217.1 85.9398C217.022 85.9185 217.051 85.9132 217.094 85.9573C217.124 85.9881 217.081 85.9635 217.019 85.7798C216.953 85.5863 216.888 85.2826 216.848 84.8237L211.867 85.2594ZM218.373 90.949C220.76 90.7402 222.738 89.8054 224.242 88.1602C225.683 86.585 226.534 84.5289 227.076 82.3213L222.22 81.1287C221.78 82.923 221.203 84.0745 220.553 84.786C219.966 85.4275 219.189 85.8586 217.938 85.968L218.373 90.949ZM227.09 82.2609C228.299 76.7522 229.573 72.6909 230.968 70.0129C232.401 67.2622 233.604 66.621 234.402 66.5512L233.966 61.5702C230.547 61.8694 228.204 64.4961 226.533 67.7033C224.825 70.9832 223.44 75.5696 222.206 81.1891L227.09 82.2609ZM234.402 66.5512C235.325 66.4704 235.528 66.6558 235.492 66.6281C235.409 66.5641 235.65 66.65 235.733 67.5912L240.714 67.1554C240.564 65.4506 239.985 63.7754 238.54 62.6641C237.141 61.5891 235.441 61.4412 233.966 61.5702L234.402 66.5512ZM235.733 67.5912C235.838 68.7915 235.518 70.3361 234.733 73.0014C233.985 75.5448 232.882 78.9187 231.822 83.2961L236.682 84.4723C237.703 80.2527 238.737 77.1074 239.53 74.4128C240.287 71.8401 240.912 69.4278 240.714 67.1554L235.733 67.5912ZM231.797 83.4095C231.295 86.0067 231.377 88.2927 232.389 90.0049C233.531 91.9385 235.472 92.5358 237.162 92.3879L236.726 87.4069C236.587 87.4191 236.566 87.392 236.614 87.414C236.687 87.4463 236.712 87.4938 236.693 87.4611C236.605 87.3115 236.291 86.5078 236.707 84.3589L231.797 83.4095ZM237.162 92.3879C238.391 92.2804 239.458 91.7307 240.307 91.1222C241.171 90.5033 241.967 89.7102 242.682 88.8778C244.11 87.2141 245.429 85.1359 246.509 83.238L242.162 80.7664C241.147 82.5511 240.012 84.3119 238.888 85.621C238.327 86.2749 237.823 86.7516 237.395 87.058C237.186 87.2081 237.02 87.2989 236.899 87.3509C236.78 87.4024 236.725 87.4071 236.726 87.4069L237.162 92.3879Z" fill="#4F453E" mask="url(#path-2-outside-1_17_20)"/>
<mask id="path-4-outside-2_17_20" maskUnits="userSpaceOnUse" x="113.97" y="101.621" width="185.503" height="86.4179" fill="black">
<rect fill="white" x="113.97" y="101.621" width="185.503" height="86.4179"/>
<path d="M141.697 183.631C130.865 184.579 122.011 178.605 120.897 165.871C119.761 152.89 127.653 147.867 132.532 147.44C134.599 147.259 135.994 147.97 136.103 149.21C136.269 151.112 133.39 151.531 133.788 156.078C134.178 160.543 136.987 163.13 141.287 162.754C145.256 162.407 147.821 159.35 147.467 155.298C146.91 148.932 138.023 143.544 137.148 133.539C136.482 125.932 140.807 118.222 151.804 117.259C161.478 116.413 165.705 121.875 166.226 127.829C166.66 132.79 164.171 137.673 159.909 140.379C159.039 141.872 155.163 139.461 156.19 137.872C157.587 135.75 157.57 129.836 152.857 130.248C150.128 130.487 147.875 132.35 148.237 136.485C148.633 143.865 159.77 150.223 160.681 160.641C161.759 172.961 153.852 182.568 141.697 183.631ZM170.628 177.6C166.742 177.94 164.368 175.565 164.064 172.093C163.724 168.206 164.03 162.181 165.339 155.234C167.221 145.322 170.567 135.947 173.626 135.68C175.859 135.484 176.485 136.929 176.63 138.583C176.912 141.808 178.652 142.655 181.067 139.778C183.866 136.533 187.021 134.508 190.659 134.189C195.703 133.748 198.405 137.011 198.766 141.145C199.15 145.528 196.735 148.405 197.097 152.539C197.343 155.35 198.699 156.565 201.427 156.326C203.908 156.109 205.327 154.235 206.764 151.61C207.913 149.51 211.437 151.701 210.665 153.352C208.417 158.131 204.198 174.663 193.036 175.64C187.827 176.096 185.66 172.286 185.255 167.656C184.706 161.372 187.694 155.528 187.397 152.138C187.231 150.236 185.904 149.353 184.002 149.519C179.206 149.939 175.672 157.163 176.316 164.522L176.642 168.243C177.011 172.46 176.334 177.101 170.628 177.6ZM215.607 173.665C209.984 174.157 206.642 169.284 205.998 161.925C204.992 150.432 210.584 132.446 224.806 131.202C231.421 130.623 231.365 133.794 233.514 133.606C236.243 133.367 236.547 130.175 240.433 129.835C242.583 129.647 243.436 130.822 243.595 132.641C243.87 135.783 241.944 138.534 240.545 143.489C238.261 149.771 239.46 152.999 243.098 152.68C245.91 152.434 247.839 150.683 249.261 147.892C250.328 145.799 253.853 147.99 253.163 149.634C249.784 157.678 246.365 170.974 237.187 171.777C231.482 172.276 228.628 167.277 229.02 160.328L228.69 160.356C225.968 167.343 221.477 173.152 215.607 173.665ZM222.378 155.826C226.677 155.45 229.195 150.897 228.891 147.425C228.653 144.696 226.854 143.187 224.208 143.419C219.909 143.795 217.535 148.085 217.853 151.723C218.099 154.534 219.814 156.051 222.378 155.826ZM262.021 124.53C258.052 124.877 254.614 123.678 254.231 119.296C253.717 113.426 257.286 111.364 261.834 110.966C266.051 110.597 269.578 111.871 269.613 117.034C269.566 122.204 266.32 124.154 262.021 124.53ZM256.756 170.065C251.216 170.55 248.751 166.183 248.245 160.395C247.905 156.509 248.341 151.972 249.234 147.894C251.989 135.572 254.793 128.578 259.506 128.166C261.242 128.014 262.411 128.995 262.643 131.641C263.084 136.685 259.841 142.467 260.231 146.932C260.47 149.661 262.081 150.936 264.314 150.741C266.794 150.524 268.221 148.733 269.657 146.108C270.807 144.007 274.248 146.206 273.552 147.767C271.296 152.463 267.423 169.132 256.756 170.065ZM276.691 168.321C270.82 168.835 268.518 165.37 268.091 160.492C267.722 156.275 268.424 150.965 269.665 146.107C275.904 121.233 278.601 108.249 285.298 107.663C288.688 107.367 290.07 109.829 287.962 115.262C284.218 124.838 281.659 132.727 280.364 139.839C279.378 144.757 279.129 149.528 284.09 149.094C286.984 148.841 288.914 147.089 290.419 144.291C291.568 142.191 295.093 144.382 294.32 146.033C292.072 150.812 287.853 167.345 276.691 168.321Z"/>
</mask>
<path d="M141.697 183.631C130.865 184.579 122.011 178.605 120.897 165.871C119.761 152.89 127.653 147.867 132.532 147.44C134.599 147.259 135.994 147.97 136.103 149.21C136.269 151.112 133.39 151.531 133.788 156.078C134.178 160.543 136.987 163.13 141.287 162.754C145.256 162.407 147.821 159.35 147.467 155.298C146.91 148.932 138.023 143.544 137.148 133.539C136.482 125.932 140.807 118.222 151.804 117.259C161.478 116.413 165.705 121.875 166.226 127.829C166.66 132.79 164.171 137.673 159.909 140.379C159.039 141.872 155.163 139.461 156.19 137.872C157.587 135.75 157.57 129.836 152.857 130.248C150.128 130.487 147.875 132.35 148.237 136.485C148.633 143.865 159.77 150.223 160.681 160.641C161.759 172.961 153.852 182.568 141.697 183.631ZM170.628 177.6C166.742 177.94 164.368 175.565 164.064 172.093C163.724 168.206 164.03 162.181 165.339 155.234C167.221 145.322 170.567 135.947 173.626 135.68C175.859 135.484 176.485 136.929 176.63 138.583C176.912 141.808 178.652 142.655 181.067 139.778C183.866 136.533 187.021 134.508 190.659 134.189C195.703 133.748 198.405 137.011 198.766 141.145C199.15 145.528 196.735 148.405 197.097 152.539C197.343 155.35 198.699 156.565 201.427 156.326C203.908 156.109 205.327 154.235 206.764 151.61C207.913 149.51 211.437 151.701 210.665 153.352C208.417 158.131 204.198 174.663 193.036 175.64C187.827 176.096 185.66 172.286 185.255 167.656C184.706 161.372 187.694 155.528 187.397 152.138C187.231 150.236 185.904 149.353 184.002 149.519C179.206 149.939 175.672 157.163 176.316 164.522L176.642 168.243C177.011 172.46 176.334 177.101 170.628 177.6ZM215.607 173.665C209.984 174.157 206.642 169.284 205.998 161.925C204.992 150.432 210.584 132.446 224.806 131.202C231.421 130.623 231.365 133.794 233.514 133.606C236.243 133.367 236.547 130.175 240.433 129.835C242.583 129.647 243.436 130.822 243.595 132.641C243.87 135.783 241.944 138.534 240.545 143.489C238.261 149.771 239.46 152.999 243.098 152.68C245.91 152.434 247.839 150.683 249.261 147.892C250.328 145.799 253.853 147.99 253.163 149.634C249.784 157.678 246.365 170.974 237.187 171.777C231.482 172.276 228.628 167.277 229.02 160.328L228.69 160.356C225.968 167.343 221.477 173.152 215.607 173.665ZM222.378 155.826C226.677 155.45 229.195 150.897 228.891 147.425C228.653 144.696 226.854 143.187 224.208 143.419C219.909 143.795 217.535 148.085 217.853 151.723C218.099 154.534 219.814 156.051 222.378 155.826ZM262.021 124.53C258.052 124.877 254.614 123.678 254.231 119.296C253.717 113.426 257.286 111.364 261.834 110.966C266.051 110.597 269.578 111.871 269.613 117.034C269.566 122.204 266.32 124.154 262.021 124.53ZM256.756 170.065C251.216 170.55 248.751 166.183 248.245 160.395C247.905 156.509 248.341 151.972 249.234 147.894C251.989 135.572 254.793 128.578 259.506 128.166C261.242 128.014 262.411 128.995 262.643 131.641C263.084 136.685 259.841 142.467 260.231 146.932C260.47 149.661 262.081 150.936 264.314 150.741C266.794 150.524 268.221 148.733 269.657 146.108C270.807 144.007 274.248 146.206 273.552 147.767C271.296 152.463 267.423 169.132 256.756 170.065ZM276.691 168.321C270.82 168.835 268.518 165.37 268.091 160.492C267.722 156.275 268.424 150.965 269.665 146.107C275.904 121.233 278.601 108.249 285.298 107.663C288.688 107.367 290.07 109.829 287.962 115.262C284.218 124.838 281.659 132.727 280.364 139.839C279.378 144.757 279.129 149.528 284.09 149.094C286.984 148.841 288.914 147.089 290.419 144.291C291.568 142.191 295.093 144.382 294.32 146.033C292.072 150.812 287.853 167.345 276.691 168.321Z" fill="#F6F1E3"/>
<path d="M159.909 140.379L158.569 138.268L158.055 138.595L157.748 139.121L159.909 140.379ZM156.19 137.872L154.102 136.497L154.096 136.506L154.09 136.515L156.19 137.872ZM148.237 136.485L150.733 136.351L150.731 136.309L150.727 136.267L148.237 136.485ZM141.479 181.14C136.57 181.57 132.324 180.418 129.215 177.93C126.129 175.46 123.895 171.459 123.387 165.653L118.406 166.089C119.013 173.016 121.763 178.37 126.091 181.833C130.395 185.278 135.992 186.64 141.915 186.121L141.479 181.14ZM123.387 165.653C122.869 159.724 124.419 155.903 126.38 153.547C128.391 151.132 130.969 150.086 132.75 149.93L132.314 144.949C129.216 145.22 125.409 146.9 122.538 150.348C119.617 153.856 117.789 159.037 118.406 166.089L123.387 165.653ZM132.75 149.93C133.104 149.899 133.385 149.911 133.592 149.941C133.803 149.971 133.907 150.015 133.934 150.029C133.958 150.041 133.881 150.008 133.788 149.883C133.687 149.748 133.626 149.581 133.612 149.428L138.593 148.993C138.449 147.341 137.406 146.174 136.169 145.556C135.005 144.974 133.637 144.834 132.314 144.949L132.75 149.93ZM133.612 149.428C133.59 149.171 133.71 149.004 133.646 149.104C133.596 149.182 133.52 149.286 133.366 149.485C133.23 149.659 133.024 149.919 132.823 150.201C131.879 151.525 131.039 153.348 131.297 156.296L136.278 155.861C136.138 154.261 136.539 153.601 136.894 153.104C137.018 152.93 137.14 152.776 137.311 152.556C137.464 152.36 137.674 152.088 137.864 151.788C138.282 151.133 138.699 150.201 138.593 148.993L133.612 149.428ZM131.297 156.296C131.533 158.996 132.531 161.411 134.4 163.091C136.292 164.791 138.793 165.482 141.505 165.245L141.069 160.264C139.482 160.403 138.428 159.988 137.742 159.372C137.035 158.737 136.432 157.626 136.278 155.861L131.297 156.296ZM141.505 165.245C144.094 165.018 146.364 163.885 147.92 162.014C149.475 160.144 150.186 157.697 149.957 155.08L144.976 155.516C145.102 156.951 144.707 158.058 144.076 158.817C143.446 159.574 142.449 160.143 141.069 160.264L141.505 165.245ZM149.957 155.08C149.771 152.95 148.901 151.041 147.892 149.342C146.899 147.672 145.605 145.947 144.467 144.339C142.098 140.99 140.014 137.611 139.638 133.321L134.657 133.757C135.157 139.471 137.954 143.789 140.386 147.227C141.649 149.012 142.736 150.453 143.593 151.896C144.434 153.311 144.884 154.463 144.976 155.516L149.957 155.08ZM139.638 133.321C139.352 130.043 140.15 126.877 142.063 124.459C143.947 122.077 147.104 120.18 152.022 119.75L151.586 114.769C145.507 115.301 141.003 117.74 138.142 121.356C135.31 124.935 134.279 129.427 134.657 133.757L139.638 133.321ZM152.022 119.75C156.349 119.371 159.108 120.42 160.818 121.89C162.552 123.381 163.519 125.573 163.735 128.047L168.716 127.611C168.412 124.131 167.005 120.615 164.077 118.098C161.124 115.56 156.932 114.301 151.586 114.769L152.022 119.75ZM163.735 128.047C164.085 132.044 162.072 136.045 158.569 138.268L161.248 142.49C166.27 139.302 169.235 133.536 168.716 127.611L163.735 128.047ZM157.748 139.121C157.835 138.972 157.953 138.827 158.102 138.702C158.248 138.579 158.401 138.494 158.54 138.439C158.806 138.334 158.997 138.347 159.033 138.35C159.077 138.354 159.056 138.358 158.973 138.326C158.895 138.296 158.798 138.248 158.697 138.183C158.595 138.117 158.513 138.049 158.455 137.991C158.394 137.93 158.39 137.909 158.41 137.946C158.429 137.981 158.506 138.134 158.517 138.388C158.522 138.519 158.51 138.666 158.469 138.821C158.428 138.976 158.364 139.114 158.29 139.229L154.09 136.515C153.178 137.927 153.509 139.404 154.021 140.341C154.509 141.235 155.269 141.92 155.979 142.38C156.689 142.839 157.612 143.245 158.599 143.331C159.598 143.418 161.178 143.168 162.069 141.637L157.748 139.121ZM158.278 139.247C158.888 138.319 159.24 137.17 159.396 136.082C159.556 134.969 159.54 133.715 159.242 132.509C158.944 131.307 158.324 130.003 157.152 129.038C155.933 128.033 154.372 127.606 152.639 127.758L153.075 132.739C153.698 132.684 153.907 132.842 153.972 132.896C154.086 132.99 154.267 133.22 154.388 133.71C154.508 134.197 154.53 134.793 154.447 135.373C154.36 135.978 154.19 136.363 154.102 136.497L158.278 139.247ZM152.639 127.758C150.783 127.92 148.863 128.66 147.482 130.288C146.087 131.932 145.523 134.149 145.746 136.702L150.727 136.267C150.589 134.686 150.971 133.904 151.294 133.523C151.631 133.126 152.202 132.815 153.075 132.739L152.639 127.758ZM145.74 136.618C145.872 139.067 146.883 141.27 148.095 143.225C149.297 145.162 150.866 147.113 152.288 148.952C155.26 152.798 157.806 156.463 158.191 160.859L163.172 160.423C162.645 154.4 159.167 149.677 156.244 145.895C154.718 143.92 153.372 142.246 152.345 140.59C151.329 138.952 150.8 137.592 150.733 136.351L145.74 136.618ZM158.191 160.859C159.152 171.842 152.219 180.201 141.479 181.14L141.915 186.121C155.484 184.934 164.367 174.079 163.172 160.423L158.191 160.859ZM165.339 155.234L162.883 154.768L162.882 154.772L165.339 155.234ZM181.067 139.778L179.174 138.145L179.163 138.158L179.152 138.171L181.067 139.778ZM206.764 151.61L208.957 152.81L208.957 152.81L206.764 151.61ZM210.665 153.352L212.928 154.416L212.93 154.411L210.665 153.352ZM170.411 175.11C169.038 175.23 168.182 174.865 167.657 174.401C167.111 173.92 166.662 173.102 166.555 171.875L161.574 172.31C161.77 174.556 162.661 176.662 164.349 178.151C166.058 179.658 168.333 180.311 170.846 180.091L170.411 175.11ZM166.555 171.875C166.24 168.277 166.516 162.488 167.796 155.697L162.882 154.772C161.544 161.873 161.209 168.136 161.574 172.31L166.555 171.875ZM167.795 155.701C168.717 150.844 169.986 146.191 171.361 142.773C172.053 141.051 172.728 139.754 173.333 138.917C174.037 137.941 174.244 138.135 173.844 138.17L173.408 133.189C171.479 133.358 170.121 134.824 169.278 135.991C168.336 137.296 167.484 139.013 166.722 140.907C165.188 144.721 163.843 149.711 162.883 154.768L167.795 155.701ZM173.844 138.17C174.13 138.145 174.214 138.186 174.177 138.173C174.12 138.152 174.043 138.101 173.992 138.04C173.956 137.997 173.983 138.01 174.027 138.149C174.071 138.29 174.113 138.502 174.139 138.801L179.12 138.365C179.034 137.382 178.782 135.976 177.83 134.836C176.735 133.524 175.139 133.038 173.408 133.189L173.844 138.17ZM174.139 138.801C174.226 139.79 174.436 140.78 174.86 141.64C175.287 142.506 176.039 143.437 177.264 143.842C178.503 144.252 179.685 143.945 180.586 143.456C181.47 142.977 182.266 142.238 182.982 141.385L179.152 138.171C178.915 138.453 178.71 138.66 178.542 138.809C178.372 138.958 178.258 139.031 178.203 139.06C178.149 139.09 178.184 139.061 178.301 139.043C178.361 139.034 178.44 139.028 178.535 139.035C178.63 139.042 178.731 139.061 178.833 139.095C178.935 139.129 179.026 139.173 179.104 139.222C179.181 139.271 179.239 139.32 179.279 139.36C179.358 139.437 179.369 139.478 179.345 139.429C179.321 139.381 179.277 139.274 179.232 139.087C179.187 138.903 179.146 138.664 179.12 138.365L174.139 138.801ZM182.96 141.411C185.499 138.468 188.103 136.923 190.877 136.68L190.441 131.699C185.939 132.093 182.232 134.599 179.174 138.145L182.96 141.411ZM190.877 136.68C192.787 136.513 193.988 137.047 194.751 137.768C195.559 138.532 196.135 139.756 196.276 141.363L201.257 140.927C201.036 138.401 200.08 135.926 198.186 134.135C196.247 132.302 193.575 131.425 190.441 131.699L190.877 136.68ZM196.276 141.363C196.423 143.042 196.05 144.45 195.536 146.247C195.041 147.978 194.379 150.162 194.606 152.757L199.587 152.321C199.453 150.782 199.817 149.461 200.343 147.623C200.85 145.852 201.493 143.631 201.257 140.927L196.276 141.363ZM194.606 152.757C194.756 154.471 195.284 156.225 196.68 157.454C198.102 158.704 199.917 158.968 201.645 158.817L201.21 153.836C200.209 153.923 199.982 153.699 199.982 153.699C199.957 153.677 199.683 153.419 199.587 152.321L194.606 152.757ZM201.645 158.817C205.553 158.475 207.533 155.412 208.957 152.81L204.571 150.41C203.121 153.059 202.263 153.744 201.21 153.836L201.645 158.817ZM208.957 152.81C208.922 152.873 208.839 152.987 208.689 153.088C208.542 153.187 208.398 153.229 208.298 153.242C208.205 153.255 208.159 153.242 208.169 153.245C208.178 153.246 208.214 153.256 208.265 153.284C208.316 153.311 208.36 153.343 208.39 153.37C208.422 153.399 208.416 153.402 208.392 153.362C208.369 153.323 208.306 153.203 208.283 153.004C208.258 152.788 208.288 152.533 208.401 152.292L212.93 154.411C213.573 153.037 213.219 151.701 212.694 150.814C212.181 149.947 211.403 149.288 210.605 148.865C209.811 148.445 208.761 148.136 207.636 148.286C206.401 148.451 205.256 149.157 204.571 150.41L208.957 152.81ZM208.403 152.288C207.798 153.573 207.034 155.707 206.208 157.793C205.337 159.992 204.298 162.415 203.015 164.696C200.374 169.387 197.097 172.775 192.818 173.15L193.254 178.131C200.137 177.528 204.55 172.162 207.372 167.148C208.82 164.576 209.955 161.909 210.856 159.634C211.802 157.245 212.408 155.519 212.928 154.416L208.403 152.288ZM192.818 173.15C190.942 173.314 189.923 172.736 189.255 171.943C188.476 171.019 187.925 169.49 187.746 167.438L182.765 167.874C182.99 170.451 183.726 173.142 185.433 175.167C187.252 177.323 189.92 178.422 193.254 178.131L192.818 173.15ZM187.746 167.438C187.509 164.726 188.03 162.03 188.662 159.395C188.964 158.14 189.319 156.787 189.559 155.611C189.8 154.434 189.994 153.142 189.888 151.92L184.907 152.356C184.948 152.83 184.88 153.539 184.661 154.608C184.442 155.677 184.14 156.813 183.8 158.228C183.151 160.934 182.452 164.302 182.765 167.874L187.746 167.438ZM189.888 151.92C189.755 150.4 189.111 148.988 187.84 148.045C186.617 147.138 185.142 146.91 183.784 147.028L184.22 152.009C184.764 151.962 184.903 152.092 184.861 152.061C184.839 152.045 184.831 152.028 184.837 152.04C184.847 152.059 184.889 152.15 184.907 152.356L189.888 151.92ZM183.784 147.028C180.142 147.347 177.468 150.16 175.887 153.292C174.262 156.511 173.466 160.626 173.826 164.74L178.807 164.304C178.523 161.059 179.171 157.882 180.351 155.545C181.575 153.12 183.066 152.11 184.22 152.009L183.784 147.028ZM173.826 164.74L174.151 168.461L179.132 168.025L178.807 164.304L173.826 164.74ZM174.151 168.461C174.325 170.45 174.197 172.109 173.657 173.238C173.235 174.122 172.459 174.931 170.411 175.11L170.846 180.091C174.503 179.771 176.919 178.009 178.169 175.394C179.302 173.023 179.327 170.253 179.132 168.025L174.151 168.461ZM240.545 143.489L242.894 144.343L242.926 144.257L242.95 144.169L240.545 143.489ZM249.261 147.892L247.034 146.757L247.034 146.757L249.261 147.892ZM253.163 149.634L255.468 150.602L255.468 150.601L253.163 149.634ZM229.02 160.328L231.516 160.468L231.679 157.585L228.802 157.837L229.02 160.328ZM228.69 160.356L228.472 157.866L226.924 158.001L226.36 159.449L228.69 160.356ZM215.389 171.175C213.471 171.343 212.036 170.65 210.907 169.202C209.691 167.642 208.786 165.113 208.488 161.707L203.507 162.143C203.853 166.096 204.942 169.683 206.964 172.276C209.073 174.982 212.12 176.48 215.825 176.156L215.389 171.175ZM208.488 161.707C208.023 156.392 209.097 149.489 211.927 143.84C214.746 138.211 219.08 134.213 225.024 133.692L224.588 128.712C216.31 129.436 210.737 135.052 207.456 141.601C204.186 148.128 202.967 155.965 203.507 162.143L208.488 161.707ZM225.024 133.692C227.865 133.444 228.934 134.007 229.48 134.359C229.661 134.476 229.829 134.601 230.041 134.762C230.226 134.903 230.513 135.128 230.809 135.321C231.5 135.773 232.456 136.208 233.732 136.097L233.297 131.116C233.498 131.098 233.654 131.207 233.545 131.136C233.44 131.067 233.327 130.981 233.076 130.789C232.851 130.617 232.549 130.388 232.189 130.156C230.572 129.115 228.361 128.381 224.588 128.712L225.024 133.692ZM233.732 136.097C236.158 135.884 237.584 134.224 238.275 133.558C239.022 132.838 239.553 132.421 240.651 132.325L240.215 127.344C237.428 127.588 235.863 128.938 234.804 129.959C233.689 131.034 233.599 131.089 233.297 131.116L233.732 136.097ZM240.651 132.325C240.955 132.299 241.09 132.332 241.112 132.338C241.117 132.34 241.06 132.319 241 132.26C240.949 132.21 240.96 132.194 240.995 132.285C241.031 132.383 241.078 132.565 241.104 132.859L246.085 132.423C245.982 131.239 245.622 129.802 244.521 128.71C243.343 127.542 241.775 127.208 240.215 127.344L240.651 132.325ZM241.104 132.859C241.191 133.851 240.95 134.886 240.35 136.526C239.783 138.075 238.872 140.212 238.139 142.809L242.95 144.169C243.616 141.811 244.368 140.095 245.045 138.244C245.689 136.485 246.273 134.573 246.085 132.423L241.104 132.859ZM238.195 142.635C237.007 145.903 236.496 148.928 237.208 151.283C237.591 152.55 238.348 153.674 239.549 154.401C240.716 155.107 242.044 155.282 243.316 155.171L242.88 150.19C242.334 150.238 242.148 150.129 242.138 150.123C242.131 150.119 242.124 150.115 242.107 150.092C242.088 150.066 242.041 149.992 241.994 149.837C241.767 149.087 241.799 147.357 242.894 144.343L238.195 142.635ZM243.316 155.171C247.288 154.823 249.836 152.27 251.489 149.027L247.034 146.757C245.842 149.095 244.531 150.046 242.88 150.19L243.316 155.171ZM251.489 149.027C251.451 149.102 251.359 149.234 251.192 149.351C251.028 149.465 250.865 149.512 250.752 149.528C250.646 149.542 250.593 149.528 250.601 149.53C250.608 149.531 250.645 149.542 250.701 149.571C250.756 149.6 250.806 149.636 250.844 149.67C250.883 149.705 250.886 149.717 250.869 149.69C250.853 149.665 250.794 149.561 250.766 149.378C250.735 149.178 250.75 148.923 250.858 148.667L255.468 150.601C256.051 149.211 255.642 147.901 255.12 147.057C254.6 146.219 253.832 145.571 253.041 145.152C252.259 144.738 251.211 144.421 250.085 144.572C248.834 144.741 247.688 145.474 247.034 146.757L251.489 149.027ZM250.858 148.665C249.035 153.005 247.507 157.926 245.157 162.221C242.824 166.483 240.242 169 236.969 169.287L237.405 174.268C243.311 173.751 247.027 169.219 249.543 164.621C252.041 160.056 253.912 154.306 255.468 150.602L250.858 148.665ZM236.969 169.287C235.018 169.458 233.761 168.747 232.894 167.454C231.927 166.01 231.338 163.631 231.516 160.468L226.524 160.187C226.311 163.974 226.953 167.569 228.74 170.237C230.629 173.056 233.651 174.596 237.405 174.268L236.969 169.287ZM228.802 157.837L228.472 157.866L228.907 162.847L229.238 162.818L228.802 157.837ZM226.36 159.449C225.073 162.753 223.413 165.653 221.489 167.746C219.57 169.833 217.519 170.988 215.389 171.175L215.825 176.156C219.565 175.829 222.694 173.823 225.17 171.13C227.639 168.444 229.584 164.947 231.019 161.264L226.36 159.449ZM222.596 158.317C225.636 158.051 227.956 156.305 229.412 154.216C230.845 152.161 231.589 149.578 231.382 147.207L226.401 147.643C226.497 148.744 226.134 150.174 225.31 151.357C224.508 152.507 223.419 153.226 222.16 153.336L222.596 158.317ZM231.382 147.207C231.218 145.337 230.487 143.611 229.073 142.408C227.655 141.201 225.839 140.766 223.99 140.928L224.426 145.909C225.223 145.839 225.63 146.043 225.832 146.216C226.038 146.391 226.326 146.783 226.401 147.643L231.382 147.207ZM223.99 140.928C217.904 141.461 214.963 147.379 215.362 151.941L220.343 151.505C220.106 148.791 221.914 146.129 224.426 145.909L223.99 140.928ZM215.362 151.941C215.525 153.799 216.205 155.539 217.573 156.771C218.964 158.023 220.762 158.477 222.596 158.317L222.16 153.336C221.43 153.4 221.089 153.208 220.919 153.055C220.727 152.882 220.427 152.459 220.343 151.505L215.362 151.941ZM269.613 117.034L272.113 117.057L272.113 117.037L272.113 117.017L269.613 117.034ZM249.234 147.894L246.795 147.349L246.792 147.36L249.234 147.894ZM269.657 146.108L267.464 144.907L267.464 144.907L269.657 146.108ZM273.552 147.767L275.805 148.849L275.82 148.817L275.835 148.786L273.552 147.767ZM261.803 122.04C260.062 122.192 258.8 121.962 258.024 121.518C257.408 121.164 256.85 120.546 256.721 119.078L251.74 119.514C251.995 122.428 253.348 124.601 255.538 125.856C257.57 127.02 260.011 127.216 262.239 127.021L261.803 122.04ZM256.721 119.078C256.514 116.706 257.14 115.557 257.837 114.909C258.646 114.157 260.024 113.634 262.052 113.456L261.616 108.475C259.096 108.696 256.416 109.402 254.432 111.248C252.336 113.198 251.434 116.016 251.74 119.514L256.721 119.078ZM262.052 113.456C263.941 113.291 265.205 113.551 265.93 114.022C266.473 114.375 267.1 115.092 267.113 117.051L272.113 117.017C272.091 113.813 270.937 111.312 268.653 109.829C266.551 108.464 263.944 108.272 261.616 108.475L262.052 113.456ZM267.113 117.011C267.095 119.034 266.48 120.075 265.769 120.695C264.972 121.389 263.684 121.875 261.803 122.04L262.239 127.021C264.657 126.809 267.141 126.131 269.054 124.464C271.053 122.722 272.084 120.204 272.113 117.057L267.113 117.011ZM256.538 167.575C254.578 167.746 253.413 167.104 252.583 166.042C251.634 164.829 250.969 162.843 250.736 160.177L245.755 160.613C246.028 163.736 246.848 166.827 248.644 169.122C250.558 171.57 253.395 172.869 256.974 172.556L256.538 167.575ZM250.736 160.177C250.423 156.604 250.823 152.327 251.676 148.429L246.792 147.36C245.86 151.616 245.387 156.414 245.755 160.613L250.736 160.177ZM251.674 148.44C253.047 142.299 254.386 137.719 255.881 134.663C257.417 131.525 258.736 130.743 259.724 130.657L259.288 125.676C255.563 126.002 253.124 128.923 251.39 132.465C249.617 136.09 248.176 141.167 246.795 147.349L251.674 148.44ZM259.724 130.657C259.905 130.641 259.966 130.664 259.949 130.659C259.916 130.648 259.868 130.62 259.841 130.592C259.814 130.563 260.06 130.809 260.152 131.859L265.133 131.423C264.994 129.827 264.54 128.259 263.436 127.117C262.243 125.883 260.697 125.552 259.288 125.676L259.724 130.657ZM260.152 131.859C260.328 133.865 259.771 136.138 259.041 138.856C258.377 141.332 257.498 144.38 257.741 147.15L262.722 146.714C262.574 145.02 263.121 142.944 263.871 140.152C264.555 137.6 265.399 134.46 265.133 131.423L260.152 131.859ZM257.741 147.15C257.899 148.954 258.546 150.624 259.86 151.798C261.192 152.987 262.883 153.376 264.532 153.231L264.096 148.251C263.512 148.302 263.282 148.15 263.19 148.068C263.081 147.971 262.803 147.639 262.722 146.714L257.741 147.15ZM264.532 153.231C268.407 152.892 270.394 149.97 271.85 147.308L267.464 144.907C266.048 147.496 265.182 148.156 264.096 148.251L264.532 153.231ZM271.85 147.308C271.819 147.365 271.739 147.478 271.589 147.579C271.441 147.68 271.295 147.724 271.188 147.738C271.089 147.752 271.038 147.739 271.044 147.74C271.049 147.742 271.082 147.75 271.133 147.777C271.184 147.804 271.229 147.836 271.262 147.865C271.296 147.896 271.293 147.902 271.272 147.868C271.252 147.835 271.186 147.719 271.157 147.519C271.126 147.301 271.146 147.023 271.269 146.748L275.835 148.786C276.455 147.395 276.04 146.072 275.526 145.24C275.012 144.408 274.249 143.766 273.46 143.352C272.677 142.94 271.633 142.631 270.509 142.785C269.273 142.954 268.143 143.667 267.464 144.907L271.85 147.308ZM271.298 146.684C270.672 147.987 269.932 150.116 269.138 152.216C268.302 154.425 267.317 156.861 266.1 159.156C263.578 163.91 260.502 167.228 256.538 167.575L256.974 172.556C263.677 171.969 267.871 166.486 270.517 161.499C271.883 158.922 272.956 156.252 273.814 153.986C274.713 151.61 275.304 149.894 275.805 148.849L271.298 146.684ZM269.665 146.107L272.087 146.726L272.09 146.715L269.665 146.107ZM287.962 115.262L290.291 116.172L290.293 116.166L287.962 115.262ZM280.364 139.839L282.816 140.33L282.82 140.308L282.824 140.286L280.364 139.839ZM290.419 144.291L288.226 143.091L288.221 143.099L288.217 143.107L290.419 144.291ZM294.32 146.033L296.583 147.097L296.585 147.092L294.32 146.033ZM276.473 165.831C274.08 166.04 272.857 165.426 272.148 164.692C271.35 163.865 270.771 162.44 270.581 160.274L265.6 160.71C265.838 163.423 266.624 166.168 268.551 168.165C270.568 170.254 273.431 171.116 276.909 170.812L276.473 165.831ZM270.581 160.274C270.246 156.44 270.885 151.431 272.087 146.726L267.243 145.488C265.963 150.498 265.198 156.11 265.6 160.71L270.581 160.274ZM272.09 146.715C275.233 134.182 277.426 124.896 279.664 118.616C280.783 115.477 281.839 113.315 282.892 111.939C283.903 110.618 284.748 110.221 285.516 110.154L285.08 105.173C282.499 105.399 280.495 106.844 278.922 108.9C277.391 110.9 276.127 113.648 274.955 116.938C272.61 123.515 270.336 133.157 267.24 145.499L272.09 146.715ZM285.516 110.154C286.073 110.105 286.313 110.193 286.363 110.217C286.381 110.225 286.371 110.223 286.356 110.207C286.341 110.191 286.351 110.195 286.372 110.247C286.505 110.577 286.636 111.769 285.632 114.358L290.293 116.166C291.397 113.321 291.89 110.566 291.011 108.381C290.531 107.187 289.672 106.257 288.519 105.706C287.422 105.181 286.218 105.073 285.08 105.173L285.516 110.154ZM285.634 114.351C281.868 123.982 279.242 132.045 277.905 139.391L282.824 140.286C284.076 133.409 286.567 125.694 290.291 116.172L285.634 114.351ZM277.913 139.347C277.427 141.773 276.985 144.712 277.571 147.075C277.884 148.341 278.544 149.658 279.839 150.568C281.126 151.473 282.687 151.726 284.308 151.585L283.872 146.604C283.013 146.679 282.745 146.499 282.714 146.477C282.691 146.461 282.545 146.36 282.424 145.872C282.14 144.729 282.316 142.823 282.816 140.33L277.913 139.347ZM284.308 151.585C288.348 151.231 290.888 148.696 292.621 145.476L288.217 143.107C286.939 145.482 285.621 146.451 283.872 146.604L284.308 151.585ZM292.612 145.491C292.577 145.555 292.494 145.668 292.344 145.77C292.197 145.868 292.053 145.91 291.953 145.923C291.86 145.936 291.814 145.923 291.824 145.926C291.833 145.928 291.869 145.938 291.92 145.965C291.971 145.992 292.015 146.024 292.045 146.051C292.077 146.081 292.071 146.084 292.047 146.043C292.024 146.004 291.961 145.884 291.938 145.685C291.913 145.469 291.943 145.214 292.056 144.974L296.585 147.092C297.228 145.718 296.875 144.382 296.349 143.495C295.836 142.628 295.058 141.969 294.26 141.546C293.466 141.126 292.416 140.817 291.291 140.967C290.056 141.132 288.911 141.838 288.226 143.091L292.612 145.491ZM292.058 144.969C291.453 146.255 290.689 148.388 289.863 150.474C288.992 152.673 287.953 155.096 286.67 157.377C284.029 162.068 280.752 165.456 276.473 165.831L276.909 170.812C283.792 170.209 288.205 164.843 291.027 159.829C292.475 157.257 293.61 154.59 294.511 152.315C295.457 149.926 296.064 148.201 296.583 147.097L292.058 144.969Z" fill="#4F453E" mask="url(#path-4-outside-2_17_20)"/>
<path d="M150.5 9C150.5 9 151.692 19.3862 155.05 23.4846C158.408 27.5829 167 29 167 29C167 29 158.572 30.4676 155.05 34.5154C151.313 38.8109 150.5 49 150.5 49C150.5 49 149.687 38.8109 145.95 34.5154C142.428 30.4676 134 29 134 29C134 29 142.428 27.5324 145.95 23.4846C149.687 19.1891 150.5 9 150.5 9Z" fill="#F6F1E3"/>
<path d="M110.5 28C110.5 28 111.403 36.309 113.947 39.5877C116.491 42.8663 123 44 123 44C123 44 116.615 45.1741 113.947 48.4123C111.116 51.8487 110.5 60 110.5 60C110.5 60 109.884 51.8487 107.053 48.4123C104.385 45.1741 98 44 98 44C98 44 104.385 42.8259 107.053 39.5877C109.884 36.1513 110.5 28 110.5 28Z" fill="#F6F1E3"/>
<path d="M85 138C85 138 86.8786 152.281 92.1701 157.916C97.4615 163.552 111 165.5 111 165.5C111 165.5 97.7198 167.518 92.1701 173.084C86.2808 178.99 85 193 85 193C85 193 83.7192 178.99 77.8299 173.084C72.2802 167.518 59 165.5 59 165.5C59 165.5 72.2802 163.482 77.8299 157.916C83.7192 152.01 85 138 85 138Z" fill="#F6F1E3"/>
<path d="M134.5 201C134.5 201 135.692 209.569 139.05 212.95C142.408 216.331 151 217.5 151 217.5C151 217.5 142.572 218.711 139.05 222.05C135.313 225.594 134.5 234 134.5 234C134.5 234 133.687 225.594 129.95 222.05C126.428 218.711 118 217.5 118 217.5C118 217.5 126.428 216.289 129.95 212.95C133.687 209.406 134.5 201 134.5 201Z" fill="#F6F1E3"/>
<path d="M186 193C186 193 186.795 199.491 189.033 202.053C191.272 204.614 197 205.5 197 205.5C197 205.5 191.381 206.417 189.033 208.947C186.542 211.632 186 218 186 218C186 218 185.458 211.632 182.967 208.947C180.619 206.417 175 205.5 175 205.5C175 205.5 180.619 204.583 182.967 202.053C185.458 199.368 186 193 186 193Z" fill="#F6F1E3"/>
</svg>
