<svg width="192" height="192" viewBox="0 0 192 192" fill="none" xmlns="http://www.w3.org/2000/svg">
<circle cx="96" cy="96" r="96" fill="#F6F1E3"/>
<path d="M94.6023 116.167C94.6023 116.167 85.9183 77.7361 70.398 77.7361C42.4984 77.7361 41.7593 129.101 60.6054 146.099C66.3331 151.273 90.3527 151.273 140.978 146.099C146.337 145.545 144.304 140.372 136.729 136.861C131.74 134.459 107.536 130.025 94.6023 116.167Z" fill="#FFBEB5"/>
<path d="M57.6489 85.3115C57.6489 87.5287 58.388 89.5611 59.6814 90.6697C60.2357 91.224 60.9747 91.5936 61.7138 91.9631C62.0833 92.1479 62.4528 92.1478 62.8224 92.1478H64.1157C65.7786 92.1478 67.4415 91.5936 68.7349 90.485C70.0282 89.3764 70.9521 87.5287 71.6911 85.3115C72.4302 87.5287 72.4302 90.1154 70.9521 92.3326C69.4739 94.5498 66.7024 95.8432 64.1157 95.8432H63.1919C62.8224 95.8432 62.6376 95.8432 62.2681 95.6584C61.529 95.4736 60.9747 95.2889 60.2357 95.1041C58.9423 94.5498 57.8337 93.626 57.2794 92.3326C55.986 90.1154 56.1708 87.1592 57.6489 85.3115Z" fill="#4F453E"/>
<path d="M148.739 115.243C155.021 107.298 155.944 94.5493 152.434 86.7892C147.26 75.3337 137.098 73.6708 137.098 73.6708C123.426 51.6837 85.7335 51.6837 74.2781 78.6595C84.0707 84.3872 89.6136 100.462 92.7546 109.146C95.7109 120.786 101.439 131.318 110.862 134.089C114.927 135.198 115.666 130.948 115.666 130.948C118.252 134.643 123.61 137.23 128.414 135.937C146.337 130.763 148.739 115.243 148.739 115.243Z" fill="#4F453E"/>
<path d="M66.7024 81.8014L61.8985 83.4643L57.2794 70.7155L62.0833 69.0526L66.7024 81.8014ZM77.4188 86.6053L72.7997 84.5729L78.5274 72.1936L83.1465 74.4108L77.4188 86.6053Z" fill="#FFBEB5"/>
<path d="M75.0169 60.5531C75.0169 69.2371 67.9958 76.2582 59.3118 76.2582C50.6278 76.2582 43.6068 69.2371 43.6068 60.5531C43.6068 51.8691 50.6278 44.848 59.3118 44.848C67.9958 45.0328 75.0169 52.0539 75.0169 60.5531Z" fill="#FFBEB5"/>
<path d="M68.3656 61.1069C68.3656 67.9432 63.0074 73.3014 56.5406 73.3014C49.889 73.3014 44.7156 67.7584 44.7156 61.1069C44.7156 54.2706 50.0738 48.9124 56.5406 48.9124C63.0074 48.9124 68.3656 54.4553 68.3656 61.1069Z" fill="#FCFCFA"/>
<path d="M66.8874 61.1069C66.8874 65.726 63.1921 69.6061 58.7577 69.6061C54.3233 69.6061 50.628 65.9108 50.628 61.1069C50.628 56.4877 54.3233 52.6077 58.7577 52.6077C63.3768 52.7924 66.8874 56.4877 66.8874 61.1069Z" fill="#4F453E"/>
<path d="M115.85 130.763C112.34 125.405 109.753 119.308 108.46 113.026C107.166 106.559 107.166 99.9074 108.644 93.4407C110.123 86.9739 113.264 80.6918 118.437 76.2575C121.024 74.0403 124.165 72.5621 127.491 72.0078C130.816 71.4535 134.142 72.0078 137.098 73.486C133.957 72.7469 130.816 72.7469 127.86 73.6707C124.904 74.5946 122.502 76.2574 120.285 78.2899C118.252 80.3223 116.405 82.909 115.111 85.6805C113.818 88.452 112.709 91.2235 112.155 94.1797C110.677 100.092 110.492 106.374 111.231 112.472C112.155 118.754 113.633 124.851 115.85 130.763Z" fill="#F6F1E3"/>
<path d="M148.739 115.243C147.445 116.906 145.782 118.199 143.935 119.308C142.087 120.416 140.055 121.155 137.653 121.34C135.436 121.525 133.034 120.786 131.001 119.493C128.969 118.199 127.491 116.536 126.197 114.689C123.611 110.993 122.687 106.005 123.241 101.57C123.795 97.136 125.828 92.7016 128.969 89.3758C130.632 87.7129 132.479 86.2348 134.881 85.4957C137.098 84.5719 139.685 84.3871 142.087 85.1262C144.674 85.8653 146.706 87.7129 147.815 89.7453C148.923 91.9625 149.478 94.3645 149.293 96.7664C149.108 99.1684 148.369 101.57 146.521 103.233C144.859 105.081 141.902 106.005 139.5 104.711C137.098 103.418 135.99 100.831 136.544 98.4293C136.914 97.136 137.653 96.2121 138.761 95.6578C139.316 95.4731 140.055 95.2883 140.609 95.6578C141.163 95.8426 141.533 96.2121 141.902 96.7664C140.055 95.1035 138.207 97.3207 138.022 98.7989C137.837 100.462 138.946 102.309 140.424 102.864C141.163 103.233 141.902 103.048 142.826 102.864C143.565 102.679 144.304 102.125 144.859 101.57C145.967 100.277 146.521 98.4293 146.521 96.5817C146.521 94.734 146.152 92.8864 145.228 91.4082C144.304 89.9301 143.011 88.8215 141.348 88.452C138.022 87.5282 134.327 89.191 131.74 91.9625C126.567 97.3207 124.904 106.559 128.784 113.211C130.632 116.536 133.773 119.308 137.653 119.493C141.533 119.677 145.598 117.645 148.739 115.243Z" fill="#F6F1E3"/>
<path d="M103.286 60.5528C103.286 70.5301 95.1563 78.475 85.179 78.475C75.2016 78.475 67.072 70.3453 67.072 60.5528C67.072 50.5754 75.2016 42.6305 85.179 42.6305C95.1563 42.6305 103.286 50.7602 103.286 60.5528Z" fill="#FFBEB5"/>
<path d="M81.8533 75.334C89.4045 75.334 95.526 69.0471 95.526 61.2918C95.526 53.5365 89.4045 47.2496 81.8533 47.2496C74.3021 47.2496 68.1807 53.5365 68.1807 61.2918C68.1807 69.0471 74.3021 75.334 81.8533 75.334Z" fill="#FCFCFA"/>
<path d="M94.048 61.2914C94.048 66.6496 89.7984 71.0839 84.625 71.0839C79.4515 71.0839 75.2019 66.6496 75.2019 61.2914C75.2019 55.9332 79.4515 51.4988 84.625 51.4988C89.7984 51.4988 94.048 55.9332 94.048 61.2914Z" fill="#4F453E"/>
</svg>
